<?xml version="1.0" encoding="UTF-8"?><svg id="Calque_2" xmlns="http://www.w3.org/2000/svg" viewBox="0 0 806.76 805.51"><defs><style>.cls-1{fill:#fff;}</style></defs><g id="Calque_1-2"><g><path class="cls-1" d="M393.5,35.96c.79,8.55-5.54,14.13-18.55,15.33l-25.59,2.36-4.57-49.49,24.18-2.23c12.37-1.14,19.21,3.43,19.92,11.14,.46,4.95-1.73,9-5.57,11.49,5.68,1.26,9.6,5.17,10.18,11.39Zm-36.53-24.22l1.08,11.67,11.38-1.05c5.59-.52,8.44-2.78,8.08-6.66-.36-3.89-3.58-5.52-9.16-5l-11.38,1.05Zm24.9,24.08c-.39-4.17-3.75-5.86-9.69-5.31l-13.36,1.23,1.13,12.23,13.36-1.23c5.94-.55,8.95-2.68,8.56-6.92Z"/><path class="cls-1" d="M431.26,51.1l-8.94-14.27-.57-.03-10-.46-.64,13.83-11.49-.53,2.29-49.65,21.49,.99c13.26,.61,21.24,7.87,20.73,19.01-.34,7.45-4.35,12.74-10.94,15.2l10.4,16.47-12.34-.57Zm-8.93-40.78l-9.36-.43-.79,17.3,9.36,.43c7.02,.32,10.72-2.78,10.96-8.17,.25-5.46-3.15-8.82-10.17-9.14Z"/><path class="cls-1" d="M481.97,47.89l-22.68-4.25-6.29,9.66-11.58-2.17,30.94-44.76,11.16,2.09,12.68,52.94-11.86-2.23-2.36-11.28Zm-1.95-9.25l-4.24-20.15-11.25,17.25,15.49,2.91Z"/><path class="cls-1" d="M556.64,30.03l-16.27,46.96-8.92-3.09-13.54-36.62-9.88,28.51-10.74-3.72,16.27-46.96,8.99,3.11,13.47,36.6,9.88-28.51,10.73,3.72Z"/><path class="cls-1" d="M570.74,36.13l19.95,10.57c14.37,7.61,19.63,21.49,12.59,34.79-7.05,13.3-21.48,16.74-35.85,9.13l-19.95-10.57,23.26-43.92Zm.61,45.88c8.72,4.62,17.19,2.44,21.64-5.97,4.45-8.41,1.5-16.64-7.22-21.26l-9.29-4.92-14.42,27.23,9.29,4.92Z"/><path class="cls-1" d="M608.67,85.73c2.92-4.28,8.33-5.15,12.38-2.38,3.99,2.72,5.21,8.11,2.29,12.39-2.92,4.28-8.43,5.17-12.41,2.44-4.05-2.76-5.17-8.17-2.25-12.45Z"/><path class="cls-1" d="M681.11,110.51l-48.3,24.5-8.74-7.26,15.25-51.93,9.56,7.94-11.04,36.97,34.47-17.52,8.79,7.3Z"/><path class="cls-1" d="M678.18,164.99l-15.65-16.96-10.81,3.99-7.99-8.66,51.55-17.42,7.7,8.35-21.46,50.03-8.18-8.87,4.84-10.46Zm3.96-8.58l8.64-18.69-19.33,7.11,10.69,11.58Z"/><path class="cls-1" d="M722.3,157.1l6.67,9.37-32.86,23.38,14.45,20.3-7.64,5.43-21.12-29.67,40.49-28.82Z"/><path class="cls-1" d="M723.18,206.64l24.55-13.12,5.42,10.15-24.17,12.92c-8.33,4.45-9.83,9.93-6.55,16.06,3.31,6.2,8.67,7.93,17,3.47l24.17-12.92,5.36,10.02-24.55,13.12c-12.9,6.9-23.99,3.32-30.65-9.14s-3.47-23.67,9.43-30.56Z"/><path class="cls-1" d="M749.91,296.49l-8.66,3.2-13.36-36.09,46.61-17.25,13.04,35.23-8.66,3.2-9.07-24.5-10.12,3.75,8.01,21.64-8.39,3.1-8.01-21.64-10.79,3.99,9.39,25.37Z"/><path class="cls-1" d="M746.48,300.05l9.33,1.81c-2.01,4.78-2.64,11.35-1.27,17.15,1.57,6.63,4.42,8.8,7.39,8.1,9.05-2.14-3.82-28.79,14.14-33.04,8.22-1.94,16.63,3.07,19.88,16.82,1.44,6.08,1.46,12.64-.31,17.8l-9.31-1.44c1.49-5.1,1.64-10.02,.63-14.3-1.57-6.63-4.66-8.6-7.7-7.88-8.91,2.11,3.89,28.77-13.87,32.97-8.08,1.91-16.58-3.16-19.85-16.97-1.81-7.67-1.36-15.95,.94-21.01Z"/><path class="cls-1" d="M768.7,392.95c-8.21,0-13.35-6.73-14.51-19.14l-2.46-26.19,50.68-4.77,2.33,24.78c1.14,12.1-3.21,19.8-11.64,20.6-4.51,.43-8.56-1.3-11.3-4.76-1.65,5.46-5.81,8.87-11.58,9.41h0c-.51,.05-1.01,.07-1.5,.07Zm-15.67-44.24l2.35,24.99c1.17,12.38,6.41,18.77,14.71,17.98h0c5.74-.54,9.59-4,10.85-9.73l.31-1.4,.78,1.2c2.5,3.83,6.4,5.71,10.95,5.28,7.8-.73,11.65-7.77,10.56-19.29l-2.22-23.58-48.29,4.54Zm16.51,32.57c-1.93,0-3.47-.73-4.6-2.16-1.19-1.52-1.91-3.79-2.21-6.96l-1.31-13.96,13.42-1.26,1.31,13.96c.75,8.03-2.76,10.06-5.83,10.35-.27,.03-.53,.04-.78,.04Zm-6.82-22l1.2,12.76c.27,2.89,.93,5.02,1.96,6.34,1.02,1.3,2.44,1.85,4.32,1.67h0c3.74-.35,5.29-3.31,4.75-9.04l-1.2-12.76-11.04,1.04Zm27.01,17.61c-2.8,0-5.95-1.63-6.62-8.65l-1.13-11.98,12.86-1.21,1.13,11.98c.72,7.62-2.61,9.55-5.53,9.82-.24,.02-.48,.03-.72,.03Zm-6.43-19.54l1.01,10.78c.5,5.33,2.53,7.86,6.03,7.53,3.45-.33,4.95-3.19,4.45-8.52l-1.02-10.78-10.47,.98Z"/><path class="cls-1" d="M753.89,443.52l.61-13.81,14.26-8.97,.42-9.66-13.83-.61,.56-12.69,50.86,2.24-.98,22.09c-.29,6.66-2.26,12.16-5.68,15.92-3.46,3.8-8.27,5.67-13.91,5.42-7.29-.32-12.76-4.08-15.49-10.61l-16.81,10.66Zm17.4-12.46l.26,.69c2.44,6.47,7.66,10.21,14.69,10.52,5.26,.24,9.76-1.51,12.97-5.03,3.23-3.55,5.09-8.79,5.37-15.17l.92-20.9-48.46-2.14-.45,10.29,13.83,.61-.51,11.48-14.25,8.97-.48,10.88,16.1-10.21Zm15.98,.79c-.19,0-.38,0-.57-.01-5.88-.26-9.07-4.48-8.76-11.58l.44-9.96,18.51,.82-.44,9.96c-.16,3.6-1.09,6.35-2.79,8.2-1.57,1.71-3.72,2.58-6.39,2.58Zm-7.74-20.3l-.39,8.76c-.28,6.43,2.42,10.1,7.62,10.33,2.57,.11,4.59-.62,6.02-2.18,1.49-1.63,2.32-4.13,2.47-7.44l.39-8.76-16.11-.71Z"/><path class="cls-1" d="M744.13,495.83l2.45-13.17,11.28-2.38,4.07-21.9-9.67-6.27,2.39-12.89,45.9,31.6-2.22,11.93-54.2,13.08Zm3.48-12.16l-1.96,10.56,51.65-12.46,1.93-10.4-43.74-30.11-1.91,10.28,9.67,6.27-4.36,23.48-11.28,2.38Zm19.25-4.08l3.21-17.26,19.24,12.5-22.44,4.76Zm4.06-15.28l-2.55,13.73,17.85-3.79-15.3-9.95Z"/><path class="cls-1" d="M776.74,556.14l-48.12-16.57,3.36-9.76,35.29-13.12-27.51-9.47,4.09-11.87,48.12,16.57-3.39,9.83-35.26,13.05,27.51,9.47-4.09,11.88Zm-46.6-17.32l45.85,15.79,3.31-9.61-29.55-10.18,37.88-14.02,2.81-8.16-45.85-15.79-3.31,9.6,29.54,10.18-37.9,14.09-2.79,8.09Z"/><path class="cls-1" d="M736.79,605.85c-4.02,0-8.1-1.06-12.09-3.16-6.65-3.51-11.06-8.88-12.73-15.54-1.66-6.58-.52-13.88,3.29-21.1l10.81-20.5,45.01,23.75-10.81,20.5c-3.81,7.22-9.19,12.28-15.56,14.63-2.58,.95-5.24,1.43-7.93,1.43Zm-10.21-58.68l-10.25,19.44c-3.67,6.96-4.77,13.96-3.19,20.25,1.59,6.32,5.78,11.43,12.13,14.77,6.34,3.35,12.93,3.93,19.04,1.67,6.08-2.24,11.24-7.11,14.91-14.06l10.25-19.44-42.89-22.63Zm11.5,47.32c-2.57,0-5.26-.69-7.94-2.1-8.6-4.54-11.06-13.35-6.26-22.44h0s5.18-9.82,5.18-9.82l28.31,14.94-5.18,9.82c-3.3,6.26-8.43,9.61-14.11,9.61Zm-13.14-23.98h0c-4.53,8.58-2.32,16.56,5.76,20.82,8.08,4.26,15.91,1.58,20.43-7l4.62-8.76-26.19-13.82-4.62,8.76Z"/><path class="cls-1" d="M715.87,624.42c-1.9,0-3.78-.58-5.43-1.71-4.46-3.03-5.61-8.85-2.62-13.24,1.44-2.11,3.58-3.53,6.03-4,2.48-.47,5.06,.08,7.25,1.57h0c2.18,1.49,3.64,3.67,4.1,6.15,.45,2.44-.09,4.94-1.53,7.06-1.42,2.09-3.55,3.51-5.98,4-.6,.12-1.21,.18-1.81,.18Zm-.28-17.91c-.51,0-1.01,.05-1.51,.14-2.14,.41-4.01,1.65-5.27,3.49-2.61,3.84-1.6,8.92,2.31,11.58,1.91,1.3,4.16,1.78,6.33,1.34,2.13-.42,3.98-1.66,5.23-3.49,1.26-1.85,1.74-4.04,1.34-6.16-.4-2.16-1.67-4.07-3.59-5.37-1.48-1.01-3.15-1.53-4.83-1.53Z"/><path class="cls-1" d="M695.99,681.1l-25.17-49.42,7.75-9.36,53.21,15.53-8.75,10.58-36.03-10.69,17.12,33.55-8.12,9.81Zm-23.75-49.26l23.99,47.09,6.45-7.8-18.03-35.34,37.95,11.26,7.09-8.56-50.7-14.79-6.74,8.14Z"/><path class="cls-1" d="M672.52,702.62l-51.28-21.9,9.83-9.1,10.47,4.83,16.35-15.13-4-10.81,9.62-8.91,17.93,52.77-8.91,8.25Zm-49.11-22.27l48.86,20.86,7.77-7.19-17.08-50.28-7.68,7.11,4,10.81-17.52,16.22-10.47-4.83-7.88,7.3Zm46.6,10.53l-20.84-9.59,12.89-11.93,7.96,21.52Zm-18.71-9.93l16.58,7.63-6.33-17.12-10.25,9.49Z"/><path class="cls-1" d="M640.09,728.81l-23.44-32.81-20.28,14.48-6.14-8.6,30.61-21.86,29.58,41.42-10.33,7.38Zm-23.16-34.49l23.44,32.81,8.38-5.99-28.18-39.46-28.66,20.47,4.75,6.65,20.28-14.48Z"/><path class="cls-1" d="M573.32,768.88l-13.45-25.05c-3.5-6.52-4.43-12.62-2.77-18.12,1.62-5.36,5.81-9.98,12.1-13.36,6.29-3.38,12.45-4.31,17.82-2.7,5.5,1.65,10.07,5.8,13.57,12.32l13.45,25.05-11.19,6.01-13.25-24.68c-4.06-7.56-9.05-9.61-15.26-6.28-3.06,1.64-4.83,3.68-5.42,6.23-.62,2.7,.12,6.05,2.22,9.96l13.25,24.68-11.07,5.94Zm8.28-58.82c-3.72,0-7.68,1.12-11.83,3.34-6.09,3.27-9.96,7.53-11.52,12.65-1.57,5.18-.67,10.97,2.67,17.2l12.88,23.99,8.95-4.81-12.68-23.62c-2.24-4.17-3.02-7.8-2.33-10.79,.66-2.87,2.69-5.23,6.02-7.02,6.83-3.66,12.51-1.39,16.88,6.77l12.68,23.62,9.08-4.87-12.88-24c-3.34-6.23-7.67-10.18-12.86-11.73-1.64-.49-3.33-.74-5.08-.74Z"/><path class="cls-1" d="M524.87,787.54l-3.64-9.77,24.49-9.11-3.35-8.99-21.63,8.05-3.54-9.51,21.63-8.05-3.59-9.66-25.35,9.44-3.64-9.77,37.19-13.84,17.75,47.7-36.33,13.52Zm-2.09-9.07l2.8,7.53,34.08-12.68-16.92-45.46-34.94,13,2.8,7.53,25.35-9.44,4.43,11.9-21.63,8.05,2.7,7.26,21.63-8.05,4.18,11.24-24.49,9.11Z"/><path class="cls-1" d="M487.05,796.89c-3.31,0-6.43-.46-9.12-1.38l-.48-.16,1.61-10.49,.66,.19c4.86,1.42,9.69,1.62,14,.6,5.54-1.32,8.18-3.81,7.42-6.99-.77-3.23-5.68-3.18-11.36-3.13-8.49,.08-19.06,.18-21.64-10.68-1.03-4.33-.08-8.68,2.68-12.24,3.02-3.89,8.1-6.78,14.71-8.36,7.69-1.83,16.09-1.46,21.4,.94l.43,.2-2.02,10.52-.68-.28c-4.9-2.05-11.33-2.51-16.78-1.21-5.64,1.34-8.35,3.72-7.65,6.68,.79,3.29,5.71,3.26,11.4,3.23,8.49-.05,19.05-.11,21.66,10.85,2.26,9.5-4.5,17.6-17.23,20.63-3.03,.72-6.09,1.08-9.01,1.08Zm-8.26-2.36c4.79,1.51,10.95,1.55,16.99,.11,14.59-3.48,18.01-12.19,16.34-19.19-2.39-10.04-12.02-9.98-20.49-9.93-6.21,.03-11.57,.07-12.58-4.15-.51-2.15-.08-6.07,8.54-8.12,5.44-1.3,11.82-.91,16.84,1l1.56-8.15c-5.1-2.13-12.96-2.4-20.2-.68-6.33,1.51-11.19,4.25-14.04,7.93-2.57,3.31-3.42,7.2-2.46,11.23,2.36,9.92,11.98,9.84,20.46,9.76,6.2-.05,11.54-.11,12.54,4.05,.44,1.84,.5,6.34-8.31,8.44-4.3,1.03-9.12,.88-13.95-.43l-1.25,8.15Z"/><path class="cls-1" d="M417.38,769.46c-.89-8.54,5.38-14.19,18.38-15.54l25.56-2.65,5.13,49.43-24.15,2.5c-12.36,1.28-19.25-3.21-20.05-10.91-.51-4.94,1.63-9.02,5.44-11.56-5.69-1.19-9.66-5.06-10.31-11.28Zm11.63,0c.43,4.17,3.82,5.81,9.75,5.2l13.35-1.38-1.27-12.22-13.35,1.38c-5.93,.62-8.92,2.78-8.48,7.02Zm25.17,23.8l-1.21-11.65-11.37,1.18c-5.58,.58-8.41,2.87-8.01,6.75,.4,3.88,3.64,5.48,9.21,4.9l11.37-1.18Z"/><path class="cls-1" d="M379.43,754.74l9.1,14.17,.57,.02,10,.35,.48-13.84,11.49,.4-1.73,49.67-21.5-.75c-13.27-.46-21.33-7.63-20.94-18.77,.26-7.45,4.21-12.78,10.76-15.32l-10.58-16.35,12.35,.43Zm9.38,40.68l9.37,.33,.6-17.31-9.37-.33c-7.02-.24-10.69,2.9-10.87,8.29-.19,5.46,3.25,8.78,10.27,9.02Z"/><path class="cls-1" d="M328.75,758.53l22.73,4,6.18-9.73,11.61,2.04-30.43,45.12-11.19-1.97-13.28-52.8,11.89,2.09,2.49,11.25Zm2.05,9.23l4.47,20.11,11.06-17.38-15.53-2.73Z"/><path class="cls-1" d="M254.32,777.24l15.73-47.15,8.96,2.99,13.95,36.47,9.55-28.62,10.78,3.6-15.73,47.15-9.03-3.01-13.89-36.45-9.55,28.62-10.78-3.6Z"/><path class="cls-1" d="M240.13,771.3l-20.07-10.34c-14.45-7.45-19.87-21.26-12.98-34.64,6.89-13.38,21.29-16.98,35.74-9.54l20.07,10.34-22.76,44.18Zm-1.13-45.86c-8.77-4.52-17.21-2.24-21.57,6.22s-1.31,16.65,7.46,21.17l9.34,4.81,14.11-27.39-9.34-4.81Z"/><path class="cls-1" d="M201.62,722.12c-2.88,4.31-8.27,5.24-12.35,2.52-4.02-2.68-5.3-8.05-2.43-12.37,2.88-4.31,8.37-5.26,12.38-2.58,4.08,2.72,5.26,8.11,2.39,12.42Z"/><path class="cls-1" d="M128.92,698.17l48.02-25.04,8.82,7.16-14.67,52.1-9.65-7.83,10.63-37.09-34.28,17.9-8.88-7.2Z"/><path class="cls-1" d="M131.27,643.69l15.84,16.78,10.77-4.11,8.09,8.57-51.35,17.99-7.8-8.26,20.9-50.27,8.28,8.78-4.72,10.51Zm-3.87,8.63l-8.43,18.79,19.25-7.33-10.82-11.46Z"/><path class="cls-1" d="M87.22,652.05l-6.77-9.29,32.59-23.75-14.68-20.14,7.57-5.52,21.45,29.43-40.16,29.27Z"/><path class="cls-1" d="M85.78,602.53l-24.39,13.4-5.54-10.08,24.02-13.19c8.28-4.55,9.71-10.03,6.37-16.13-3.38-6.16-8.75-7.83-17.03-3.28l-24.02,13.19-5.47-9.96,24.39-13.4c12.82-7.04,23.95-3.59,30.75,8.79,6.8,12.38,3.74,23.62-9.08,30.66Z"/><path class="cls-1" d="M58.02,512.97l8.62-3.3,13.76,35.93-46.41,17.77-13.43-35.07,8.62-3.3,9.34,24.4,10.08-3.86-8.25-21.55,8.35-3.2,8.25,21.55,10.74-4.11-9.67-25.26Z"/><path class="cls-1" d="M61.4,509.35l-9.35-1.7c1.95-4.8,2.51-11.38,1.08-17.17-1.64-6.62-4.52-8.75-7.48-8.02-9.03,2.24,4.14,28.75-13.77,33.2-8.2,2.04-16.67-2.88-20.07-16.6-1.51-6.06-1.6-12.63,.11-17.81l9.33,1.34c-1.44,5.11-1.53,10.04-.47,14.31,1.64,6.62,4.76,8.55,7.79,7.79,8.89-2.21-4.21-28.73,13.5-33.13,8.06-2,16.61,2.97,20.04,16.75,1.9,7.65,1.54,15.93-.7,21.03Z"/><path class="cls-1" d="M5.01,467.23l-2.61-24.74c-.65-6.14,.07-11.09,2.14-14.72,1.99-3.5,5.2-5.57,9.27-6,4.5-.47,8.58,1.2,11.35,4.63,1.58-5.48,5.71-8.93,11.47-9.54h0c4.5-.47,8.2,.93,10.99,4.17,2.79,3.23,4.55,8.18,5.24,14.71l2.76,26.15-50.62,5.34Zm10.33-44.35c-.46,0-.93,.02-1.41,.08-3.67,.39-6.56,2.26-8.35,5.4-1.91,3.36-2.6,8.2-1.99,14l2.48,23.55,48.23-5.09-2.63-24.96c-.66-6.28-2.33-11.01-4.95-14.05-2.52-2.93-5.88-4.19-9.96-3.76-5.73,.6-9.54,4.1-10.73,9.85l-.29,1.4-.8-1.19c-2.28-3.41-5.65-5.23-9.6-5.23Zm-2.92,32.07l-1.26-11.96c-.31-2.92-.03-5.24,.83-6.89,.92-1.76,2.46-2.77,4.59-2.99,2.13-.23,3.86,.44,5.14,1.96,1.21,1.44,1.98,3.65,2.29,6.57l1.26,11.96-12.84,1.35Zm4.95-20.69c-.22,0-.44,.01-.67,.04-1.73,.18-2.92,.95-3.65,2.35-.75,1.44-.98,3.53-.7,6.21l1.14,10.77,10.46-1.1-1.14-10.77c-.28-2.67-.96-4.66-2.01-5.92-.89-1.06-2.01-1.58-3.42-1.58Zm15.03,18.58l-1.47-13.94c-.85-8.02,2.64-10.09,5.72-10.42h0c4.42-.47,7.01,2.56,7.69,9l1.47,13.94-13.41,1.41Zm4.37-23.16c-3.73,.39-5.25,3.37-4.65,9.1l1.35,12.75,11.02-1.16-1.34-12.75c-.8-7.63-4.02-8.18-6.37-7.93h0Z"/><path class="cls-1" d="M50.88,411.76l-50.88-1.67,.73-22.1c.45-13.68,7.89-21.94,19.36-21.56,7.29,.24,12.81,3.94,15.61,10.44l16.69-10.85-.46,13.81-14.15,9.13-.32,9.66,13.84,.46-.42,12.7Zm-49.64-2.83l48.48,1.59,.34-10.3-13.84-.46,.38-11.49,14.15-9.12,.36-10.88-15.99,10.39-.27-.69c-2.51-6.45-7.77-10.12-14.81-10.35-10.8-.35-17.69,7.47-18.12,20.4l-.69,20.9Zm27.02-9.42l-18.52-.61,.33-9.97c.12-3.6,1.02-6.37,2.69-8.23,1.66-1.85,4-2.74,6.93-2.64,2.91,.1,5.17,1.13,6.72,3.09,1.56,1.98,2.29,4.8,2.17,8.39l-.33,9.97Zm-17.28-1.77l16.12,.53,.29-8.77c.11-3.3-.54-5.86-1.92-7.61-1.31-1.66-3.27-2.55-5.81-2.63-2.6-.09-4.59,.67-6,2.24-1.47,1.65-2.28,4.16-2.39,7.47l-.29,8.77Z"/><path class="cls-1" d="M51.67,370.36l-46.25-31.08,2.08-11.96,54.05-13.69-2.3,13.2-11.25,2.51-3.82,21.94,9.74,6.16-2.25,12.92Zm-44.94-31.64l44.07,29.61,1.79-10.3-9.74-6.16,4.09-23.52,11.25-2.51,1.84-10.58-51.5,13.05-1.82,10.42Zm29.26,8.71l-19.38-12.28,22.39-5.01-3.01,17.3Zm-16.29-11.75l15.41,9.77,2.4-13.76-17.81,3.99Z"/><path class="cls-1" d="M61.83,314.07l-48.31-16.03,3.28-9.87,.26-.1,34.85-13.35-27.61-9.16,3.95-11.92,48.31,16.03-3.25,9.8-35.14,13.52,27.62,9.16-3.95,11.92Zm-46.79-16.79l46.03,15.27,3.2-9.64-29.66-9.84,37.74-14.52,2.69-8.12-46.03-15.27-3.2,9.64,29.66,9.84-37.72,14.45-2.72,8.19Z"/><path class="cls-1" d="M79.03,263.68l-45.29-23.24,10.58-20.62c3.73-7.27,9.05-12.39,15.39-14.81,6.41-2.45,13.34-1.93,20.04,1.51,6.7,3.43,11.16,8.76,12.91,15.4,1.73,6.56,.68,13.87-3.05,21.14l-10.58,20.62Zm-43.67-23.75l43.15,22.14,10.03-19.56c3.59-7,4.62-14.01,2.96-20.28-1.66-6.3-5.92-11.36-12.3-14.64-6.38-3.27-12.97-3.78-19.06-1.45-6.06,2.31-11.16,7.24-14.75,14.24l-10.03,19.55Zm40.52,9.21l-28.49-14.61,5.07-9.88c4.7-9.15,13.32-12.2,21.97-7.76,4.28,2.2,7.15,5.48,8.29,9.49,1.13,3.96,.51,8.42-1.78,12.88l-5.07,9.88Zm-26.87-15.13l26.35,13.52,4.52-8.81c2.15-4.19,2.74-8.35,1.69-12.01-1.05-3.68-3.71-6.71-7.69-8.75-8.13-4.17-15.93-1.4-20.35,7.24l-4.52,8.82Z"/><path class="cls-1" d="M88.72,203.82c-1.88,0-3.76-.57-5.42-1.67h0c-2.2-1.46-3.68-3.63-4.17-6.1-.48-2.43,.04-4.94,1.45-7.07,2.94-4.43,8.73-5.58,13.19-2.62,2.2,1.46,3.68,3.64,4.18,6.14,.49,2.46,0,4.97-1.41,7.07-1.41,2.13-3.54,3.57-5.99,4.07-.61,.12-1.23,.18-1.84,.18Zm-.29-17.9c-2.66,0-5.25,1.3-6.85,3.72-1.24,1.86-1.69,4.06-1.27,6.18,.42,2.16,1.72,4.05,3.65,5.33h0c1.94,1.29,4.2,1.75,6.36,1.31,2.14-.43,3.99-1.69,5.23-3.55,1.22-1.84,1.66-4.03,1.23-6.18-.44-2.19-1.74-4.09-3.67-5.37-1.46-.97-3.08-1.44-4.68-1.44Z"/><path class="cls-1" d="M125.67,186.37l-53.38-14.92,8.63-10.68,36.15,10.28-17.5-33.35,8.01-9.91,25.73,49.13-7.64,9.45Zm-51.3-15.59l50.86,14.22,6.65-8.22-24.51-46.81-6.37,7.87,18.43,35.13-38.07-10.83-6.99,8.64Z"/><path class="cls-1" d="M140.51,166.92l-18.52-52.56,8.82-8.34,51.52,21.31-9.73,9.21-10.52-4.71-16.17,15.31,4.12,10.76-9.52,9.01Zm-17.13-52.22l17.65,50.08,7.6-7.19-4.12-10.76,17.34-16.42,10.52,4.71,7.8-7.39-49.09-20.31-7.68,7.27Zm18.26,24.46l-8.2-21.43,20.95,9.36-12.75,12.07Zm-6.04-19.15l6.52,17.04,10.14-9.6-16.66-7.44Z"/><path class="cls-1" d="M182.73,128.03l-30.05-41.09,10.25-7.5,23.81,32.55,20.12-14.71,6.24,8.53-30.37,22.21Zm-28.37-40.83l28.63,39.15,28.43-20.79-4.82-6.6-20.12,14.71-23.81-32.55-8.32,6.08Z"/><path class="cls-1" d="M221.36,98.75c-7.59,0-14.15-4.38-18.85-12.9l-13.73-24.89,11.12-6.13,13.52,24.52c2.14,3.87,4.55,6.31,7.17,7.25,2.47,.89,5.14,.51,8.15-1.15,6.17-3.4,7.16-8.71,3.02-16.22l-13.52-24.52,11-6.06,13.73,24.89c7.16,12.98,3.89,24.49-8.97,31.58-4.42,2.44-8.67,3.64-12.65,3.64Zm-30.94-37.32l13.15,23.84c6.79,12.31,17.68,15.51,29.86,8.79,12.19-6.72,15.29-17.64,8.5-29.95l-13.15-23.84-8.9,4.91,12.94,23.47c4.47,8.1,3.3,14.11-3.49,17.85-3.29,1.81-6.36,2.23-9.14,1.23-2.91-1.04-5.54-3.67-7.82-7.8l-12.94-23.47-9.02,4.98Z"/><path class="cls-1" d="M259.59,80.86l-18.29-47.5,36.17-13.93,3.75,9.73-24.38,9.39,3.45,8.95,21.53-8.29,3.65,9.47-21.53,8.29,3.7,9.61,25.24-9.72,3.75,9.73-37.03,14.26Zm-16.74-46.81l17.43,45.26,34.79-13.4-2.89-7.49-25.24,9.72-4.57-11.85,21.53-8.29-2.78-7.23-21.53,8.29-4.31-11.19,24.38-9.39-2.89-7.49-33.93,13.06Z"/><path class="cls-1" d="M307.02,63.53c-4.22,0-8.14-.66-11.11-1.97l-.43-.19,1.9-10.54,.68,.28c4.92,1.99,11.36,2.38,16.8,1.02,5.62-1.41,8.31-3.81,7.57-6.77-.82-3.29-5.75-3.2-11.44-3.1-8.48,.15-19.05,.33-21.79-10.61-1.1-4.38-.22-8.76,2.47-12.35,2.93-3.91,7.96-6.84,14.52-8.49,6.44-1.61,13.05-1.58,18.14,.09l.48,.16-1.49,10.51-.66-.18c-4.87-1.36-9.72-1.51-14.01-.44-2.99,.75-5.13,1.83-6.35,3.2-1.02,1.14-1.35,2.45-.99,3.87,.81,3.22,5.71,3.12,11.39,3,8.49-.18,19.05-.4,21.76,10.43,1.08,4.32,.18,8.68-2.54,12.27-2.97,3.93-8.03,6.88-14.61,8.53-3.4,.85-6.95,1.27-10.31,1.27Zm-10.19-2.88c5.13,2.07,12.98,2.25,20.21,.44,6.32-1.58,11.14-4.38,13.95-8.09,2.53-3.34,3.34-7.24,2.33-11.26-2.48-9.9-12.1-9.7-20.58-9.52-6.19,.13-11.54,.24-12.58-3.91-.45-1.81-.02-3.52,1.26-4.96,1.39-1.56,3.73-2.76,6.96-3.57,4.29-1.08,9.11-.98,13.96,.27l1.15-8.16c-4.81-1.45-10.97-1.42-17,.09-6.3,1.58-11.09,4.36-13.85,8.04-2.5,3.34-3.29,7.25-2.27,11.33,2.51,10.01,12.12,9.85,20.6,9.7,6.2-.11,11.57-.2,12.62,4.01,.54,2.15,.16,6.07-8.44,8.22-5.42,1.36-11.81,1.05-16.86-.8l-1.47,8.17Z"/></g></g></svg>
