<?xml version="1.0" encoding="UTF-8"?><svg id="Calque_2" xmlns="http://www.w3.org/2000/svg" viewBox="0 0 312.99 312.47"><defs><style>.cls-1{fill:#fff;}</style></defs><g id="Calque_1-2"><path class="cls-1" d="M312.99,48.69c0,14.11-6.07,27.46-16.72,36.72l-136.37,118.3-14.34,48.34c-3.19,10.29-11.03,18.56-21.26,22.18l-104.62,37.37c-11.48,4.1-22.67-6.74-18.94-18.32l33.22-103.9c3.5-10.35,12.22-18.81,23.23-21.93l52.1-15.44L227.58,16.71C236.84,6.09,250.25,0,264.28,0c26.89,0,48.7,21.8,48.7,48.69h0ZM118.72,156.59l37.68,37.68,133.43-116.28c8.52-7.35,13.36-18.06,13.36-29.3,0-21.47-17.4-38.88-38.9-38.88-11.21,0-21.93,4.86-29.28,13.34L118.72,156.59Zm31.86,45.7l-39.94-40.5-50.75,15.01c-7.87,2.27-14.09,8.33-16.6,16.11L10.19,295.84l47.11-47.05c-2.57-3.92-4.06-8.52-4.06-13.54,0-13.54,10.97-24.51,24.51-24.51s24.51,10.97,24.51,24.51-10.97,24.51-24.51,24.51c-5.02,0-9.62-1.47-13.54-4.04l-46,46.01,102.85-36.7c7.23-2.63,12.87-8.52,15.13-15.87l14.4-46.87Zm-72.84,18.26c-8.15,0-14.7,6.56-14.7,14.7s6.56,14.7,14.7,14.7,14.7-6.56,14.7-14.7-6.56-14.7-14.7-14.7Z"/></g></svg>