<?xml version="1.0" encoding="UTF-8"?><svg id="Calque_2" xmlns="http://www.w3.org/2000/svg" viewBox="0 0 306.22 306.29"><defs><style>.cls-1{fill:#fff;}</style></defs><g id="Calque_1-2"><path class="cls-1" d="M260.46,90.08c18.01,2.44,33.69,15.27,38.79,33.35,5.39,19.1-1.4,37.73-15.33,49.74l21.56,76.35c4.5,15.93-12.28,29.54-26.95,21.81l-31.66-16.76c-28.41-14.99-60.92-21.11-92.03-18.38l-2.59-9.18c33.96-3.47,68.45,3.13,99.02,19.29l31.19,16.83c7.84,3.72,16.21-3.05,13.96-11.04L229.69,15.78c-2.11-7.46-12.79-8.87-17.52-1.59l-17.77,30.68c-17.61,29.73-43.55,53.4-74.31,68.2l-2.59-9.18c27.95-13.95,52.46-36.16,68.82-63.82l18.23-30.81c8.46-14.27,29.87-11.47,34.37,4.48l21.56,76.35Zm20.6,72.95c9.07-9.29,13.06-23.09,9.13-37.03-3.65-12.92-14.27-22.59-26.86-25.77l17.73,62.8Zm-125.9,143.63c3.54,12.53-3.74,25.54-16.27,29.07l-27.21,7.68c-12.52,3.54-25.54-3.74-29.07-16.27l-19.2-68.01c-20.04,5.66-40.87-6.02-46.66-26.54L1.37,178.16c-5.51-19.5,6-40.86,26.03-46.52l61.67-17.41c3.63-1.02,7.37-1.65,10.91-2.96l55.17,195.37Zm-28.27-65.45l-1.81,.51-52.6,14.85,19.2,68.01c2.13,7.54,9.93,11.88,17.44,9.76l27.21-7.68c7.54-2.13,11.89-9.91,9.76-17.44l-19.2-68.01Zm-4.37-8.56l1.81-.51-30.87-109.33-1.81,.51-61.67,17.41c-15.03,4.24-23.62,20.38-19.52,34.89l15.36,54.41c4.39,15.53,20.01,24.28,35.03,20.03l61.67-17.41Z"/></g></svg>
