<?xml version="1.0" encoding="UTF-8"?><svg id="Calque_2" xmlns="http://www.w3.org/2000/svg" viewBox="0 0 791.94 790.71"><defs><style>.cls-1{fill:#fff;}</style></defs><g id="Calque_1-2"><g><path class="cls-1" d="M336.25,25.96c-1.35-12.71,7.43-22.75,20.67-24.15,7.7-.81,14.2,1.33,18.79,5.97l-6.8,7.6c-2.96-2.88-6.36-4.27-10.36-3.85-6.86,.73-11.13,6-10.37,13.16s6.04,11.43,12.9,10.7c4-.42,7.04-2.49,9.33-5.93l8.24,6.01c-3.52,5.5-9.43,8.96-17.12,9.78-13.25,1.4-23.92-6.58-25.27-19.29Z"/><path class="cls-1" d="M380.71,21.35c.27-12.6,10.36-21.62,23.79-21.34,13.44,.28,23.14,9.73,22.87,22.33-.27,12.6-10.36,21.62-23.79,21.34-13.44-.28-23.14-9.73-22.87-22.33Zm34.67,.73c.15-7.26-4.73-12.1-11.08-12.24-6.36-.13-11.44,4.5-11.59,11.76s4.72,12.1,11.08,12.24,11.44-4.5,11.59-11.76Z"/><path class="cls-1" d="M468.99,50.06l3.62-21.96-13.69,16.05-5.2-.89-7.64-19.08-3.64,21.35-10.82-1.85,7.06-41.4,9.64,1.64,10.47,26.38,18.27-21.47,9.64,1.64-6.94,41.42-10.76-1.84Z"/><path class="cls-1" d="M522.2,65.74l7.04-21.11-16.05,13.68-5-1.7-4.54-20.04-6.96,20.51-10.4-3.53,13.5-39.77,9.26,3.14,6.18,27.7,21.43-18.32,9.26,3.14-13.39,39.8-10.34-3.51Z"/><path class="cls-1" d="M546.92,55.42l10.58-20.74,10.58,5.4-10.42,20.42c-3.27,6.41-1.91,10.34,2.53,12.61,4.38,2.24,8.37,1.03,11.64-5.38l10.42-20.42,10.42,5.32-10.58,20.74c-5.7,11.17-15.41,14.1-26.47,8.45s-14.4-15.22-8.7-26.4Z"/><path class="cls-1" d="M636.03,81.52l-23.83,34.59-8.05-5.55-2.57-28.95-12.7,18.43-9.58-6.6,23.83-34.59,8.05,5.55,2.57,28.95,12.7-18.43,9.59,6.6Z"/><path class="cls-1" d="M644.61,88.86l9.11,7.63-26.97,32.2-9.11-7.63,26.97-32.2Z"/><path class="cls-1" d="M645.93,116.96c9.04-9.04,22.36-8.53,31.77,.89,5.47,5.47,7.89,11.88,7.17,18.37l-10.18-.51c.38-4.11-.68-7.64-3.52-10.48-4.88-4.88-11.67-4.88-16.76,.21s-5.09,11.88-.21,16.76c2.84,2.84,6.36,3.9,10.48,3.52l.51,10.18c-6.49,.72-12.9-1.7-18.37-7.17-9.42-9.42-9.93-22.74-.89-31.77Z"/><path class="cls-1" d="M685.98,180.57l-10.92-14.01-8.46,2.42-7.45-9.56,44.52-11.21,7.19,9.23-21.68,40.5-7.6-9.75,4.41-7.62Zm4.77-8.13l7.28-12.52-13.92,4.01,6.64,8.52Z"/><path class="cls-1" d="M721.22,188.82l-6.76-10.99,8.03-4.94,19.71,32.05-8.03,4.94-6.73-10.94-27.76,17.07-6.22-10.12,27.76-17.07Z"/><path class="cls-1" d="M745.11,211.22l5.39,10.59-37.43,19.06-5.39-10.59,37.43-19.06Z"/><path class="cls-1" d="M735.54,237.61c11.73-4.59,23.95,1.27,28.84,13.78s-.11,25.1-11.84,29.69c-11.73,4.59-23.94-1.27-28.84-13.78s.1-25.1,11.84-29.69Zm12.63,32.3c6.76-2.64,9.36-9.01,7.05-14.93-2.32-5.92-8.54-8.83-15.31-6.19-6.76,2.64-9.36,9.01-7.05,14.93,2.32,5.92,8.54,8.83,15.31,6.19Z"/><path class="cls-1" d="M784.35,322.42l-40.85,9.79-2.28-9.51,17.44-23.25-21.76,5.22-2.71-11.32,40.84-9.79,2.28,9.51-17.44,23.25,21.76-5.22,2.71,11.32Z"/><path class="cls-1" d="M755.97,377.98l-.48-.3c-5.76-3.66-9.24-9.73-10.09-17.54-.71-6.58,.86-12.81,4.43-17.53,3.6-4.76,9.04-7.76,15.33-8.44h0c6.29-.68,12.25,1.08,16.78,4.97,4.5,3.85,7.37,9.6,8.08,16.18,.85,7.81-1.27,14.48-6.1,19.3l-.4,.4-8.5-7.57,.44-.45c2.86-2.95,4.06-6.19,3.66-9.89-.71-6.6-5.75-10.54-12.53-9.81-3.34,.36-6.07,1.73-7.9,3.96-1.81,2.21-2.59,5.08-2.24,8.3,.4,3.7,2.26,6.61,5.69,8.88l.52,.35-6.69,9.21Zm9.32-42.63c-5.96,.64-11.11,3.48-14.5,7.97-3.38,4.48-4.87,10.41-4.19,16.68,.78,7.22,3.91,12.86,9.07,16.35l5.29-7.29c-3.37-2.41-5.29-5.56-5.71-9.39-.38-3.54,.48-6.72,2.51-9.19,2.03-2.48,5.04-4,8.7-4.4,7.37-.8,13.07,3.67,13.85,10.87,.41,3.83-.78,7.33-3.56,10.4l6.73,5.99c4.29-4.51,6.14-10.69,5.36-17.91-.68-6.27-3.4-11.74-7.66-15.4-4.28-3.67-9.91-5.33-15.87-4.69h0Z"/><path class="cls-1" d="M769.5,426.42c-.15,0-.3,0-.46,0-13-.25-22.24-10.49-21.98-24.36,.13-6.65,2.5-12.69,6.68-17,4.19-4.32,9.95-6.62,16.21-6.52,13,.25,22.24,10.49,21.98,24.36-.13,6.65-2.5,12.69-6.68,17-4.09,4.21-9.67,6.52-15.75,6.52Zm0-46.67c-5.75,0-11.03,2.18-14.89,6.16-3.97,4.09-6.22,9.83-6.34,16.18-.25,13.17,8.5,22.9,20.81,23.13,5.94,.12,11.36-2.07,15.32-6.15,3.97-4.09,6.22-9.83,6.34-16.18,.25-13.17-8.5-22.9-20.81-23.13-.14,0-.29,0-.43,0Zm.08,34.68c-.1,0-.2,0-.3,0-7.3-.14-12.5-5.26-12.37-12.17,.13-6.92,5.53-11.8,12.82-11.7,3.66,.07,6.8,1.32,9.07,3.63,2.19,2.22,3.36,5.25,3.3,8.55-.13,6.82-5.38,11.7-12.52,11.7Zm-.16-22.68c-6.56,0-11.2,4.29-11.31,10.53-.12,6.32,4.48,10.83,11.19,10.95,6.71,.11,11.48-4.2,11.6-10.52,.06-2.97-.99-5.7-2.95-7.68-2.05-2.08-4.9-3.21-8.24-3.27-.1,0-.19,0-.29,0Z"/><path class="cls-1" d="M781.56,485.84l-42.63-7.04,2.01-11.95,20.43,3.32-14.7-12.48,.99-5.88,17.4-7.02-19.86-3.34,2.02-12.01,42.61,7.16-1.78,10.57-25.74,10.29,21.02,17.8-1.78,10.57Zm-41.24-8.03l40.26,6.65,1.47-8.72-22.02-18.64,26.97-10.78,1.47-8.72-40.24-6.76-1.62,9.64,22.87,3.84-20.72,8.36-.76,4.54,17.46,14.83-23.51-3.82-1.61,9.59Z"/><path class="cls-1" d="M762.6,545.2l-40.98-13.68,3.87-11.48,19.65,6.51-12.54-14.64,1.9-5.64,18.29-4.18-19.08-6.43,3.89-11.54,40.94,13.8-3.42,10.15-27.04,6.1,17.94,20.89-3.42,10.16Zm-39.45-14.44l38.7,12.92,2.82-8.38-18.8-21.89,28.33-6.39,2.82-8.38-38.66-13.03-3.12,9.27,21.97,7.41-21.78,4.98-1.47,4.36,14.9,17.4-22.61-7.49-3.11,9.21Z"/><path class="cls-1" d="M739.41,592.05l-21.3-10.8c-11.43-5.8-14.63-15.73-8.78-27.26,2.84-5.6,6.8-9.39,11.44-10.96,4.75-1.6,10.05-.95,15.74,1.94l21.3,10.8-5.92,11.67-20.98-10.64c-5.69-2.89-9.55-2.14-11.79,2.29-1.08,2.13-1.25,4.01-.52,5.73,.79,1.87,2.7,3.58,5.67,5.09l20.98,10.64-5.84,11.5Zm-13.36-48.67c-1.69,0-3.32,.26-4.89,.79-4.4,1.48-8.02,4.97-10.76,10.36-5.5,10.85-2.5,20.2,8.25,25.65l20.23,10.26,4.75-9.36-19.91-10.1c-3.22-1.64-5.32-3.55-6.23-5.69-.87-2.04-.68-4.31,.56-6.74,2.57-5.08,7.08-6.03,13.41-2.82l19.91,10.1,4.83-9.53-20.23-10.26c-3.49-1.77-6.81-2.66-9.92-2.66Z"/><path class="cls-1" d="M710.54,635.48l-35.64-24.42,6.03-8.8,27.57-2.52-17.59-12.05,7.26-10.59,35.64,24.42-6.03,8.8-27.57,2.52,17.58,12.05-7.26,10.59Zm-33.97-24.73l33.66,23.07,5.9-8.61-19.34-13.25,30.32-2.77,5.03-7.34-33.66-23.07-5.9,8.61,19.34,13.25-30.32,2.77-5.03,7.34Z"/><path class="cls-1" d="M695.52,653.22l-33.19-27.66,8.38-10.05,33.19,27.66-8.38,10.05Zm-31.5-27.82l31.35,26.13,6.84-8.21-31.35-26.13-6.84,8.21Z"/><path class="cls-1" d="M657.99,684.35c-.76,0-1.52-.04-2.28-.12l-.56-.06,.54-11.37,.62,.06c4.09,.37,7.36-.73,9.99-3.37,4.68-4.71,4.58-11.1-.25-15.91-2.38-2.37-5.16-3.63-8.05-3.65-2.87,0-5.58,1.18-7.86,3.48-2.63,2.64-3.71,5.91-3.33,10.01l.06,.62-11.37,.59-.06-.56c-.77-6.78,1.75-13.31,7.3-18.88,9.69-9.73,23.41-10.14,32.62-.97h0c9.22,9.17,8.87,22.9-.82,32.63-4.92,4.94-10.61,7.51-16.56,7.51Zm-1.59-1.26c6.21,.5,12.18-1.95,17.3-7.09,9.2-9.24,9.54-22.25,.82-30.93h0c-8.72-8.68-21.73-8.28-30.93,.96-5.12,5.15-7.54,11.13-7.01,17.34l9-.47c-.25-4.14,1-7.61,3.72-10.34,2.51-2.53,5.51-3.85,8.72-3.83,3.21,.02,6.28,1.4,8.89,4,5.26,5.23,5.36,12.47,.25,17.61-2.72,2.73-6.19,4-10.33,3.77l-.43,9Z"/><path class="cls-1" d="M634.69,710.37l-41.71-22.2,10.77-8.44,7.63,4.39,13.34-10.46-2.44-8.46,10.58-8.29,11.64,45.77-9.82,7.7Zm-39.52-22.39l39.39,20.97,8.59-6.74-11-43.23-8.5,6.66,2.44,8.46-14.62,11.46-7.63-4.39-8.69,6.81Zm37.94,10.12l-14.6-8.44,9.9-7.76,4.71,16.2Zm-12.47-8.59l10.48,6.06-3.38-11.62-7.1,5.57Z"/><path class="cls-1" d="M586.96,741.93l-5.58-9.03,10.92-6.75-17.13-27.71,11.13-6.88,17.13,27.71,10.97-6.78,5.58,9.03-33.02,20.41Zm-3.93-8.64l4.32,6.99,30.98-19.14-4.32-6.99-10.97,6.78-17.13-27.71-9.09,5.61,17.13,27.71-10.92,6.75Z"/><path class="cls-1" d="M570.09,750.25l-19.69-38.45,11.64-5.96,19.69,38.45-11.64,5.96Zm-18.07-37.93l18.59,36.32,9.51-4.87-18.59-36.32-9.51,4.87Z"/><path class="cls-1" d="M531.15,765.88c-2.93,0-5.77-.52-8.42-1.57-5.6-2.22-9.94-6.64-12.24-12.47-4.76-12.1,1.15-24.57,14.06-29.65,12.91-5.08,25.73,.01,30.49,12.11,2.29,5.82,2.13,12.03-.46,17.46-2.58,5.42-7.41,9.75-13.6,12.18-3.26,1.28-6.59,1.92-9.84,1.92Zm3.29-44.43c-3.05,0-6.25,.6-9.45,1.86-12.26,4.83-17.89,16.64-13.38,28.09,2.17,5.51,6.28,9.7,11.56,11.79,5.3,2.1,11.47,1.97,17.38-.35,5.91-2.33,10.51-6.44,12.96-11.58,2.44-5.13,2.59-11,.42-16.51-3.33-8.46-10.85-13.3-19.49-13.3Zm-1.58,34.23c-1.6,0-3.17-.33-4.64-.99-2.95-1.33-5.22-3.83-6.56-7.24h0c-1.34-3.41-1.39-6.79-.13-9.77,1.21-2.87,3.56-5.12,6.63-6.33,6.44-2.53,13.05,.56,15.73,7.35,2.67,6.79-.06,13.56-6.5,16.1-1.49,.59-3.02,.88-4.52,.88Zm-.13-24.02c-1.35,0-2.74,.26-4.14,.81-2.76,1.09-4.88,3.1-5.96,5.67-1.13,2.69-1.08,5.76,.14,8.87h0c1.22,3.11,3.28,5.39,5.94,6.59,2.54,1.15,5.46,1.18,8.23,.09,5.88-2.32,8.28-8.3,5.82-14.54-1.87-4.76-5.71-7.49-10.03-7.49Z"/><path class="cls-1" d="M469.36,784.26l-10.17-41.99,10.36-2.51,22.18,16.56-5.02-20.72,12.48-3.02,10.17,41.99-10.36,2.51-22.18-16.56,5.02,20.72-12.48,3.02Zm-8.72-41.11l9.61,39.66,10.15-2.46-5.52-22.79,24.4,18.21,8.65-2.1-9.61-39.66-10.15,2.46,5.52,22.79-24.4-18.21-8.65,2.1Z"/><path class="cls-1" d="M457.44,764.43c1.4,12.7-7.32,22.78-20.56,24.24-7.69,.85-14.2-1.27-18.82-5.89l6.76-7.63c2.97,2.87,6.38,4.24,10.38,3.8,6.86-.76,11.1-6.06,10.31-13.21-.79-7.16-6.09-11.4-12.95-10.64-4,.44-7.02,2.53-9.3,5.98l-8.27-5.97c3.5-5.52,9.39-9,17.08-9.86,13.24-1.46,23.95,6.47,25.36,19.17Z"/><path class="cls-1" d="M413.03,769.26c-.21,12.6-10.26,21.67-23.7,21.45-13.44-.22-23.19-9.63-22.98-22.23,.21-12.6,10.26-21.67,23.7-21.45,13.44,.22,23.19,9.63,22.98,22.23Zm-34.68-.57c-.12,7.26,4.78,12.08,11.14,12.19,6.36,.11,11.42-4.55,11.54-11.81,.12-7.26-4.78-12.08-11.14-12.19-6.36-.11-11.42,4.55-11.54,11.81Z"/><path class="cls-1" d="M324.61,740.95l-3.52,21.98,13.62-16.11,5.21,.86,7.73,19.04,3.54-21.37,10.83,1.8-6.87,41.43-9.65-1.6-10.6-26.33-18.17,21.56-9.65-1.6,6.75-41.45,10.77,1.79Z"/><path class="cls-1" d="M271.29,725.51l-6.95,21.15,15.99-13.76,5.01,1.67,4.63,20.02,6.87-20.54,10.41,3.48-13.32,39.83-9.27-3.1-6.31-27.67-21.34,18.42-9.27-3.1,13.21-39.87,10.36,3.46Z"/><path class="cls-1" d="M246.63,735.95l-10.48,20.79-10.61-5.35,10.32-20.47c3.24-6.43,1.86-10.35-2.58-12.59-4.39-2.22-8.37-1-11.61,5.43l-10.32,20.46-10.45-5.27,10.49-20.79c5.65-11.2,15.35-14.17,26.44-8.57s14.46,15.16,8.82,26.36Z"/><path class="cls-1" d="M157.38,710.27l23.67-34.7,8.08,5.51,2.71,28.94,12.61-18.49,9.62,6.56-23.67,34.7-8.08-5.51-2.71-28.94-12.61,18.49-9.62-6.56Z"/><path class="cls-1" d="M148.77,702.95l-9.14-7.59,26.82-32.32,9.14,7.59-26.82,32.32Z"/><path class="cls-1" d="M147.35,674.88c-8.99,9.08-22.32,8.63-31.78-.74-5.5-5.45-7.95-11.84-7.25-18.33l10.18,.46c-.36,4.12,.71,7.63,3.57,10.46,4.9,4.86,11.69,4.82,16.75-.29,5.07-5.11,5.04-11.9,.13-16.76-2.86-2.83-6.38-3.87-10.49-3.47l-.56-10.18c6.49-.75,12.9,1.64,18.4,7.08,9.46,9.37,10.03,22.69,1.04,31.77Z"/><path class="cls-1" d="M106.98,611.45l10.99,13.95,8.45-2.46,7.5,9.52-44.47,11.42-7.24-9.19,21.49-40.6,7.65,9.71-4.37,7.64Zm-4.73,8.15l-7.22,12.56,13.9-4.07-6.68-8.48Z"/><path class="cls-1" d="M71.72,603.35l6.81,10.96-8,4.97-19.85-31.96,8-4.97,6.78,10.91,27.67-17.19,6.27,10.09-27.67,17.19Z"/><path class="cls-1" d="M47.72,581.07l-5.44-10.56,37.34-19.23,5.44,10.56-37.34,19.23Z"/><path class="cls-1" d="M57.18,554.65c-11.71,4.64-23.95-1.15-28.9-13.65-4.95-12.49-.01-25.1,11.7-29.74,11.71-4.64,23.95,1.15,28.9,13.65,4.95,12.49,.01,25.1-11.7,29.74Zm-12.78-32.24c-6.75,2.68-9.32,9.05-6.98,14.96s8.58,8.79,15.33,6.12c6.75-2.68,9.32-9.05,6.98-14.96-2.34-5.91-8.58-8.79-15.33-6.12Z"/><path class="cls-1" d="M7.97,470.07l40.79-9.99,2.33,9.5-17.33,23.33,21.74-5.32,2.77,11.3-40.79,9.99-2.33-9.5,17.33-23.33-21.74,5.32-2.77-11.3Z"/><path class="cls-1" d="M24.36,458.38c-5.27,0-10.18-1.75-14.06-5.04-4.51-3.83-7.41-9.57-8.15-16.14-.88-7.81,1.2-14.49,6.02-19.32l.4-.4,8.54,7.53-.43,.45c-2.85,2.97-4.03,6.21-3.61,9.91,.74,6.6,5.8,10.51,12.57,9.75,6.77-.76,10.83-5.71,10.08-12.31-.42-3.7-2.29-6.59-5.73-8.85l-.52-.34,6.64-9.25,.48,.3c5.77,3.64,9.29,9.69,10.17,17.5,.74,6.58-.8,12.81-4.35,17.55-3.57,4.78-9,7.8-15.29,8.51-.92,.1-1.84,.16-2.74,.16Zm-15.74-39.26c-4.27,4.53-6.09,10.72-5.28,17.94,.71,6.27,3.46,11.73,7.74,15.36,4.29,3.65,9.94,5.28,15.89,4.61,5.95-.67,11.09-3.53,14.46-8.04,3.36-4.5,4.82-10.43,4.12-16.7-.81-7.22-3.97-12.84-9.15-16.31l-5.26,7.31c3.38,2.39,5.32,5.54,5.75,9.37,.81,7.2-3.77,12.8-11.14,13.64-7.38,.83-13.09-3.61-13.9-10.81-.43-3.83,.75-7.33,3.52-10.41l-6.75-5.96Z"/><path class="cls-1" d="M22.46,413.81c-.14,0-.27,0-.41,0-6.26-.1-11.93-2.62-15.97-7.08C2.05,402.27-.1,396.16,0,389.5c.23-13.87,9.81-23.75,22.83-23.57,6.26,.1,11.93,2.62,15.97,7.08,4.03,4.45,6.19,10.57,6.08,17.22-.22,13.73-9.63,23.58-22.42,23.58Zm-.03-46.68c-12.11,0-21.01,9.36-21.22,22.4-.1,6.35,1.94,12.17,5.77,16.4,3.81,4.22,9.18,6.59,15.1,6.69,12.3,.2,21.4-9.22,21.61-22.39,.1-6.35-1.94-12.17-5.77-16.4-3.81-4.22-9.18-6.59-15.1-6.69-.13,0-.26,0-.38,0Zm.08,34.68c-.09,0-.17,0-.26,0-3.66-.06-6.8-1.31-9.08-3.6-2.19-2.21-3.37-5.24-3.32-8.54,.11-6.92,5.49-11.84,12.79-11.73,3.66,.06,6.8,1.31,9.08,3.6,2.19,2.21,3.37,5.24,3.32,8.54-.11,6.84-5.37,11.74-12.54,11.74Zm-.14-22.68c-6.58,0-11.23,4.31-11.33,10.56-.05,2.97,1.01,5.7,2.97,7.68,2.06,2.07,4.91,3.2,8.25,3.25,6.74,.11,11.47-4.23,11.57-10.55,.05-2.97-1.01-5.7-2.97-7.68-2.06-2.07-4.91-3.2-8.25-3.25-.08,0-.17,0-.25,0Z"/><path class="cls-1" d="M44.59,362.85l-42.64-6.96,1.73-10.58,25.69-10.41-21.1-17.7,1.73-10.58,42.66,6.84-1.95,11.96-20.45-3.23,14.75,12.41-.96,5.88-17.37,7.1,19.87,3.25-1.96,12.02Zm-41.26-7.96l40.27,6.58,1.58-9.65-22.88-3.74,20.68-8.45,.74-4.54-17.53-14.75,23.53,3.71,1.57-9.6-40.29-6.46-1.43,8.73,22.11,18.54-26.92,10.91-1.43,8.73Z"/><path class="cls-1" d="M53.96,308.14l-41-13.6,3.37-10.17,27.01-6.23-18.04-20.8,3.37-10.17,41.04,13.48-3.82,11.5-19.68-6.41,12.61,14.58-1.88,5.65-18.27,4.27,19.11,6.34-3.83,11.56Zm-39.48-14.36l38.72,12.85,3.08-9.28-22.01-7.3,21.75-5.08,1.45-4.37-14.98-17.33,22.65,7.38,3.06-9.23-38.76-12.73-2.78,8.39,18.9,21.79-28.3,6.53-2.78,8.39Z"/><path class="cls-1" d="M65.24,250.05c-3.27,0-6.79-.91-10.47-2.75l-21.35-10.71,5.86-11.69,21.02,10.55c5.7,2.86,9.56,2.09,11.78-2.35,1.07-2.14,1.23-4.01,.5-5.73-.8-1.87-2.72-3.57-5.69-5.06l-21.02-10.55,5.78-11.53,21.35,10.71c5.7,2.86,9.37,6.73,10.91,11.5,1.5,4.67,.81,10.1-2.01,15.72-3.93,7.84-9.75,11.9-16.67,11.9Zm-9.93-3.83c10.77,5.4,20.08,2.26,25.53-8.61,2.71-5.41,3.36-10.39,1.94-14.81-1.44-4.46-4.9-8.09-10.31-10.8l-20.27-10.17-4.71,9.39,19.95,10.01c3.23,1.62,5.34,3.53,6.25,5.66,.87,2.04,.7,4.3-.53,6.74-2.55,5.09-7.06,6.06-13.39,2.88l-19.95-10.01-4.79,9.55,20.27,10.17Z"/><path class="cls-1" d="M92.97,214.97l-35.75-24.26,5.99-8.82,27.55-2.64-17.64-11.97,7.21-10.63,35.75,24.26-5.99,8.82-27.56,2.64,17.64,11.97-7.21,10.63Zm-34.08-24.58l33.76,22.91,5.86-8.64-19.4-13.16,30.31-2.91,5-7.36-33.76-22.91-5.86,8.64,19.4,13.17-30.31,2.91-5,7.36Z"/><path class="cls-1" d="M120.26,176.43l-33.31-27.51,8.33-10.09,33.31,27.51-8.33,10.09Zm-31.62-27.67l31.46,25.98,6.8-8.24-31.46-25.98-6.8,8.23Z"/><path class="cls-1" d="M130.9,154.29c-5.54,0-11-2.17-15.44-6.54h0c-9.26-9.13-8.98-22.85,.66-32.63,5.52-5.6,12.02-8.18,18.81-7.47l.56,.06-.49,11.38-.62-.05c-4.11-.35-7.36,.77-9.98,3.42-4.66,4.73-4.53,11.12,.32,15.91,2.39,2.36,5.18,3.61,8.07,3.61h.02c2.85,0,5.56-1.21,7.83-3.51,2.61-2.65,3.69-5.93,3.28-10.02l-.06-.62,11.37-.65,.07,.56c.8,6.78-1.69,13.32-7.21,18.91-5.02,5.09-11.15,7.66-17.18,7.66Zm-14.59-7.4c8.76,8.64,21.77,8.17,30.92-1.11,5.1-5.17,7.49-11.16,6.93-17.37l-8.99,.51c.27,4.13-.96,7.62-3.67,10.36-2.5,2.53-5.5,3.87-8.68,3.87h-.02c-3.21,0-6.29-1.38-8.91-3.96-5.28-5.21-5.42-12.45-.33-17.61,2.71-2.74,6.18-4.03,10.31-3.81l.39-9c-6.21-.47-12.17,2-17.27,7.17-9.15,9.28-9.44,22.29-.67,30.94h0Z"/><path class="cls-1" d="M157.9,134.87l-11.85-45.71,9.79-7.75,41.81,22.01-10.73,8.49-7.65-4.35-13.29,10.52,2.47,8.45-10.54,8.34Zm-10.49-45.26l11.19,43.17,8.47-6.7-2.47-8.45,14.56-11.52,7.65,4.35,8.65-6.85-39.49-20.79-8.56,6.78Zm14.84,20.24l-4.78-16.18,14.64,8.37-9.86,7.8Zm-2.78-13.65l3.43,11.61,7.08-5.6-10.51-6.01Z"/><path class="cls-1" d="M204.28,100.02l-17.26-27.63-10.94,6.83-5.62-9.01,32.92-20.56,5.63,9.01-10.89,6.8,17.26,27.63-11.09,6.93Zm-16.88-29.29l17.26,27.63,9.06-5.66-17.26-27.63,10.89-6.8-4.35-6.97-30.89,19.29,4.35,6.97,10.94-6.83Z"/><path class="cls-1" d="M228.49,85.61l-19.87-38.36,11.62-6.02,19.87,38.36-11.62,6.02Zm-18.26-37.85l18.77,36.23,9.49-4.91-18.77-36.23-9.49,4.91Z"/><path class="cls-1" d="M255.94,71.05c-2.88,0-5.69-.51-8.31-1.53-5.61-2.19-9.98-6.6-12.3-12.41-4.82-12.08,1.03-24.57,13.91-29.72,6.18-2.47,12.67-2.63,18.26-.44,5.61,2.19,9.98,6.6,12.3,12.41,4.82,12.08-1.03,24.57-13.91,29.72-3.29,1.31-6.67,1.97-9.95,1.97Zm3.26-44.43c-3.13,0-6.36,.63-9.5,1.89-12.24,4.89-17.81,16.73-13.24,28.16,2.2,5.5,6.32,9.67,11.62,11.74,5.31,2.07,11.48,1.91,17.38-.44,12.24-4.89,17.81-16.73,13.24-28.16-2.2-5.5-6.32-9.67-11.62-11.74-2.47-.97-5.14-1.45-7.87-1.45Zm-1.54,34.22c-1.58,0-3.14-.32-4.58-.97-2.96-1.32-5.24-3.81-6.6-7.21-2.71-6.78,0-13.56,6.42-16.13,6.42-2.56,13.05,.49,15.76,7.27h0c1.36,3.4,1.42,6.78,.18,9.77-1.19,2.88-3.54,5.14-6.6,6.36-1.5,.6-3.05,.9-4.58,.9Zm-.14-24.03c-1.36,0-2.77,.27-4.18,.83-5.87,2.34-8.24,8.34-5.75,14.57,1.24,3.1,3.3,5.37,5.97,6.56,2.55,1.13,5.47,1.15,8.23,.05,2.76-1.1,4.87-3.13,5.93-5.7,1.12-2.7,1.05-5.76-.19-8.87-1.89-4.73-5.71-7.44-10.02-7.44Z"/><path class="cls-1" d="M291.21,58.58l-10.37-41.94,10.35-2.56,22.26,16.45-5.12-20.69,12.46-3.08,10.37,41.94-10.35,2.56-22.26-16.45,5.12,20.69-12.46,3.08Zm-8.92-41.06l9.79,39.6,10.13-2.51-5.63-22.76,24.48,18.1,8.64-2.14-9.79-39.6-10.13,2.51,5.63,22.76-24.48-18.1-8.64,2.14Z"/></g></g></svg>