<?xml version="1.0" encoding="UTF-8"?><svg id="Calque_2" xmlns="http://www.w3.org/2000/svg" viewBox="0 0 821.09 819.94"><defs><style>.cls-1{fill:#fff;}</style></defs><g id="Calque_1-2"><g><path class="cls-1" d="M351.14,32.35c-1.46-17.24,10.73-30.7,28.54-32.21,9.89-.84,18.44,2.06,24.39,8.14l-7.83,8.56c-4.21-4.09-9.23-5.97-14.95-5.48-10.7,.91-17.67,9.07-16.75,19.85,.91,10.79,9.15,17.66,19.85,16.75,5.72-.48,10.35-3.18,13.81-8l9.16,7.12c-4.83,7.08-12.78,11.37-22.75,12.22-17.73,1.5-32.01-9.71-33.48-26.95Z"/><path class="cls-1" d="M413.84,27.44c1.53-16.99,15.89-28.37,33.94-26.75,17.97,1.62,30.15,15.31,28.62,32.38s-15.97,28.36-33.94,26.75c-18.05-1.62-30.14-15.39-28.62-32.38Zm49.16,4.43c.98-10.86-6.03-18.98-16.24-19.9s-18.55,5.82-19.53,16.68c-.98,10.86,6.03,18.98,16.24,19.9s18.55-5.82,19.53-16.68Z"/><path class="cls-1" d="M548.85,23.03l-15.8,55.19-10.49-3-17.92-41.38-9.59,33.51-12.61-3.61,15.8-55.19,10.56,3.02,17.85,41.36,9.59-33.51,12.62,3.61Z"/><path class="cls-1" d="M543.08,76.21l8.38-7.09c2.85,5.27,8.3,10.59,14.52,13.56,7.1,3.39,11.12,2.4,12.64-.78,4.62-9.69-28.67-17.41-19.49-36.65,4.2-8.81,14.8-12.74,29.53-5.72,6.51,3.11,12.43,7.84,15.79,13.17l-8.04,7.34c-3.5-5.03-7.83-8.73-12.42-10.92-7.1-3.39-11.11-2.03-12.67,1.22-4.55,9.55,28.71,17.33,19.63,36.35-4.13,8.66-14.84,12.63-29.64,5.57-8.21-3.92-15.34-10.32-18.23-16.06Z"/><path class="cls-1" d="M604.93,84.89l18.38-26.38,10.9,7.59-18.09,25.97c-6.23,8.95-4.91,15.37,1.68,19.96,6.66,4.64,13.08,3.61,19.31-5.34l18.09-25.97,10.77,7.5-18.38,26.38c-9.66,13.86-22.94,16-36.33,6.67s-15.99-22.53-6.33-36.39Z"/><path class="cls-1" d="M682.07,102.31l9.56,9.22-32.32,33.53,20.72,19.97-7.51,7.79-30.29-29.19,39.83-41.33Z"/><path class="cls-1" d="M717.17,154.35l-11.53-14.3,8.42-6.8,31.41,38.93-8.43,6.8-11.53-14.3-36.25,29.24-8.34-10.34,36.25-29.24Z"/><path class="cls-1" d="M752.37,183.48l7.17,11.19-48.33,30.96-7.17-11.19,48.33-30.96Z"/><path class="cls-1" d="M793.02,259.77l-51.96,24.4-4.63-9.87,19.39-40.72-31.55,14.81-5.58-11.88,51.96-24.4,4.67,9.95-19.42,40.65,31.55-14.81,5.58,11.88Z"/><path class="cls-1" d="M783.7,325.95l3.09,11.74-22.52,5.93c-6.21-4.9-10.88-12.65-12.97-20.58-4.59-17.45,4-33.44,20.73-37.85,16.73-4.4,32.09,5.29,36.74,22.97,2.57,9.75,1.37,18.72-3.48,25.76l-9.78-6.24c3.22-5.17,3.97-10.37,2.49-16-2.84-10.78-12-16.26-22.54-13.48-10.39,2.73-15.82,12.05-13.02,22.68,.92,3.49,2.41,6.57,5.01,9.37l16.26-4.28Z"/><path class="cls-1" d="M773.56,407.38l-.47-.32c-7.3-4.98-11.62-12.99-12.49-23.18-1.56-18.29,9.99-32.65,27.47-34.14l.05,.6-.05-.6c8.47-.73,16.45,1.82,22.46,7.18,5.97,5.31,9.67,13.09,10.42,21.89,.85,9.97-2.09,18.8-8.3,24.88l-.41,.4-9.44-8.62,.43-.44c3.99-4.12,5.77-8.99,5.3-14.48-.43-5.03-2.57-9.4-6.02-12.32-3.46-2.93-8.14-4.3-13.2-3.87-10.42,.89-17.08,8.79-16.19,19.22,.47,5.51,3.08,10.01,7.76,13.36l.51,.36-7.84,10.1Zm14.62-56.44c-16.79,1.44-27.88,15.25-26.38,32.84,.82,9.6,4.8,17.18,11.51,21.97l6.39-8.23c-4.66-3.53-7.27-8.19-7.76-13.87-.95-11.13,6.15-19.56,17.28-20.51,5.37-.46,10.36,1.01,14.07,4.15,3.7,3.12,5.99,7.79,6.44,13.13,.48,5.65-1.27,10.69-5.21,14.97l7.69,7.03c5.67-5.81,8.34-14.13,7.54-23.51-.73-8.49-4.29-15.98-10.02-21.09-5.76-5.13-13.42-7.57-21.56-6.88h0Z"/><path class="cls-1" d="M790.32,476.33c-.95,0-1.91-.04-2.88-.13-17.48-1.56-28.97-16.1-27.32-34.57,1.65-18.47,15.52-30.75,33.01-29.19h0c17.48,1.56,28.97,16.1,27.32,34.57-.79,8.85-4.55,16.68-10.58,22.03-5.36,4.75-12.21,7.29-19.55,7.29Zm-.14-62.82c-15.43,0-27.37,11.46-28.87,28.23-1.59,17.78,9.44,31.77,26.23,33.27,8.08,.72,15.73-1.72,21.53-6.86,5.8-5.15,9.42-12.69,10.18-21.24,1.59-17.78-9.45-31.77-26.23-33.27h0c-.96-.09-1.91-.13-2.84-.13Zm.46,49.39c-.66,0-1.33-.03-2-.09h0c-10.95-.98-18.2-9.46-17.24-20.17,.46-5.15,2.74-9.67,6.43-12.73,3.74-3.1,8.74-4.55,14.12-4.07,5.37,.48,10.04,2.79,13.17,6.51,3.09,3.67,4.53,8.52,4.07,13.67-.9,10.05-8.56,16.89-18.54,16.89Zm-1.89-1.29c10.26,.92,18.35-5.69,19.24-15.71,.43-4.82-.92-9.37-3.79-12.79-2.92-3.47-7.31-5.63-12.36-6.08-5.05-.45-9.75,.9-13.24,3.8-3.44,2.86-5.57,7.09-6,11.91-.89,10.02,5.9,17.95,16.16,18.87h0Z"/><path class="cls-1" d="M798,548.78l-56.35-16.08,3.24-11.34,40.09-17.4-32.48-9.27,3.93-13.77,56.35,16.08-3.26,11.42-40.07,17.32,32.48,9.27-3.93,13.77Zm-54.87-16.91l54.05,15.43,3.27-11.46-34.55-9.86,42.63-18.43,2.77-9.72-54.05-15.43-3.27,11.46,34.55,9.86-42.65,18.51-2.75,9.64Z"/><path class="cls-1" d="M767.85,604.42l-8.14-8.92,.56-.39c4.81-3.35,8.51-7.57,10.71-12.19,2.86-6,2.52-10.22-.95-11.87-3.53-1.68-7.07,2.79-11.16,7.97-6.06,7.66-13.61,17.2-25.18,11.69-7.66-3.65-13.8-13.81-5.88-30.44,3.92-8.23,10.32-15.5,16.32-18.52l.42-.21,7.88,9.3-.65,.35c-5.41,2.93-10.5,8.39-13.29,14.26-2.9,6.1-2.72,10.3,.51,11.84,3.6,1.71,7.16-2.76,11.28-7.94,6.09-7.64,13.67-17.15,25.35-11.58,10.13,4.83,12.5,16.73,6.02,30.33-3.29,6.91-8.17,12.76-13.38,16.05l-.42,.27Zm-6.34-8.72l6.54,7.16c4.87-3.22,9.41-8.76,12.52-15.28,7.48-15.7,2.09-25.14-5.45-28.73-10.83-5.16-17.77,3.56-23.9,11.25-4.44,5.58-8.28,10.4-12.74,8.27-2.28-1.08-5.44-4.27-1.08-13.44,2.79-5.85,7.79-11.32,13.16-14.44l-6.31-7.45c-5.65,3.04-11.64,9.94-15.36,17.75-6.21,13.03-4.12,24.35,5.31,28.84,10.7,5.1,17.62-3.64,23.72-11.35,4.41-5.58,8.23-10.4,12.62-8.31,1.94,.93,5.98,4.09,1.52,13.47-2.21,4.63-5.85,8.86-10.55,12.26Z"/><path class="cls-1" d="M732.64,666.01l-26.88-18.69c-14-9.74-16.5-23.28-6.85-37.16,9.65-13.88,23.21-16.25,37.22-6.51l26.88,18.69-8.27,11.89-26.48-18.41c-8.18-5.69-14.44-5.18-19.12,1.55-4.68,6.74-2.98,12.78,5.2,18.47l26.48,18.41-8.17,11.76Zm-13.08-67.02c-7.42,0-14.2,3.99-19.67,11.86-9.21,13.25-6.82,26.18,6.55,35.49l25.9,18.01,6.81-9.79-25.49-17.73c-8.72-6.07-10.58-12.84-5.5-20.14,5.07-7.29,12.07-7.92,20.79-1.85l25.49,17.73,6.9-9.92-25.9-18.01c-5.43-3.78-10.8-5.65-15.87-5.65Z"/><path class="cls-1" d="M709.23,691.72l-33.56-32.29-19.96,20.74-8.66-8.34,30-31.17,42.22,40.63-10.04,10.44Zm-33.59-33.99l33.56,32.29,8.38-8.71-40.49-38.97-28.33,29.44,6.93,6.67,19.96-20.74Z"/><path class="cls-1" d="M648.49,745.59l-7.56-9.35,14.29-11.54-29.27-36.23,11.27-9.1,29.27,36.23,14.29-11.54,7.56,9.35-39.84,32.19Zm-5.87-9.17l6.05,7.49,37.97-30.68-6.05-7.49-14.29,11.54-29.27-36.23-9.4,7.59,29.27,36.23-14.29,11.54Z"/><path class="cls-1" d="M625.94,759.66l-31.66-49.32,12.19-7.82,31.66,49.32-12.19,7.82Zm-30-48.96l30.36,47.3,10.17-6.53-30.36-47.3-10.17,6.53Z"/><path class="cls-1" d="M560.75,793.15l-24.94-53.03,10.67-5.02,.26,.12,39.21,18.64-14.37-30.56,12.96-6.09,24.94,53.03-10.74,5.05-39.39-18.79,14.37,30.56-12.96,6.09Zm-23.34-52.45l23.92,50.86,10.79-5.07-15.29-32.51,41.91,19.99,9.14-4.3-23.92-50.86-10.79,5.07,15.29,32.51-41.99-19.96-9.07,4.26Z"/><path class="cls-1" d="M502.92,810.09c-6.07,0-11.61-1.65-16.35-4.9l-.48-.33,6.87-10.78,.5,.31c4.95,3.07,10.03,3.86,15.53,2.4,10.51-2.78,15.75-11.55,13.04-21.82-1.29-4.88-4.17-8.81-8.11-11.08-3.96-2.28-8.87-2.81-13.85-1.5-3.56,.94-6.38,2.42-8.84,4.63l4.35,16.48-12.89,3.41-6.17-23.39,.18-.23c4.78-6.07,12.59-11,20.89-13.19,17.89-4.72,34.12,4.16,38.6,21.13,4.48,16.97-5.35,32.73-23.37,37.49-3.42,.9-6.74,1.35-9.91,1.35Zm-15.19-5.56c6.83,4.48,15.39,5.53,24.79,3.05,17.35-4.58,26.82-19.73,22.52-36.03-4.3-16.29-19.92-24.82-37.13-20.28-7.96,2.1-15.43,6.78-20.07,12.54l5.71,21.65,10.57-2.79-4.23-16.02,.26-.25c2.67-2.49,5.73-4.13,9.62-5.16,5.28-1.39,10.52-.82,14.75,1.62,4.22,2.43,7.3,6.63,8.67,11.82,2.85,10.8-2.86,20.38-13.89,23.29-5.66,1.49-10.89,.76-15.97-2.24l-5.61,8.8Z"/><path class="cls-1" d="M470.44,787.54c1.49,17.24-10.68,30.72-28.49,32.25-9.89,.85-18.45-2.03-24.4-8.1l7.82-8.58c4.22,4.08,9.24,5.95,14.96,5.46,10.7-.92,17.65-9.09,16.72-19.88s-9.18-17.64-19.88-16.72c-5.72,.49-10.34,3.2-13.79,8.02l-9.17-7.11c4.82-7.08,12.76-11.39,22.73-12.25,17.73-1.53,32.03,9.66,33.51,26.9Z"/><path class="cls-1" d="M407.75,792.54c-1.5,16.99-15.85,28.4-33.9,26.8-17.97-1.59-30.18-15.27-28.67-32.34s15.93-28.39,33.9-26.8c18.05,1.6,30.17,15.35,28.67,32.34Zm-49.17-4.35c-.96,10.86,6.06,18.98,16.27,19.88,10.21,.9,18.55-5.85,19.51-16.71s-6.06-18.98-16.27-19.88c-10.21-.9-18.55,5.85-19.51,16.71Z"/><path class="cls-1" d="M272.78,797.15l15.71-55.21,10.49,2.99,17.99,41.35,9.54-33.52,12.62,3.59-15.71,55.21-10.57-3.01-17.91-41.33-9.54,33.52-12.62-3.59Z"/><path class="cls-1" d="M278.48,743.97l-8.37,7.1c-2.86-5.26-8.32-10.58-14.54-13.54-7.11-3.38-11.13-2.38-12.64,.8-4.61,9.7,28.7,17.36,19.55,36.62-4.19,8.81-14.78,12.77-29.52,5.76-6.52-3.1-12.44-7.82-15.82-13.15l8.03-7.35c3.51,5.03,7.84,8.72,12.43,10.9,7.11,3.38,11.12,2.02,12.67-1.24,4.54-9.55-28.74-17.29-19.69-36.33,4.12-8.67,14.82-12.66,29.64-5.62,8.22,3.91,15.36,10.29,18.26,16.03Z"/><path class="cls-1" d="M216.63,735.38l-18.33,26.4-10.91-7.58,18.05-26c6.22-8.96,4.89-15.37-1.71-19.96-6.67-4.63-13.08-3.59-19.3,5.37l-18.05,26-10.78-7.48,18.33-26.4c9.63-13.87,22.91-16.03,36.32-6.73,13.4,9.31,16.02,22.5,6.38,36.38Z"/><path class="cls-1" d="M139.45,718.09l-9.58-9.2,32.27-33.58-20.75-19.94,7.5-7.8,30.33,29.14-39.77,41.39Z"/><path class="cls-1" d="M104.28,666.09l11.56,14.28-8.41,6.81-31.47-38.88,8.41-6.81,11.56,14.28,36.2-29.3,8.36,10.33-36.2,29.3Z"/><path class="cls-1" d="M69.01,636.99l-7.18-11.18,48.29-31.04,7.18,11.18-48.29,31.04Z"/><path class="cls-1" d="M28.28,560.79l51.92-24.47,4.65,9.87-19.32,40.74,31.52-14.86,5.59,11.87-51.92,24.47-4.68-9.94,19.36-40.67-31.52,14.86-5.59-11.87Z"/><path class="cls-1" d="M37.49,494.61l-3.11-11.73,22.51-5.96c6.21,4.89,10.9,12.64,13,20.56,4.62,17.44-3.95,33.45-20.68,37.88-16.73,4.43-32.1-5.24-36.78-22.92-2.58-9.75-1.4-18.72,3.44-25.77l9.79,6.23c-3.21,5.18-3.95,10.38-2.46,16.01,2.86,10.78,12.02,16.24,22.56,13.45,10.38-2.75,15.8-12.08,12.99-22.7-.92-3.49-2.42-6.57-5.02-9.36l-16.25,4.3Z"/><path class="cls-1" d="M30.16,470.93c-16.09,0-28.5-11.84-30.01-29.14-.87-9.97,2.07-18.8,8.26-24.89l.41-.4,9.46,8.61-.43,.44c-3.98,4.12-5.76,9-5.28,14.49,.91,10.42,8.81,17.06,19.24,16.16,5.05-.44,9.43-2.6,12.34-6.07,2.9-3.47,4.26-8.14,3.82-13.17-.48-5.51-3.1-10.01-7.78-13.35l-.51-.36,7.83-10.12,.47,.32c7.31,4.97,11.64,12.98,12.53,23.16,1.59,18.29-9.94,32.67-27.42,34.19h0c-.98,.09-1.96,.13-2.92,.13Zm-21.31-52.78c-5.66,5.82-8.32,14.15-7.5,23.53,1.54,17.64,14.82,29.39,31.63,27.93h0c16.79-1.46,27.86-15.29,26.33-32.89-.83-9.6-4.82-17.18-11.54-21.96l-6.38,8.24c4.67,3.52,7.29,8.18,7.78,13.86,.47,5.34-.99,10.33-4.1,14.04-3.12,3.72-7.79,6.03-13.16,6.5-11.12,.97-19.57-6.13-20.54-17.25-.49-5.65,1.25-10.69,5.19-14.98l-7.71-7.02Z"/><path class="cls-1" d="M30.84,408.24c-.96,0-1.93-.04-2.92-.13h0c-17.48-1.54-28.99-16.06-27.37-34.53,1.62-18.47,15.47-30.76,32.96-29.23,17.48,1.53,28.99,16.06,27.37,34.53-1.53,17.43-13.96,29.36-30.05,29.36Zm-2.81-1.32c16.79,1.48,30.1-10.36,31.67-28.14,1.56-17.78-9.49-31.76-26.28-33.23-16.79-1.48-30.1,10.36-31.66,28.14-1.56,17.78,9.49,31.75,26.28,33.23h0Zm3.04-12.11c-.65,0-1.3-.03-1.97-.09-10.95-.96-18.21-9.43-17.27-20.14,.94-10.71,9.57-17.8,20.52-16.83h0c10.95,.96,18.21,9.43,17.27,20.14-.88,10.06-8.55,16.91-18.55,16.91Zm-.68-35.94c-9.37,0-16.54,6.41-17.37,15.82-.88,10.02,5.93,17.94,16.18,18.84,10.25,.9,18.34-5.72,19.22-15.74,.88-10.02-5.92-17.94-16.18-18.84-.62-.05-1.24-.08-1.85-.08Z"/><path class="cls-1" d="M64.53,339.59l-56.38-16,3.24-11.42,40.04-17.38-32.49-9.22,3.91-13.78,56.38,16-3.22,11.34-.26,.11-39.8,17.35,32.49,9.22-3.91,13.78Zm-54.89-16.82l54.07,15.34,3.25-11.47-34.56-9.81,42.62-18.57,2.74-9.64-54.07-15.34-3.25,11.47,34.57,9.81-42.6,18.5-2.76,9.72Z"/><path class="cls-1" d="M76.3,278.94l-7.89-9.29,.65-.35c5.4-2.94,10.48-8.41,13.27-14.28,2.89-6.1,2.71-10.3-.53-11.84-3.6-1.71-7.15,2.77-11.27,7.95-6.07,7.65-13.64,17.17-25.33,11.62-4.75-2.25-7.91-6.13-9.15-11.2-1.33-5.46-.26-12.07,3.08-19.12,3.28-6.91,8.14-12.77,13.35-16.07l.42-.27,8.16,8.9-.56,.39c-4.8,3.36-8.5,7.58-10.69,12.2-2.85,6-2.5,10.22,.97,11.86,3.53,1.67,7.06-2.8,11.15-7.98,6.05-7.67,13.58-17.22,25.16-11.73,4.62,2.19,7.83,6.17,9.03,11.2,1.32,5.51,.24,12.16-3.11,19.23-3.9,8.23-10.3,15.51-16.29,18.54l-.42,.21Zm-6.03-8.94l6.32,7.44c5.65-3.04,11.62-9.96,15.33-17.77,3.23-6.81,4.28-13.19,3.03-18.43-1.13-4.74-4.03-8.33-8.38-10.4-10.72-5.08-17.61,3.67-23.7,11.39-4.41,5.58-8.21,10.41-12.6,8.32-1.95-.92-5.99-4.08-1.54-13.46,2.2-4.63,5.83-8.87,10.53-12.28l-6.55-7.15c-4.86,3.23-9.4,8.78-12.49,15.3-3.22,6.79-4.26,13.13-3,18.32,1.14,4.71,4.08,8.3,8.49,10.4,10.83,5.14,17.76-3.59,23.88-11.28,4.43-5.58,8.27-10.4,12.72-8.29,2.28,1.08,5.45,4.26,1.1,13.44-2.78,5.86-7.77,11.33-13.14,14.46Z"/><path class="cls-1" d="M101.24,222.71c-5.3,0-10.91-1.95-16.59-5.89l-26.91-18.66,8.25-11.9,26.51,18.38c4.22,2.92,7.99,4.22,11.21,3.84,3-.35,5.66-2.17,7.91-5.42,2.3-3.32,3.06-6.37,2.32-9.33-.78-3.13-3.32-6.2-7.55-9.13l-26.51-18.38,8.16-11.77,26.91,18.66c14.02,9.72,16.54,23.26,6.91,37.15-5.73,8.26-12.84,12.45-20.62,12.45Zm-15.91-6.88c13.4,9.29,26.35,7,35.54-6.26,9.2-13.26,6.79-26.2-6.61-35.48l-25.93-17.97-6.79,9.8,25.52,17.69c4.47,3.1,7.17,6.41,8.03,9.82,.82,3.27-.02,6.74-2.49,10.31-2.46,3.54-5.4,5.54-8.76,5.93-3.52,.41-7.57-.95-12.04-4.04l-25.52-17.69-6.89,9.93,25.93,17.97Z"/><path class="cls-1" d="M143.67,179.72l-42.29-40.57,10.03-10.45,33.61,32.25,19.93-20.77,8.68,8.33-29.96,31.22Zm-40.59-40.61l40.56,38.91,28.3-29.49-6.95-6.66-19.93,20.77-33.61-32.25-8.37,8.72Z"/><path class="cls-1" d="M183.46,140.94l-29.32-36.18-14.27,11.56-7.57-9.34,39.79-32.24,7.57,9.34-14.27,11.56,29.32,36.19-11.25,9.12Zm-29.14-37.87l29.32,36.18,9.39-7.61-29.32-36.19,14.27-11.56-6.06-7.48-37.93,30.73,6.06,7.48,14.27-11.56Z"/><path class="cls-1" d="M214.17,117.74l-31.72-49.28,12.18-7.84,31.72,49.28-12.18,7.84Zm-30.06-48.92l30.42,47.26,10.16-6.54-30.42-47.26-10.16,6.54Z"/><path class="cls-1" d="M236.09,103.02l-.26-.54-24.76-52.45,10.74-5.07,39.42,18.74-14.42-30.54,12.95-6.11,.26,.54,24.76,52.45-10.66,5.03-.26-.12-39.24-18.58,14.42,30.54-12.95,6.11Zm-23.42-52.42l23.99,50.83,10.78-5.09-15.34-32.49,42.02,19.9,9.06-4.28-23.99-50.83-10.78,5.09,15.34,32.49-41.94-19.94-9.14,4.31Z"/><path class="cls-1" d="M313.47,71.26c-13.88,0-25.45-8.46-29.14-22.35-4.51-16.96,5.3-32.74,23.32-37.53,9.97-2.65,19.05-1.44,26.26,3.5l.48,.33-6.85,10.79-.5-.31c-4.95-3.06-10.03-3.84-15.54-2.38-5.13,1.36-9.09,4.18-11.45,8.14-2.35,3.95-2.89,8.69-1.56,13.71,2.69,10.11,11.72,15.27,21.97,12.55,3.56-.95,6.38-2.43,8.84-4.65l-4.38-16.48,12.89-3.42,6.21,23.38-.18,.24c-4.77,6.07-12.57,11.02-20.87,13.22-3.24,.86-6.42,1.27-9.5,1.27Zm4.13-60.04c-3.08,0-6.31,.44-9.64,1.33-17.34,4.61-26.79,19.77-22.46,36.06,4.33,16.29,19.96,24.79,37.16,20.22,7.95-2.11,15.42-6.8,20.05-12.57l-5.75-21.64-10.57,2.81,4.25,16.01-.26,.25c-2.67,2.5-5.72,4.14-9.61,5.17-10.93,2.9-20.57-2.61-23.44-13.4-1.42-5.33-.83-10.39,1.69-14.63,2.52-4.23,6.73-7.24,12.17-8.68,5.65-1.5,10.88-.78,15.97,2.21l5.59-8.81c-4.41-2.88-9.54-4.34-15.15-4.34Z"/></g></g></svg>