<?xml version="1.0" encoding="UTF-8"?><svg id="Calque_2" xmlns="http://www.w3.org/2000/svg" viewBox="0 0 327.07 327.04"><defs><style>.cls-1{fill:#fff;}</style></defs><g id="Calque_1-2"><path class="cls-1" d="M270.66,92.33c0,19.81-16.09,35.91-35.91,35.91s-35.91-16.09-35.91-35.91,16.09-35.91,35.91-35.91,35.91,16.09,35.91,35.91Zm-35.91,25.65c14.17,0,25.65-11.48,25.65-25.65s-11.48-25.65-25.65-25.65-25.65,11.48-25.65,25.65,11.48,25.65,25.65,25.65ZM105.56,253.13l-32.51-32.51c-5.9-5.9-7.63-14.75-4.3-22.38,1.67-3.85,3.72-8.46,6.03-13.59H15.41c-11.44,0-18.88-12.05-13.76-22.25l30.24-61.04c6.08-12.18,18.51-19.3,32.14-19.3h62.96c1.6-2.56,3.14-4.94,4.68-7.25C184.17-2.61,262.39-5.22,309.07,3.38c7.5,1.37,13.27,7.15,14.62,14.61,8.59,46.7,6.03,124.92-71.43,177.44-2.31,1.54-5.26,3.08-7.25,4.68v62.96c0,13.59-7.69,26.03-19.88,32.12l-60.46,30.26c-10.19,5.13-22.83-2.89-22.83-13.79v-60.46c-5.07,2.44-10.07,4.55-14.75,6.35-7.05,3.14-15.77,1.41-21.54-4.42h0Zm-25.26-39.75l32.51,32.51c2.95,2.89,7.18,3.72,10.9,2.18,27.12-11.41,90.02-38.92,122.78-61.17,72.64-49.24,75.34-122.33,66.55-167.06,0-3.26-2.56-5.77-5.83-6.37-44.69-8.23-117.78-5.55-167.02,67.12-22.7,32.64-50.2,94.76-62,121.76-1.67,3.72-.83,8.08,2.12,11.03h0ZM15.41,174.4h63.99c11.22-24.56,26.67-56.94,41.36-82.07h-56.74c-9.74,0-18.62,5.51-22.96,14.17l-30.24,60.46c-1.71,3.4,.78,7.44,4.59,7.44h0Zm136.7,137.27c0,3.85,4.62,6.28,8.01,4.62l60.46-30.26c8.66-4.36,14.17-13.21,14.17-22.95v-56.81c-25.07,14.43-57.38,29.56-82.65,40.46v64.95Z"/></g></svg>