<?xml version="1.0" encoding="UTF-8"?><svg id="Calque_2" xmlns="http://www.w3.org/2000/svg" viewBox="0 0 802.96 801.72"><defs><style>.cls-1{fill:#fff;}</style></defs><g id="Calque_1-2"><g><path class="cls-1" d="M342.84,48.18l3.34-10.34c4.49,2.33,10.64,3.58,16.12,3,5.54-.59,7.54-2.38,7.3-4.68-.8-7.5-27.12,.84-29-16.74-.9-8.45,5.26-16.08,19.33-17.58,6.15-.66,12.66,.09,17.61,2.29l-3.07,10.38c-4.79-1.95-9.38-2.69-13.51-2.25-5.61,.6-7.44,2.71-7.19,5.07,.77,7.23,27.04-1.03,28.89,16.41,.88,8.25-5.27,16.02-19.33,17.51-7.78,.83-15.71-.45-20.5-3.08Z"/><path class="cls-1" d="M390.05,23.72c.56-14.27,12.18-24.29,27.4-23.69,15.22,.6,26.02,11.5,25.46,25.77-.56,14.27-12.18,24.29-27.4,23.69-15.22-.6-26.02-11.5-25.46-25.77Zm39.27,1.54c.32-8.22-5.11-13.81-12.31-14.09-7.2-.28-13.05,4.86-13.38,13.08s5.11,13.81,12.31,14.09c7.2,.28,13.05-4.86,13.38-13.08Z"/><path class="cls-1" d="M452.2,27.15c2.79-14.21,15.65-22.15,30.47-19.24,8.61,1.69,14.93,6.19,18.35,12.76l-9.9,5.95c-2.24-4.11-5.46-6.76-9.93-7.64-7.67-1.51-14.06,2.78-15.64,10.79-1.58,8.01,2.71,14.4,10.39,15.9,4.47,.88,8.46-.35,12.09-3.31l6.91,9.26c-5.65,4.78-13.21,6.55-21.82,4.86-14.81-2.91-23.71-15.13-20.91-29.34Z"/><path class="cls-1" d="M514.65,16.84l12.85,4.02-14.22,45.43-12.85-4.02,14.22-45.43Z"/><path class="cls-1" d="M556.88,73.84l-18.41-8.15-7.16,6.94-12.56-5.56,38.48-35.02,12.12,5.37v52.06s-12.8-5.67-12.8-5.67l.32-9.97Zm.41-10.67l.57-16.41-11.76,11.45,11.19,4.95Z"/><path class="cls-1" d="M598.54,52.1l11.44,7.09-19.45,31.38,19.3,11.97-5.62,9.07-30.74-19.06,25.08-40.45Z"/><path class="cls-1" d="M621.79,95.31c3.42-4.49,9.4-5.15,13.72-1.85s5.33,9.28,1.9,13.77c-3.46,4.54-9.54,5.22-13.86,1.92s-5.23-9.29-1.77-13.83Z"/><path class="cls-1" d="M661.54,162.25l17.74-17.94-23.17,5.87-4.23-4.23,5.43-22.65-17.35,17.36-8.8-8.8,33.65-33.67,7.84,7.83-7.59,31.25,30.96-7.9,7.84,7.83-33.55,33.76-8.75-8.75Z"/><path class="cls-1" d="M707.43,204.38l-8.43,6.1-22.42-30.95,38.55-27.93,21.91,30.23-8.42,6.1-14.09-19.44-6.5,4.71,12.41,17.13-8.15,5.91-12.41-17.13-7.05,5.11,14.6,20.16Z"/><path class="cls-1" d="M745.97,195.72l10.38,19.97c7.28,14,4.12,27.83-8.85,34.57s-26.1,1.39-33.38-12.61l-10.38-19.97,42.23-21.96Zm-22.57,36.49c3.73,7.18,10.53,9.78,17.83,5.98,7.3-3.8,9.07-10.85,5.34-18.03l-3.92-7.54-23.17,12.05,3.92,7.54Z"/><path class="cls-1" d="M773.38,252.63l4.77,12.59-44.51,16.88-4.77-12.59,44.51-16.88Z"/><path class="cls-1" d="M754.63,320.99l-4.96-19.51-9.89-1.34-3.39-13.31,51.31,8.63,3.27,12.85-40.93,32.17-3.46-13.58,8.04-5.91Zm8.65-6.27l13.25-9.69-16.27-2.17,3.02,11.86Z"/><path class="cls-1" d="M767.1,382.31c-7.01,0-15.06-5.12-16.66-19.93-.83-7.69,.4-15.88,3.13-20.86l.24-.43,11.49,3.7-.33,.63c-2.36,4.56-3.48,10.61-2.92,15.78,.35,3.24,1.32,7.06,4.02,6.76,2.49-.27,2.96-4.45,3.51-9.3,.88-7.82,2.1-18.52,13.21-19.72,9.69-1.04,16.85,6.75,18.26,19.84,.7,6.49-.15,13.03-2.33,17.92l-.21,.48-11.52-3.39,.25-.61c1.9-4.68,2.64-9.12,2.2-13.22-.34-3.21-1.38-6.97-4.42-6.65-2.35,.25-2.79,4.36-3.3,9.11-.84,7.85-1.99,18.61-13.08,19.8-.5,.05-1.02,.08-1.54,.08Zm-12.7-39.78c-2.46,4.81-3.54,12.47-2.76,19.71,1.33,12.37,7.95,19.74,16.87,18.79,10.13-1.09,11.18-10.87,12.02-18.73,.56-5.27,1.05-9.82,4.37-10.18,1.81-.19,4.97,.55,5.74,7.72,.44,4.11-.24,8.54-2.04,13.18l9.24,2.72c1.94-4.65,2.68-10.75,2.02-16.83-1.35-12.56-7.84-19.76-16.94-18.78-10.15,1.09-11.26,10.83-12.14,18.66-.61,5.36-1.13,9.99-4.57,10.36-2.03,.21-4.61-.96-5.34-7.83-.55-5.16,.49-11.15,2.74-15.83l-9.2-2.97Z"/><path class="cls-1" d="M777.64,442.43c-.35,0-.71,0-1.06-.02-7.07-.27-13.41-3.25-17.86-8.39-4.44-5.13-6.73-12.09-6.44-19.6,.29-7.52,3.09-14.29,7.91-19.06,4.83-4.79,11.38-7.28,18.45-7.01,7.07,.27,13.41,3.25,17.86,8.39,4.44,5.13,6.73,12.09,6.44,19.61-.58,15.28-11.15,26.09-25.29,26.09Zm-.04-52.9c-6.35,0-12.21,2.35-16.57,6.68-4.6,4.56-7.28,11.04-7.56,18.25-.27,7.21,1.91,13.88,6.15,18.77,4.23,4.89,10.27,7.72,17,7.97,13.98,.53,24.55-9.95,25.11-24.92,.27-7.21-1.91-13.88-6.15-18.77-4.23-4.89-10.27-7.72-17-7.97h0c-.33-.01-.66-.02-.98-.02Zm.2,39.31c-.23,0-.47,0-.71-.01-4.12-.16-7.63-1.64-10.15-4.28-2.42-2.54-3.67-5.99-3.53-9.7s1.65-7.05,4.25-9.4c2.71-2.45,6.32-3.65,10.44-3.5,4.12,.16,7.63,1.64,10.15,4.28,2.42,2.54,3.67,5.99,3.53,9.7s-1.65,7.05-4.26,9.4c-2.55,2.31-5.91,3.51-9.74,3.51Zm-.39-25.71c-3.53,0-6.61,1.1-8.93,3.2-2.36,2.13-3.73,5.17-3.86,8.56-.13,3.39,1.01,6.52,3.2,8.83,2.29,2.41,5.52,3.76,9.32,3.91h0c3.81,.14,7.12-.96,9.59-3.19,2.36-2.13,3.73-5.17,3.86-8.56,.13-3.39-1.01-6.52-3.2-8.83-2.29-2.41-5.52-3.76-9.33-3.91-.22,0-.44-.01-.66-.01Z"/><path class="cls-1" d="M781.55,500.76l-6.58-10.92,.55-.3c4.11-2.25,6.51-5.36,7.33-9.53,1.45-7.43-2.7-13.43-10.33-14.92-3.76-.73-7.19-.17-9.94,1.65-2.73,1.8-4.54,4.66-5.25,8.28-.82,4.17,.23,7.96,3.19,11.59l.4,.48-10.21,7.63-.37-.43c-4.98-5.88-6.72-13.6-5.01-22.32,1.44-7.34,5.22-13.54,10.66-17.44,5.48-3.93,12.36-5.35,19.37-3.97h0c7.02,1.37,12.86,5.27,16.44,10.98,3.56,5.67,4.73,12.83,3.29,20.17-1.71,8.72-6.22,15.21-13.05,18.78l-.5,.26Zm-4.91-10.47l5.35,8.88c6.22-3.45,10.34-9.55,11.93-17.68,1.38-7.04,.27-13.9-3.13-19.3-3.41-5.42-8.97-9.13-15.66-10.44-6.69-1.31-13.24,.03-18.44,3.77-5.19,3.73-8.8,9.66-10.18,16.7-1.59,8.13-.07,15.34,4.39,20.88l8.3-6.21c-2.86-3.74-3.89-7.8-3.05-12.09,.77-3.94,2.77-7.07,5.77-9.05,3.02-1.99,6.76-2.62,10.83-1.82,8.21,1.61,12.84,8.32,11.27,16.33-.84,4.29-3.32,7.66-7.38,10.04Z"/><path class="cls-1" d="M782.02,527.2l-46.59-14.52,4.36-14,46.59,14.52-4.36,14Zm-45.09-15.31l44.3,13.81,3.65-11.71-44.3-13.81-3.65,11.71Z"/><path class="cls-1" d="M712.14,568.96l6.19-14.03,9.97,.31,7.8-17.67-6.95-7.16,6.08-13.78,35.95,39.41-5.67,12.85-53.37,.07Zm6.96-12.8l-5.12,11.6,50.74-.07,5.04-11.42-34.18-37.47-5.01,11.35,6.95,7.16-8.45,19.15-9.97-.31Zm38.14,1.3l-18.78-.63,5.66-12.82,13.13,13.45Zm-16.97-1.77l14.03,.47-9.8-10.04-4.22,9.57Z"/><path class="cls-1" d="M743.58,609.77l-31.4-19.42-11.95,19.32-10.1-6.25,19.66-31.79,41.5,25.67-7.71,12.47Zm-31.79-21.07l31.4,19.42,6.45-10.43-39.46-24.41-18.4,29.75,8.06,4.98,11.95-19.32Z"/><path class="cls-1" d="M701.32,639.07c-2.19,0-4.39-.7-6.3-2.15-4.7-3.57-5.6-10.03-2.05-14.7,3.53-4.64,9.97-5.47,14.67-1.9h0c2.28,1.74,3.73,4.19,4.08,6.92,.35,2.69-.4,5.4-2.1,7.64-2.09,2.75-5.17,4.19-8.3,4.19Zm-.17-19.8c-2.73,0-5.38,1.26-7.22,3.68-3.14,4.13-2.34,9.85,1.82,13.02,4.1,3.12,9.78,2.33,12.92-1.81,1.51-1.99,2.17-4.39,1.87-6.76-.31-2.4-1.59-4.58-3.62-6.12-1.78-1.35-3.79-2.01-5.77-2.01Z"/><path class="cls-1" d="M665.42,703.78l-34.66-34.36,9.59-9.61,16.85,16.62-5.45-21.41,4.7-4.72,20.92,4.99-16.3-16.26,9.63-9.66,34.56,34.46-8.49,8.51-30.63-7.4,7.77,30.32-8.49,8.52Zm-32.96-34.37l32.95,32.67,7.16-7.18-8.09-31.59,31.91,7.71,7.17-7.19-32.86-32.77-7.94,7.96,18.46,18.41-24.4-5.82-3.75,3.76,6.35,24.93-19.07-18.81-7.89,7.92Z"/><path class="cls-1" d="M620.75,736.97l-6.82-9.39,19.42-14.11-4.01-5.52-17.11,12.43-6.62-9.11,17.11-12.43-4.41-6.07-20.14,14.63-6.82-9.39,31.89-23.16,28.68,39.49-31.18,22.64Zm-5.14-9.12l5.41,7.45,29.24-21.23-27.27-37.54-29.95,21.75,5.41,7.45,20.14-14.63,5.82,8.01-17.11,12.43,5.21,7.17,17.11-12.43,5.42,7.46-19.42,14.11Z"/><path class="cls-1" d="M572.68,759.91c-8.76,0-16.35-4.48-20.76-12.93-6.75-12.94-1.6-26.69,12.82-34.21l20.49-10.69,22.57,43.27-20.49,10.69c-5,2.61-9.98,3.88-14.63,3.88Zm12.04-56.21l-19.42,10.13c-14,7.3-18.83,20.09-12.31,32.59,6.52,12.49,19.77,15.85,33.77,8.55l19.42-10.13-21.46-41.14Zm-9.27,44.51c-4.75,0-8.91-2.61-11.47-7.53-3.84-7.35-1.4-14.67,6.21-18.64l8.07-4.21,12.63,24.21-8.07,4.21c-2.52,1.31-5.02,1.95-7.37,1.95Zm2.3-28.76l-7,3.65c-7.07,3.69-9.26,10.21-5.7,17.02s10.15,8.75,17.23,5.06l7-3.65-11.52-22.09Z"/><path class="cls-1" d="M537.21,778.12l-17.36-45.61,13.71-5.21,17.36,45.61-13.7,5.22Zm-15.81-44.91l16.5,43.37,11.46-4.36-16.5-43.37-11.46,4.36Z"/><path class="cls-1" d="M494.21,790.9l-.24-.31-32.78-41.63,14.86-3.8,5.91,8.04,18.72-4.78,1.33-9.89,14.59-3.73-8.79,52.61-13.61,3.48Zm-30.93-41.23l31.39,39.87,12.09-3.09,8.36-50.03-12.03,3.07-1.33,9.89-20.29,5.18-5.91-8.04-12.29,3.14Zm34.82,27.66l-11.11-15.17,13.58-3.47-2.47,18.63Zm-9.09-14.44l8.29,11.32,1.85-13.91-10.14,2.59Z"/><path class="cls-1" d="M460.92,753.39l-3.32,10.35c-4.49-2.32-10.65-3.56-16.12-2.97-5.54,.6-7.54,2.39-7.29,4.69,.82,7.5,27.12-.89,29.03,16.68,.92,8.45-5.23,16.09-19.29,17.62-6.15,.67-12.66-.06-17.62-2.26l3.04-10.38c4.79,1.94,9.39,2.67,13.51,2.23,5.61-.61,7.43-2.72,7.18-5.09-.79-7.23-27.03,1.09-28.93-16.35-.9-8.25,5.24-16.03,19.3-17.55,7.77-.84,15.71,.42,20.51,3.04Z"/><path class="cls-1" d="M413.78,777.94c-.53,14.27-12.13,24.32-27.35,23.75-15.22-.56-26.04-11.44-25.52-25.71,.53-14.27,12.13-24.32,27.35-23.75,15.22,.56,26.04,11.44,25.51,25.71Zm-39.27-1.46c-.3,8.22,5.14,13.8,12.34,14.06,7.2,.27,13.04-4.89,13.35-13.11s-5.14-13.8-12.34-14.07c-7.2-.27-13.04,4.89-13.35,13.11Z"/><path class="cls-1" d="M351.63,774.65c-2.77,14.22-15.61,22.18-30.43,19.3-8.61-1.67-14.94-6.16-18.38-12.72l9.89-5.97c2.25,4.11,5.48,6.75,9.95,7.62,7.68,1.49,14.06-2.81,15.61-10.82s-2.74-14.39-10.42-15.88c-4.47-.87-8.45,.36-12.08,3.33l-6.93-9.25c5.64-4.79,13.2-6.58,21.81-4.9,14.82,2.88,23.74,15.08,20.97,29.3Z"/><path class="cls-1" d="M289.2,785.1l-12.86-3.99,14.11-45.46,12.86,3.99-14.11,45.46Z"/><path class="cls-1" d="M246.83,728.19l18.42,8.11,7.15-6.96,12.57,5.53-38.4,35.1-12.14-5.34-.12-52.06,12.82,5.64-.3,9.97Zm-.39,10.68l-.53,16.41,11.74-11.48-11.2-4.93Z"/><path class="cls-1" d="M205.21,750.02l-11.46-7.07,19.39-31.43-19.33-11.93,5.61-9.09,30.79,19-24.99,40.51Z"/><path class="cls-1" d="M181.89,706.88c-3.41,4.5-9.39,5.17-13.72,1.88-4.33-3.29-5.35-9.27-1.93-13.76,3.45-4.55,9.52-5.24,13.86-1.95,4.33,3.29,5.25,9.28,1.8,13.83Z"/><path class="cls-1" d="M141.97,640l-17.7,17.98,23.16-5.92,4.24,4.22-5.38,22.66,17.31-17.4,8.82,8.78-33.57,33.74-7.86-7.82,7.52-31.27-30.94,7.96-7.86-7.82,33.47-33.84,8.77,8.73Z"/><path class="cls-1" d="M95.99,597.97l8.41-6.12,22.49,30.9-38.48,28.02-21.97-30.18,8.41-6.12,14.13,19.41,6.49-4.72-12.45-17.1,8.14-5.92,12.45,17.1,7.04-5.12-14.65-20.12Z"/><path class="cls-1" d="M57.48,606.72l-10.43-19.95c-7.31-13.98-4.19-27.81,8.77-34.59,12.96-6.77,26.1-1.45,33.41,12.53l10.43,19.95-42.18,22.06Zm22.48-36.54c-3.75-7.17-10.55-9.75-17.84-5.94s-9.05,10.87-5.3,18.04l3.94,7.53,23.14-12.1-3.94-7.53Z"/><path class="cls-1" d="M29.94,549.89l-4.8-12.58,44.47-16.98,4.8,12.58-44.47,16.98Z"/><path class="cls-1" d="M48.54,481.44l5,19.5,9.89,1.32,3.42,13.31-51.33-8.52-3.3-12.84,40.87-32.26,3.48,13.57-8.03,5.92Zm-8.64,6.29l-13.23,9.72,16.28,2.14-3.04-11.86Z"/><path class="cls-1" d="M18.6,463.68c-8.8,0-15.22-7.6-16.57-19.9-.71-6.49,.12-13.03,2.29-17.93l.21-.48,11.53,3.37-.25,.61c-1.89,4.68-2.62,9.13-2.17,13.22,.35,3.21,1.42,6.96,4.44,6.64,2.35-.26,2.78-4.37,3.28-9.12,.82-7.85,1.95-18.61,13.04-19.83,4.41-.49,8.6,1.01,11.79,4.2,3.48,3.48,5.71,8.88,6.44,15.61,.84,7.69-.37,15.88-3.09,20.86l-.24,.44-11.5-3.68,.32-.63c2.35-4.57,3.46-10.62,2.89-15.79-.28-2.55-.82-4.41-1.61-5.54-.65-.93-1.44-1.32-2.43-1.22-2.49,.27-2.95,4.46-3.49,9.31-.87,7.82-2.05,18.53-13.16,19.75-.59,.06-1.17,.1-1.74,.1Zm-13.39-36.86c-1.93,4.66-2.65,10.75-1.99,16.83,1.38,12.56,7.88,19.73,16.98,18.74,10.15-1.11,11.23-10.86,12.1-18.69,.59-5.36,1.11-9.99,4.55-10.37,1.42-.16,2.64,.44,3.54,1.72,.91,1.3,1.52,3.35,1.82,6.09,.57,5.16-.47,11.15-2.7,15.83l9.21,2.95c2.45-4.82,3.51-12.48,2.72-19.72-.71-6.45-2.82-11.6-6.1-14.89-2.93-2.93-6.77-4.3-10.81-3.85-10.13,1.11-11.15,10.9-11.98,18.76-.55,5.27-1.03,9.83-4.34,10.19-1.81,.2-4.97-.54-5.76-7.7-.45-4.11,.22-8.55,2.01-13.19l-9.25-2.7Z"/><path class="cls-1" d="M25.4,414.16c-.33,0-.67,0-1.01-.02h0c-14.68-.53-24.93-12.28-24.37-27.95,.56-15.67,11.62-26.65,26.31-26.13,7.07,.25,13.42,3.22,17.88,8.35,4.45,5.12,6.75,12.08,6.48,19.59-.55,15.31-11.12,26.15-25.3,26.15Zm-.97-1.22c14,.5,24.53-10,25.07-24.97,.26-7.21-1.94-13.88-6.19-18.76-4.24-4.88-10.29-7.7-17.02-7.94-13.97-.5-24.53,10-25.07,24.97-.54,14.97,9.22,26.2,23.21,26.71h0Zm1.12-12.38c-.22,0-.45,0-.67-.01-4.13-.15-7.64-1.62-10.16-4.26-2.42-2.54-3.68-5.98-3.55-9.69,.28-7.79,6.45-13.23,14.67-12.94,4.13,.15,7.64,1.62,10.16,4.26,2.42,2.54,3.68,5.98,3.55,9.69s-1.64,7.06-4.24,9.41c-2.56,2.32-5.92,3.53-9.77,3.53Zm-.36-25.71c-7.33,0-12.56,4.77-12.82,11.79-.12,3.39,1.02,6.52,3.22,8.82,2.3,2.41,5.53,3.75,9.33,3.89,3.81,.13,7.12-.97,9.59-3.21,2.36-2.14,3.72-5.18,3.84-8.57s-1.02-6.52-3.22-8.82c-2.3-2.41-5.53-3.75-9.33-3.89-.21,0-.41-.01-.62-.01Z"/><path class="cls-1" d="M32.68,352.46c-1.69,0-3.42-.17-5.15-.5h0c-14.42-2.79-22.75-15.87-19.81-31.1,1.69-8.72,6.18-15.22,13.01-18.81l.5-.26,6.6,10.9-.55,.3c-4.11,2.25-6.5,5.38-7.3,9.54-1.44,7.43,2.73,13.42,10.36,14.9,7.64,1.48,13.73-2.53,15.17-9.96,.81-4.17-.25-7.96-3.22-11.58l-.4-.48,10.19-7.66,.37,.43c5,5.87,6.74,13.58,5.06,22.3-1.42,7.34-5.19,13.54-10.62,17.46-4.12,2.97-9.03,4.52-14.21,4.52Zm-11.88-49.08c-6.21,3.46-10.32,9.57-11.89,17.7-2.81,14.55,5.12,27.04,18.85,29.7h0c6.69,1.29,13.23-.06,18.43-3.81,5.18-3.74,8.78-9.68,10.14-16.72,1.57-8.13,.04-15.33-4.43-20.86l-8.29,6.23c2.87,3.73,3.91,7.79,3.08,12.08-1.55,8.01-8.36,12.5-16.57,10.91-8.21-1.59-12.86-8.29-11.31-16.3,.83-4.29,3.3-7.67,7.36-10.06l-5.37-8.87Z"/><path class="cls-1" d="M62.99,303.76l-46.63-14.42,4.33-14.01,46.63,14.42-4.33,14.01Zm-45.12-15.21l44.33,13.71,3.62-11.72-44.33-13.71-3.62,11.72Z"/><path class="cls-1" d="M67.52,285.78l-36.04-39.33,5.64-12.86,53.37-.19-6.16,14.04-9.97-.29-7.76,17.69,6.97,7.14-6.05,13.79Zm-34.62-39.56l34.26,37.39,4.99-11.37-6.97-7.14,8.41-19.17,9.97,.29,5.09-11.61-50.74,.18-5.01,11.43Zm25.68,12.21l-13.16-13.42,18.79,.59-5.63,12.83Zm-10.21-12.13l9.82,10.02,4.2-9.58-14.03-.44Z"/><path class="cls-1" d="M92.84,230.72l-41.56-25.58,7.69-12.49,31.44,19.35,11.91-19.34,10.11,6.23-19.59,31.83Zm-39.91-25.97l39.51,24.32,18.33-29.78-8.07-4.97-11.91,19.34-31.44-19.35-6.43,10.44Z"/><path class="cls-1" d="M101.33,184.25c-2.28,0-4.53-.77-6.45-2.23h0c-2.29-1.73-3.74-4.19-4.1-6.91-.35-2.69,.39-5.41,2.09-7.65,1.7-2.25,4.12-3.7,6.81-4.11,2.73-.41,5.5,.31,7.79,2.04,2.31,1.75,3.79,4.23,4.15,6.99,.36,2.72-.37,5.46-2.08,7.7-1.7,2.24-4.13,3.68-6.83,4.06-.46,.06-.92,.1-1.38,.1Zm-.15-19.81c-.44,0-.88,.03-1.32,.1-2.38,.36-4.53,1.65-6.04,3.65-1.51,1.99-2.17,4.39-1.86,6.77,.31,2.4,1.6,4.57,3.63,6.11h0c2.06,1.56,4.52,2.23,6.95,1.9,2.39-.33,4.54-1.61,6.04-3.59,1.51-1.99,2.16-4.41,1.84-6.82-.32-2.44-1.63-4.64-3.69-6.2-1.66-1.25-3.59-1.91-5.57-1.91Z"/><path class="cls-1" d="M131.8,172.91l-34.62-34.38,8.47-8.53,30.64,7.33-7.83-30.3,8.47-8.53,34.72,34.29-9.56,9.63-16.88-16.59,5.5,21.4-4.69,4.73-20.92-4.94,16.33,16.22-9.61,9.68Zm-32.93-34.39l32.92,32.69,7.92-7.98-18.5-18.37,24.41,5.77,3.74-3.77-6.4-24.91,19.11,18.77,7.88-7.93-33.02-32.6-7.15,7.2,8.16,31.57-31.92-7.64-7.15,7.2Z"/><path class="cls-1" d="M179.16,127.33l-28.77-39.42,31.13-22.71,6.84,9.37-19.39,14.15,4.02,5.51,17.08-12.47,6.64,9.1-17.08,12.47,4.42,6.06,20.11-14.67,6.84,9.37-31.84,23.23Zm-27.09-39.16l27.35,37.48,29.9-21.82-5.43-7.44-20.11,14.67-5.84-8,17.08-12.47-5.23-7.16-17.08,12.47-5.44-7.45,19.39-14.15-5.43-7.44-29.19,21.3Z"/><path class="cls-1" d="M217.11,100.01l-22.66-43.22,20.47-10.73c7.04-3.69,14.1-4.83,20.41-3.29,6.42,1.57,11.61,5.82,14.99,12.27,3.39,6.46,3.93,13.14,1.56,19.31-2.32,6.07-7.27,11.23-14.32,14.92l-20.47,10.73Zm-21.04-42.72l21.54,41.1,19.4-10.17c6.78-3.56,11.54-8.5,13.75-14.29,2.24-5.85,1.71-12.18-1.51-18.33-3.22-6.15-8.14-10.18-14.22-11.67-6.02-1.47-12.79-.37-19.57,3.18l-19.4,10.17Zm27.97,26.95l-12.68-24.19,8.06-4.22c7.6-3.99,15-1.81,18.86,5.53,1.93,3.68,2.34,7.39,1.19,10.72-1.12,3.25-3.67,6-7.37,7.93l-.28-.53,.28,.53-8.06,4.23Zm-11.06-23.68l11.57,22.06,7-3.67c3.42-1.8,5.77-4.31,6.79-7.26,1.04-3.01,.65-6.39-1.12-9.77-3.57-6.8-10.17-8.73-17.24-5.03l-7,3.67Z"/><path class="cls-1" d="M268.75,74.67l-17.45-45.58,13.69-5.24,17.45,45.58-13.69,5.25Zm-15.9-44.88l16.6,43.33,11.45-4.39-16.6-43.33-11.45,4.39Z"/><path class="cls-1" d="M285.68,67.13l8.67-52.63,13.6-3.51,33.11,41.85-14.85,3.83-5.93-8.02-18.71,4.82-1.31,9.89-14.58,3.76Zm9.73-51.66l-8.24,50.04,12.02-3.1,1.31-9.89,20.27-5.23,5.93,8.02,12.28-3.17-31.49-39.79-12.08,3.12Zm6.26,27.74l2.43-18.64,11.14,15.14-13.57,3.5Zm3.23-15.52l-1.81,13.92,10.13-2.61-8.32-11.3Z"/></g></g></svg>