<?xml version="1.0" encoding="UTF-8"?><svg id="Calque_2" xmlns="http://www.w3.org/2000/svg" viewBox="0 0 311.52 311.84"><defs><style>.cls-1{fill:#fff;}</style></defs><g id="Calque_1-2"><path class="cls-1" d="M303.37,3.43c-3.29-2.28-7.13-3.43-11.02-3.43-3.33,0-6.66,.85-9.67,2.57L9.82,157.94C3.37,162.19-.42,169.2,.04,176.08c.46,6.88,5.1,13.92,11.95,16.78l62.86,26.2,37.67,89.23c.48,1.15,1.31,2.12,2.5,2.63,.65,.81,1.26,.93,1.38,.93,1.24,0,2.45-.47,3.38-1.36l52.23-50.19,73.33,30.55c2.42,1.01,4.93,1.51,7.49,1.51,3.29,0,6.6-.84,9.55-2.5,5.23-2.94,8.81-8.11,9.73-14.04L311.08,22.99c1.68-7.93-1.49-15.33-7.7-19.56ZM9.76,176.02c-.23-3.72,1.64-7.19,4.89-9.08L287.51,11.02c.51-.29,1.12-.25,1.67-.44L76.01,209.52l-60.3-25.12c-3.38-1.43-5.73-4.72-5.95-8.37ZM250.63,59.89L113.16,230.85c-.73,.83-1.1,1.93-1.1,3.03v48.96l-28.29-67.18L250.63,59.89ZM121.81,295.52v-56.37l40.92,17.05-40.92,39.32Zm141.18-21.2c-.46,2.99-2.23,5.55-4.87,7.02-1.47,.83-3.11,1.26-4.76,1.26-1.29,0-2.55-.25-3.75-.75l-123.58-51.5L299.99,14.08c1.44,2.03,2.37,4.38,1.98,6.91l-38.97,253.34Z"/></g></svg>