<svg xmlns="http://www.w3.org/2000/svg" viewBox="0 0 995.69 995.69"><defs><style>.cls-1{fill:#fff;}.cls-2{fill:none;stroke:#fff;stroke-miterlimit:10;stroke-width:1.5px;}</style></defs><g id="Calque_2" data-name="Calque 2"><g id="Calque_4" data-name="Calque 4"><path class="cls-1" d="M770.06,245.17c-7.69,4.81-18.34,6-29.77-4.73-13-12.21-10.85-27.1-1.51-37.05s24.77-12.53,37.61-.47c11.16,10.46,10.9,21.89,6.25,29l-8.95-8.4c1.21-2.79,2.39-8-3.83-13.82-6.81-6.39-15.22-4.53-21.45,2.12s-8.47,15.51-1.3,22.24c5.18,4.86,9.34,5,14.06,2.79Z"/><path class="cls-1" d="M812.38,283.33c-10.86,8.59-26.29,9-37.56-5.23-10.51-13.29-7.43-28.06,4-37.11,10.78-8.52,26.69-8,37.19,5.25C826.84,259.92,823.06,274.88,812.38,283.33Zm-25.5-32.4c-7.41,5.85-10.25,14.2-4.21,21.83,6.24,7.9,15.3,5.67,21.67.64,6.94-5.49,10.3-13.65,4-21.58C802.34,244.19,793.48,245.7,786.88,250.93Z"/><path class="cls-1" d="M833.55,332.67c7.54-4.15,15.42-8.42,20.41-10.85l0-.06c-9.28,2.28-24.38,5.24-43.3,8.94l-5.15-9.34c11.9-11.78,24-24.42,31-31.31l0-.06c-4.91,3.13-13.19,8.21-20.64,12.32l-15.95,8.78-5.27-9.56,43.75-24.1,8.45,15.34c-11.13,11.85-20.79,22.44-26.06,27l0,.06c7.92-1.94,21.59-4.33,37-7.25L866.18,328l-43.75,24.1-5.64-10.23Z"/><path class="cls-1" d="M875,351.27l-46.27,18.82-4.56-11.22L870.43,340Z"/><path class="cls-1" d="M831.91,376.4l48-13.9,4,13.79c-16.67,19.44-22.6,27-27.43,31.65l0,.13c4.9-1.93,13.9-4.46,21.8-6.75l11.85-3.43,3.09,10.67-48,13.9-3.74-12.93c5.84-6.59,25.24-28.85,29.9-33.29l0-.14c-5.8,2.12-12.62,4.09-21.15,6.56L835,387.07Z"/><path class="cls-1" d="M852.84,477.38l-1.12-8.72a42.84,42.84,0,0,1,5-1.45c-4.13-2.66-7.07-6.6-8.27-15.92-2.07-16.05,7.82-26.41,22.32-28.28s27.34,6.16,29.62,23.87c2,15.91-5.71,23.88-12.75,26.13L886,460.89c2.37-1.3,6.28-4.7,5.23-12.85C890,437.9,882.16,434.42,873,435.61c-9.72,1.25-16.4,6.78-15.1,16.88,1.08,8.39,5.93,11.65,11.84,10.89l.78-.1-1.55-12.07,9.27-1.19,3,23.7Z"/><path class="cls-1" d="M867.64,505c-4.38,1.19-7.4,4.48-7.85,12.76-.43,7.75,1.82,10.12,5,10.3,3.44.19,5.5-2,7.87-12.41,3.91-17.15,9.7-20,16.39-19.62,10,.55,14.52,10.42,13.88,22.21-1,17.11-10,21.28-15.83,21.52l.67-12.12c2.51-.57,5.91-2,6.36-10.27.32-5.77-1.36-8.79-4.58-9-2.88-.16-4.45,1.82-6.64,11.09-4.45,18.76-10.33,21.41-17.56,21-8.65-.47-15.26-7.64-14.34-24.37.86-15.6,8.21-22.24,17.27-23.26Z"/><path class="cls-1" d="M865.09,598.18c-13.58-2.7-23.91-14.17-20.36-32,3.3-16.62,16.54-23.85,30.85-21,13.47,2.68,23.42,15.11,20.12,31.71C892.3,594,878.45,600.83,865.09,598.18Zm8.14-40.43c-9.27-1.85-17.46,1.41-19.35,11-2,9.86,5.6,15.32,13.57,16.9,8.67,1.73,17.06-1,19-10.92C888.38,565.15,881.49,559.39,873.23,557.75Z"/><path class="cls-1" d="M845.48,653.24c-13-4.73-21.49-17.63-15.29-34.7,5.78-15.93,20-21.07,33.67-16.1,12.91,4.69,20.87,18.48,15.09,34.4C873,653.23,858.28,657.88,845.48,653.24Zm14.16-38.73c-8.88-3.22-17.47-1.25-20.79,7.9-3.43,9.46,3.22,16,10.85,18.76,8.32,3,17,1.6,20.47-7.91C873.49,624.12,867.55,617.38,859.64,614.51Z"/><path class="cls-1" d="M820.25,647.62l43.79,24-6.9,12.58c-25.53,2-35.06,3.16-41.77,3l-.07.13c4.84,2.09,13,6.65,20.2,10.6L846.32,704,841,713.68l-43.79-24,6.47-11.8c8.79-.55,38.24-2.62,44.67-2.48l.07-.12c-5.61-2.6-11.83-6-19.61-10.29l-13.88-7.61Z"/><path class="cls-2" d="M744.81,775.24c-4.65-7.78-5.61-18.46,5.35-29.67,12.48-12.76,27.33-10.28,37.08-.74s12,25-.3,37.62c-10.7,10.94-22.12,10.45-29.11,5.65l8.58-8.77c2.76,1.26,7.94,2.55,13.9-3.55,6.53-6.68,4.84-15.12-1.68-21.5s-15.33-8.79-22.2-1.76c-5,5.08-5.18,9.25-3.09,14Z"/><path class="cls-2" d="M705.79,816.75c-8.37-11-8.47-26.47,6-37.44,13.51-10.23,28.21-6.84,37,4.78,8.29,11,7.48,26.85-6,37.08C728.9,831.7,714,827.61,705.79,816.75Zm32.93-24.82c-5.71-7.53-14-10.54-21.75-4.66-8,6.08-6,15.18-1.08,21.65,5.34,7.06,13.43,10.59,21.49,4.48C745.13,807.53,743.8,798.64,738.72,791.93Z"/><path class="cls-2" d="M656,836.91c4,7.62,8.1,15.58,10.42,20.62l.07,0c-2.09-9.33-4.74-24.48-8-43.47l9.45-5c11.52,12.13,23.91,24.45,30.65,31.6l.07,0c-3-5-7.94-13.35-11.89-20.89l-8.45-16.12,9.66-5.07,23.2,44.23-15.51,8.13c-11.63-11.36-22-21.24-26.5-26.6l-.06,0c1.78,8,3.88,21.68,6.49,37.1L660,869.62l-23.19-44.23L647.16,820Z"/><path class="cls-2" d="M636.59,878l-17.86-46.65L630.05,827l17.86,46.65Z"/><path class="cls-2" d="M612.33,834.38l12.89,48.25-13.86,3.71c-19.09-17.07-26.51-23.15-31.07-28.08l-.14,0c1.82,4.94,4.17,14,6.29,21.93l3.19,11.92L578.9,895,566,846.76l13-3.48c6.47,6,28.32,25.83,32.67,30.58l.14,0c-2-5.85-3.83-12.71-6.12-21.28l-4.09-15.3Z"/><path class="cls-2" d="M511,853.18l8.74-.94a44.16,44.16,0,0,1,1.34,5c2.74-4.08,6.75-6.94,16.09-7.94,16.09-1.74,26.25,8.37,27.81,22.9s-6.73,27.21-24.48,29.12c-16,1.72-23.76-6.21-25.86-13.29l12.15-1.31c1.25,2.4,4.57,6.38,12.74,5.5,10.16-1.1,13.81-8.82,12.81-18.06-1.05-9.74-6.44-16.53-16.57-15.44-8.4.9-11.77,5.68-11.13,11.6l.09.78,12.09-1.3,1,9.3-23.76,2.56Z"/><path class="cls-2" d="M483.06,867.41c-1.1-4.41-4.33-7.49-12.59-8.12-7.75-.58-10.17,1.61-10.41,4.82-.26,3.44,1.89,5.54,12.25,8.12,17.06,4.27,19.78,10.12,19.27,16.8-.75,10-10.71,14.31-22.49,13.42C452,901.15,448,892,447.89,886.18l12.11.91c.52,2.52,1.93,5.95,10.14,6.58,5.76.43,8.82-1.18,9.06-4.4.22-2.88-1.72-4.48-10.95-6.87-18.67-4.83-21.2-10.77-20.65-18,.66-8.64,8-15.1,24.67-13.83,15.58,1.18,22.07,8.67,22.91,17.75Z"/><path class="cls-2" d="M390,863.09c2.91-13.53,14.53-23.69,32.29-19.88,16.56,3.56,23.59,16.9,20.54,31.16-2.89,13.43-15.46,23.19-32,19.64C393.73,890.35,387.11,876.41,390,863.09Zm40.3,8.74c2-9.23-1.15-17.47-10.66-19.51-9.84-2.11-15.41,5.37-17.11,13.31-1.86,8.66.74,17.08,10.63,19.2C422.63,886.87,428.5,880.07,430.27,871.83Z"/><path class="cls-2" d="M335.26,842.19c5-12.91,18.06-21.12,35-14.57,15.81,6.11,20.66,20.4,15.4,34-5,12.82-18.91,20.49-34.7,14.38C334.7,869.71,330.35,854.9,335.26,842.19Zm38.43,15c3.41-8.81,1.61-17.44-7.47-20.95-9.39-3.62-16.06,2.89-19,10.47-3.19,8.25-1.94,17,7.49,20.63C363.79,870.81,370.66,865,373.69,857.15Z"/><path class="cls-2" d="M341.43,817.09,316.5,860.38l-12.44-7.17c-1.47-25.57-2.43-35.11-2.18-41.82l-.12-.07c-2.2,4.78-6.93,12.85-11,20L284.57,842,275,836.44l24.93-43.28,11.66,6.71c.37,8.8,1.82,38.29,1.55,44.72l.12.07c2.72-5.55,6.27-11.7,10.69-19.39l7.91-13.72Z"/><path class="cls-1" d="M225.46,750.33c7.69-4.8,18.35-6,29.77,4.76,13,12.22,10.83,27.12,1.49,37.06s-24.78,12.51-37.62.45c-11.16-10.48-10.89-21.91-6.23-29l8.94,8.4c-1.21,2.79-2.39,8,3.82,13.82,6.81,6.4,15.22,4.54,21.46-2.1s8.48-15.51,1.32-22.24c-5.18-4.86-9.35-5-14.07-2.81Z"/><path class="cls-1" d="M183.17,712.15c10.87-8.58,26.3-9,37.56,5.26,10.5,13.3,7.41,28.07-4,37.11-10.79,8.51-26.7,8-37.19-5.28C168.69,735.55,172.48,720.59,183.17,712.15Zm25.48,32.43c7.42-5.86,10.26-14.2,4.23-21.84-6.24-7.9-15.3-5.68-21.68-.65-6.94,5.48-10.31,13.64-4,21.57C193.18,751.3,202,749.79,208.65,744.58Z"/><path class="cls-1" d="M162,662.81c-7.55,4.15-15.43,8.41-20.41,10.83l0,.06c9.28-2.27,24.38-5.22,43.3-8.91l5.15,9.35c-11.9,11.76-24,24.4-31,31.28l0,.06c4.9-3.12,13.19-8.2,20.65-12.3l15.95-8.78L201,694l-43.76,24.08L148.8,702.7c11.14-11.85,20.8-22.43,26.08-27l0-.06c-7.92,1.94-21.59,4.32-37,7.23l-8.49-15.42,43.77-24.07,5.63,10.23Z"/><path class="cls-1" d="M120.61,644.21l46.28-18.8,4.56,11.23-46.28,18.8Z"/><path class="cls-1" d="M163.71,619.1l-48,13.88-4-13.79c16.68-19.43,22.61-27,27.45-31.63l0-.14c-4.91,1.93-13.91,4.45-21.8,6.74l-11.86,3.42-3.08-10.66,48-13.88L154.13,586c-5.84,6.58-25.26,28.84-29.91,33.28l0,.13c5.81-2.11,12.63-4.08,21.15-6.55l15.21-4.39Z"/><path class="cls-1" d="M142.84,518.11l1.11,8.72a42.25,42.25,0,0,1-5,1.45c4.13,2.66,7.07,6.61,8.26,15.92,2.06,16-7.83,26.41-22.33,28.27s-27.34-6.17-29.61-23.88c-2-15.91,5.72-23.88,12.77-26.12l1.55,12.12c-2.38,1.29-6.28,4.7-5.24,12.84,1.3,10.14,9.1,13.62,18.31,12.44,9.73-1.25,16.4-6.77,15.11-16.87-1.08-8.39-5.92-11.66-11.83-10.9l-.78.1,1.55,12.07-9.28,1.19-3-23.7Z"/><path class="cls-1" d="M128.05,490.53c4.39-1.2,7.41-4.48,7.87-12.76.42-7.75-1.82-10.12-5-10.3-3.43-.19-5.5,2-7.86,12.41-3.92,17.14-9.72,20-16.41,19.6-10-.55-14.52-10.42-13.86-22.21,1-17.11,10-21.27,15.83-21.52l-.67,12.12c-2.51.57-5.91,2.05-6.36,10.27-.32,5.77,1.35,8.79,4.57,9,2.88.16,4.45-1.81,6.65-11.08,4.45-18.76,10.33-21.41,17.56-21,8.65.48,15.26,7.65,14.33,24.38-.86,15.6-8.21,22.24-17.28,23.25Z"/><path class="cls-1" d="M130.65,397.3c13.58,2.71,23.91,14.18,20.36,32-3.31,16.61-16.56,23.84-30.86,21-13.48-2.68-23.42-15.12-20.11-31.72C103.45,401.46,117.29,394.64,130.65,397.3Zm-8.15,40.43c9.26,1.84,17.45-1.41,19.36-11,2-9.87-5.6-15.33-13.57-16.92-8.67-1.73-17.06,1-19,10.92C107.35,430.31,114.24,436.08,122.5,437.73Z"/><path class="cls-1" d="M150.32,342.21c13,4.74,21.48,17.64,15.27,34.72-5.8,15.92-20,21.05-33.69,16.07-12.91-4.7-20.85-18.49-15.07-34.41C122.8,342.2,137.52,337.56,150.32,342.21Zm-14.19,38.73c8.88,3.22,17.47,1.25,20.8-7.89,3.44-9.46-3.21-16-10.85-18.78-8.31-3-17-1.6-20.47,7.9C122.28,371.31,128.22,378.06,136.13,380.94Z"/><path class="cls-1" d="M175.53,347.89l-43.78-24.06,6.92-12.58c25.52-2,35.05-3.13,41.76-3l.07-.12c-4.83-2.1-13-6.66-20.19-10.62l-10.81-5.94,5.34-9.74,43.78,24.06-6.48,11.79c-8.79.54-38.24,2.59-44.67,2.45l-.07.13c5.6,2.6,11.82,6,19.6,10.29l13.88,7.63Z"/><path class="cls-2" d="M251.07,220.28c4.64,7.8,5.61,18.47-5.37,29.68-12.49,12.75-27.34,10.26-37.09.71s-12-25,.34-37.63c10.7-10.93,22.12-10.43,29.11-5.62l-8.59,8.77c-2.76-1.27-7.93-2.56-13.9,3.53-6.53,6.67-4.85,15.12,1.66,21.5s15.33,8.8,22.21,1.78c5-5.08,5.18-9.24,3.1-14Z"/><path class="cls-2" d="M290.11,178.81c8.36,11,8.45,26.48-6,37.44-13.51,10.22-28.22,6.82-37-4.81-8.28-11-7.46-26.85,6-37.07C267,163.85,281.9,167.94,290.11,178.81Zm-32.94,24.8c5.7,7.53,14,10.55,21.74,4.67,8-6.07,6-15.17,1.1-21.65-5.34-7.06-13.42-10.59-21.49-4.49C250.77,188,252.09,196.9,257.17,203.61Z"/><path class="cls-2" d="M339.91,158.66c-4-7.63-8.09-15.6-10.41-20.63l-.06,0c2.08,9.33,4.72,24.49,8,43.48l-9.46,5c-11.52-12.14-23.9-24.47-30.64-31.63l-.06,0c3,5,7.93,13.37,11.87,20.91l8.45,16.13L307.94,197l-23.17-44.27,15.52-8.12c11.62,11.38,22,21.26,26.49,26.63l.06,0c-1.78-8-3.87-21.68-6.46-37.11L336,125.93l23.17,44.26-10.35,5.42Z"/><path class="cls-2" d="M359.35,117.64l17.83,46.66-11.32,4.33L348,122Z"/><path class="cls-2" d="M383.56,161.25,370.68,113l13.87-3.7c19.08,17.08,26.5,23.17,31.06,28.1l.13,0c-1.82-4.94-4.16-14-6.28-21.93l-3.18-11.93L417,100.63l12.88,48.26-13,3.47c-6.46-6-28.3-25.84-32.65-30.59l-.14,0c2,5.85,3.83,12.71,6.11,21.28l4.09,15.3Z"/><path class="cls-2" d="M485,142.49l-8.74.94a43.59,43.59,0,0,1-1.34-5c-2.74,4.08-6.75,6.93-16.09,7.93-16.09,1.73-26.24-8.38-27.8-22.92s6.75-27.2,24.51-29.1c15.94-1.71,23.75,6.22,25.84,13.31L469.21,109c-1.25-2.41-4.56-6.38-12.73-5.51-10.17,1.09-13.81,8.81-12.82,18,1,9.75,6.43,16.54,16.55,15.46,8.41-.9,11.77-5.68,11.14-11.6l-.08-.79-12.1,1.3-1-9.3L481.94,114Z"/><path class="cls-2" d="M512.85,128.29c1.1,4.41,4.32,7.5,12.59,8.13,7.74.59,10.16-1.6,10.4-4.81.27-3.44-1.88-5.54-12.24-8.13-17.06-4.28-19.77-10.13-19.26-16.81.76-10,10.73-14.3,22.5-13.4,17.09,1.31,21.06,10.45,21.18,16.28l-12.1-.92c-.52-2.52-1.92-5.95-10.14-6.58-5.76-.44-8.81,1.17-9.06,4.39-.22,2.88,1.72,4.48,10.94,6.87,18.67,4.85,21.19,10.78,20.64,18-.66,8.63-8,15.09-24.67,13.81-15.59-1.19-22.07-8.68-22.89-17.76Z"/><path class="cls-2" d="M605.89,132.64c-2.9,13.54-14.52,23.69-32.29,19.88C557,149,550,135.62,553.07,121.36c2.88-13.43,15.46-23.19,32-19.64C602.13,105.38,608.75,119.32,605.89,132.64Zm-40.3-8.74c-2,9.23,1.15,17.47,10.67,19.51,9.84,2.11,15.41-5.37,17.11-13.31,1.85-8.65-.75-17.08-10.63-19.2C573.23,108.86,567.36,115.67,565.59,123.9Z"/><path class="cls-2" d="M660.66,153.62c-5,12.91-18.08,21.11-35,14.54-15.8-6.12-20.63-20.41-15.36-34,5-12.81,18.92-20.46,34.7-14.34C661.25,126.11,665.59,140.92,660.66,153.62Zm-38.41-15c-3.42,8.81-1.63,17.44,7.45,21,9.38,3.64,16.06-2.87,19-10.44,3.2-8.25,2-17-7.46-20.64C632.16,125,625.29,130.78,622.25,138.63Z"/><path class="cls-2" d="M654.47,178.71l25-43.27,12.43,7.18c1.45,25.56,2.41,35.11,2.15,41.82l.13.07c2.19-4.79,6.93-12.85,11-20l6.17-10.69,9.62,5.56-25,43.26L684.35,196c-.36-8.8-1.79-38.29-1.52-44.72l-.12-.07c-2.72,5.55-6.27,11.7-10.7,19.38l-7.92,13.72Z"/></g></g></svg>