<svg xmlns="http://www.w3.org/2000/svg" viewBox="0 0 1032.05 1032.05"><defs><style>.cls-1{fill:#fff;}.cls-2{fill:none;stroke:#fff;stroke-miterlimit:10;stroke-width:1.5px;}.cls-3{opacity:0;}.cls-4{fill:#1d1d1b;}</style></defs><g id="Calque_2" data-name="Calque 2"><g id="Calque_4" data-name="Calque 4"><path class="cls-1" d="M787.91,270.17,762.81,246,753,256.23l27.91,26.89-9.67,7.53-37.58-36.19,43.32-45,37.38,36-8.42,8.75-26.46-25.49-8.2,8.52,25.1,24.18Zm38-38.71-22.56-4.62-10-9.6,19.24,1.42Z"/><path class="cls-1" d="M836.51,326.65c-14,10.11-33.34,9.78-46.62-8.65-12.38-17.18-7.7-35.46,7.09-46.11,13.94-10,33.78-8.55,46.16,8.63C855.88,298.22,850.32,316.7,836.51,326.65Zm-30-41.91c-9.58,6.9-13.59,17.17-6.47,27,7.34,10.21,18.78,7.94,27,2,9-6.47,13.63-16.47,6.25-26.72C826.16,277.2,815,278.59,806.47,284.74Zm3.7,42.37.55,23.2-12.64-.83-.69-27.3Z"/><path class="cls-1" d="M874.68,334.49l-32,14.85c-12,5.58-12.17,13.31-8.94,20.28,3.43,7.41,8.92,10.88,20.83,5.37l32-14.85,6.37,13.75-32.48,15.05c-17.19,8-29.86,2.1-37.66-14.73-7.55-16.29-4.86-30.12,12.72-38.27l32.79-15.19Z"/><path class="cls-1" d="M901.5,402.44,842,421.26l-4.56-14.45L896.93,388Z"/><path class="cls-1" d="M906.23,416.78l6,31.76c2.68,14.27-2.75,25.11-14.83,27.38-12.55,2.36-21.74-5.17-24.57-20.23l-3.11-16.55-22,4.14-2.81-15Zm-25,20.19,2.89,15.4c1.18,6.31,4.1,9.89,10.19,8.74,5-.93,7.47-4.56,6.11-11.8l-2.89-15.4Z"/><path class="cls-1" d="M882.15,534.46l-.66-34.84-14.21.27.73,38.74-12.17-1.51-1-52.15,62.43-1.18,1,51.87-12.13.23-.69-36.72-11.83.22.66,34.84Z"/><path class="cls-2" d="M864.65,629.18l8.41-33.83-13.79-3.42-9.35,37.6-11.36-4.62,12.59-50.62,60.6,15.07-12.52,50.35-11.77-2.92,8.86-35.65-11.48-2.86-8.41,33.83Zm52.52,13.59-7.27-21.86,3.34-13.42,8.38,17.37Z"/><path class="cls-2" d="M826.45,677,806.62,689,801,677.67l23.31-14.24ZM840,699.55c-15.78-7.11-25.13-24-15.79-44.7,8.71-19.3,26.87-24.38,43.49-16.88,15.66,7.06,24.27,25,15.57,44.29C874.3,702.14,855.52,706.55,840,699.55Zm21.3-46.94c-10.76-4.86-21.65-3.2-26.66,7.89-5.17,11.46,2.51,20.24,11.76,24.42,10.09,4.54,21.07,3.58,26.27-7.94C877.67,665.9,870.9,656.94,861.3,652.61Z"/><path class="cls-2" d="M852.18,736.6l-28.81-20.4c-10.83-7.68-17.6-3.93-22,2.33-4.72,6.67-5,13.15,5.7,20.74l28.82,20.4L827.09,772l-29.21-20.69c-15.47-11-16.68-24.86-6-40,10.38-14.65,23.71-19.2,39.53-8l29.49,20.88Z"/><path class="cls-2" d="M806.51,793.69,760.6,751.36l10.28-11.14,45.91,42.33Z"/><path class="cls-2" d="M796.41,804.92l-24.59,21c-11,9.42-23.16,10.1-31.13.75-8.28-9.72-6.32-21.44,5.34-31.38l12.81-10.92-14.53-17.05,11.59-9.89Zm-29.93-11.64-11.93,10.17c-4.88,4.16-6.54,8.47-2.52,13.19,3.28,3.85,7.68,4.21,13.28-.57l11.93-10.16Z"/><path class="cls-2" d="M682.45,842.59l29.87-18L705,812.45l-33.2,20L667,821.12l44.7-26.88,32.18,53.52-44.47,26.73-6.25-10.4,31.48-18.92L718.57,835l-29.86,18Z"/><path class="cls-1" d="M591.57,874.76l33.51-9.57-3.91-13.66-37.26,10.64L582.26,850l50.15-14.33,17.15,60L599.67,910l-3.33-11.67,35.32-10.09-3.25-11.37-33.51,9.57Zm14.4,52.3,15.32-17.2,13.3-3.8L623.71,922Z"/><path class="cls-1" d="M531.16,865.37l-20.32-11.2,7.07-10.5,23.94,13.14Zm-12.86,23c-1.67-17.22,8.32-33.73,30.93-35.92,21.08-2,34.52,11.19,36.28,29.34,1.66,17.09-9.63,33.49-30.69,35.53C533.11,919.41,519.94,905.31,518.3,888.35Zm51.32-4.85c-1.14-11.76-8-20.38-20.1-19.21-12.52,1.22-16.32,12.24-15.34,22.35,1.07,11,7.37,20.06,20,18.84C566.23,904.31,570.64,894,569.62,883.5Z"/><path class="cls-1" d="M492.22,917.35l3.37-35.15c1.26-13.21-5.35-17.22-13-18-8.14-.78-13.91,2.2-15.16,15.26l-3.36,35.15L449,913.21l3.41-35.63c1.81-18.87,13.27-26.84,31.75-25.07,17.87,1.71,28.45,11,26.6,30.31l-3.44,36Z"/><path class="cls-1" d="M420.89,906.47,434,845.41l14.81,3.18-13.09,61.06Z"/><path class="cls-1" d="M405.35,903.06,374.9,892.25c-13.68-4.86-20.32-15-16.21-26.59,4.28-12,15.4-16.19,29.84-11.06l15.87,5.63,7.5-21.11,14.35,5.1Zm-4.89-31.74-14.76-5.24c-6.05-2.15-10.61-1.43-12.69,4.41-1.69,4.76.19,8.75,7.13,11.22L394.91,887Z"/><path class="cls-1" d="M315.76,823.12l30.46,16.94,6.91-12.42-33.87-18.83,7.43-9.76,45.58,25.35L341.92,879l-45.34-25.22,5.89-10.6L334.57,861l5.75-10.34-30.45-16.93Z"/><path class="cls-2" d="M204.44,798.7,227,803.46l9.91,9.66-19.23-1.54Zm38.23-38.47,25,24.32,9.92-10.17-27.74-27,9.72-7.47,37.34,36.41L253.28,821l-37.16-36.22,8.47-8.69,26.3,25.64,8.26-8.47L234.2,768.92Z"/><path class="cls-2" d="M194.41,703.47c14.11-10,33.4-9.58,46.56,8.93,12.28,17.26,7.49,35.5-7.36,46.07-14,10-33.84,8.34-46.1-8.91C174.87,731.79,180.53,713.34,194.41,703.47Zm29.78,42.09c9.63-6.85,13.7-17.08,6.64-27-7.28-10.25-18.74-8-27-2.17-9,6.41-13.73,16.38-6.41,26.68C204.46,753,215.62,751.66,224.19,745.56Zm-3.44-42.39-.41-23.2,12.63.9.53,27.31Z"/><path class="cls-2" d="M156.28,695.4l32.12-14.65c12.08-5.51,12.24-13.24,9.06-20.23-3.39-7.43-8.86-10.94-20.8-5.49l-32.12,14.65-6.28-13.78L170.82,641c17.24-7.87,29.88-1.93,37.58,15,7.45,16.33,4.68,30.14-13,38.19l-32.88,15Z"/><path class="cls-2" d="M129.86,627.27l59.66-18.45L194,623.3l-59.67,18.45Z"/><path class="cls-2" d="M125.22,612.89l-5.77-31.79c-2.59-14.29,2.91-25.1,15-27.29,12.57-2.28,21.71,5.3,24.45,20.37l3,16.57,22-4,2.72,15Zm25.11-20-2.8-15.41c-1.15-6.32-4-9.92-10.14-8.81-5,.9-7.5,4.52-6.18,11.77l2.8,15.41Z"/><path class="cls-2" d="M150,495.38l.44,34.85,14.22-.18-.5-38.75,12.16,1.59.67,52.16-62.45.8L113.9,494l12.13-.15.47,36.73,11.83-.15-.45-34.85Z"/><path class="cls-1" d="M115.67,386.8l7.13,21.9-3.42,13.4-8.27-17.42Zm52.42,13.9-8.61,33.77L173.26,438l9.57-37.55,11.33,4.7-12.89,50.54-60.51-15.43L133.58,390l11.76,3-9.08,35.59,11.46,2.92,8.62-33.76Z"/><path class="cls-1" d="M193.15,330.54c15.74,7.21,25,24.15,15.52,44.79-8.82,19.26-27,24.22-43.59,16.63-15.61-7.16-24.12-25.15-15.3-44.39C158.86,327.75,177.67,323.45,193.15,330.54Zm-21.58,46.82c10.73,4.92,21.63,3.33,26.7-7.74,5.24-11.43-2.38-20.25-11.61-24.48-10.06-4.61-21-3.71-26.31,7.78C155.28,364,162,373,171.57,377.36Zm35-24.15,19.89-11.94L232,352.66l-23.4,14.09Z"/><path class="cls-1" d="M181.21,293.4,209.9,314c10.79,7.74,17.58,4,22-2.2,4.76-6.64,5.09-13.13-5.57-20.77l-28.69-20.59,8.83-12.31L235.61,279c15.4,11,16.53,25,5.71,40-10.46,14.59-23.83,19.06-39.58,7.76l-29.37-21.07Z"/><path class="cls-1" d="M227.21,236.61l45.66,42.6-10.34,11.08-45.66-42.6Z"/><path class="cls-1" d="M237.38,225.45l24.71-20.81c11.11-9.35,23.22-10,31.14-.56,8.22,9.77,6.19,21.47-5.53,31.34l-12.88,10.85,14.44,17.14-11.66,9.81Zm29.86,11.82,12-10.09c4.91-4.14,6.59-8.44,2.6-13.18-3.26-3.87-7.65-4.26-13.29.49l-12,10.09Z"/><path class="cls-1" d="M351.55,188.47l-30,17.77,7.25,12.23,33.33-19.77L366.85,210,322,236.64l-31.86-53.71,44.63-26.47L341,166.9l-31.59,18.74,6,10.17,30-17.78Z"/><path class="cls-2" d="M442.65,156.83l-33.57,9.37,3.82,13.69,37.33-10.41,1.58,12.15-50.24,14-16.79-60.14,50-13.95L438,133.25l-35.38,9.87,3.18,11.39,33.57-9.36Zm-14.08-52.37-15.43,17.1-13.32,3.71,11-15.85Z"/><path class="cls-2" d="M516,143.68c1.57,17.23-8.53,33.68-31.15,35.74-21.09,1.92-34.45-11.4-36.1-29.56-1.56-17.1,9.82-33.43,30.9-35.35C501.37,112.54,514.45,126.72,516,143.68Zm-51.36,4.55c1.07,11.76,7.87,20.43,20,19.32,12.53-1.13,16.39-12.14,15.47-22.25-1-11-7.24-20.1-19.83-19C468.16,127.44,463.69,137.75,464.64,148.23ZM503,166.59l20.25,11.32-7.13,10.46-23.86-13.29Z"/><path class="cls-2" d="M542.24,114.85,538.66,150c-1.34,13.22,5.25,17.26,12.88,18,8.13.83,13.92-2.12,15.25-15.17l3.58-35.13,15.08,1.54-3.63,35.62c-1.92,18.85-13.43,26.75-31.9,24.87-17.86-1.82-28.38-11.19-26.42-30.47l3.66-36Z"/><path class="cls-2" d="M615,126.72l-15.07,60.6-14.71-3.66,15.07-60.6Z"/><path class="cls-2" d="M629,129.66l30.38,11c13.65,4.95,20.23,15.14,16.05,26.69-4.35,12-15.5,16.1-29.9,10.88l-15.84-5.73-7.63,21.07-14.32-5.19Zm4.7,31.77,14.73,5.33c6,2.19,10.6,1.5,12.71-4.33,1.72-4.76-.14-8.76-7.07-11.27l-14.73-5.33Z"/><path class="cls-2" d="M718.14,210.15,687.79,193l-7,12.38,33.75,19-7.48,9.71-45.43-25.63,30.69-54.38,45.18,25.49-6,10.57-32-18-5.81,10.3,30.35,17.13Z"/><g class="cls-3"><path class="cls-4" d="M516,.5A515.66,515.66,0,0,1,716.69,991,515.66,515.66,0,0,1,315.36,41,512.3,512.3,0,0,1,516,.5m0-.5C231,0,0,231,0,516s231,516,516,516,516-231,516-516S801,0,516,0Z"/></g></g></g></svg>