<svg xmlns="http://www.w3.org/2000/svg" viewBox="0 0 1032.05 1032.05"><defs><style>.cls-1{fill:#fff;}.cls-2{fill:none;stroke:#fff;stroke-miterlimit:10;stroke-width:1.5px;}.cls-3{opacity:0;}.cls-4{fill:#1d1d1b;}</style></defs><g id="Calque_2" data-name="Calque 2"><g id="Calque_4" data-name="Calque 4"><path class="cls-1" d="M802.57,288.78c-11.76,6.69-27.71,7.8-44.08-8.89-18.64-19-14.49-41.07,0-55.32s37.69-17.14,56.09,1.62c16,16.29,14.89,33.3,7.52,43.58L809.32,256.7c2-4.08,4-11.75-4.85-20.83-9.76-10-22.4-7.69-32.11,1.83s-13.58,22.59-3.31,33.06c7.42,7.56,13.62,8,20.78,5Z"/><path class="cls-1" d="M858.44,352.06c-17.57,10.84-40.51,8.81-54.73-14.25-13.27-21.5-6.16-42.85,12.35-54.27,17.43-10.76,40.92-7.29,54.18,14.19C883.9,319.87,875.73,341.39,858.44,352.06Zm-32.18-52.42c-12,7.4-17.63,19.27-10,31.63,7.88,12.76,21.68,11,32,4.68,11.23-6.93,17.61-18.43,9.69-31.26C850.33,292.35,836.94,293.05,826.26,299.64Z"/><path class="cls-1" d="M827.17,374.35l70.64-23.68,6.81,20.3c-23.64,30-32,41.61-38.92,48.86l.07.2c7.18-3.18,20.44-7.51,32.06-11.41l17.45-5.85,5.26,15.71L849.9,442.16l-6.38-19c8.29-10.18,35.83-44.56,42.49-51.47l-.07-.2c-8.52,3.52-18.56,6.88-31.11,11.09l-22.39,7.5Z"/><path class="cls-1" d="M912.5,460.93l-3-26.05,14.3-1.66,8.13,70-14.31,1.66-3-26-59.7,6.94-2.09-18Z"/><path class="cls-1" d="M873.4,519.39l-16.49-7.48L858,493.34l72.61,34.34-1.37,23.15L853,577.93l1.15-19.52,17.29-5.92Zm12.81,28.91c17.46-5.91,26.34-8.77,32.13-10.22V538c-5.47-2-16.55-6.61-30.76-13.06Z"/><path class="cls-1" d="M856.1,650.62c-11.68-6.82-20.64-20.07-14.4-42.6,7.1-25.66,28.28-33.13,47.89-27.7s33.72,24,26.71,49.35c-6.09,22-21.35,29.58-33.94,28.35l4.89-17.64c4.51-.34,12.2-2.39,15.59-14.64,3.71-13.43-4.58-23.24-17.68-26.87s-26.35-.43-30.27,13.71c-2.82,10.21-.09,15.8,6.06,20.51Z"/><path class="cls-1" d="M876.2,690.64l11.95-23.34L901,673.86l-32.11,62.71L856,730,868,706.75l-53.5-27.4,8.25-16.1Z"/><path class="cls-2" d="M744.61,801.5c-6.74-11.72-7.93-27.67,8.69-44.12,18.92-18.73,41-14.68,55.32-.22s17.32,37.61-1.36,56.1C791,829.32,774,828.31,763.72,821l13-12.88c4.09,1.95,11.78,4,20.81-5,9.9-9.8,7.59-22.44-2-32.1s-22.65-13.48-33.07-3.16c-7.53,7.45-8,13.66-4.94,20.81Z"/><path class="cls-2" d="M681.58,857.67c-10.92-17.53-9-40.47,14-54.8C717,789.5,738.4,796.52,749.91,815c10.84,17.39,7.49,40.89-13.95,54.25C713.89,883,692.33,874.91,681.58,857.67Zm52.27-32.42c-7.45-12-19.35-17.54-31.67-9.86-12.73,7.94-10.94,21.73-4.53,32,7,11.2,18.51,17.53,31.31,9.56C741.26,849.28,740.49,835.9,733.85,825.25Z"/><path class="cls-2" d="M659.16,826.5l24,70.53-20.27,6.9c-30.11-23.5-41.76-31.82-49-38.7l-.19.07c3.2,7.17,7.59,20.41,11.54,32l5.94,17.42-15.69,5.34-24-70.53,19-6.47c10.22,8.25,44.72,35.62,51.66,42.25l.2-.07c-3.55-8.5-7-18.53-11.23-31.06l-7.61-22.35Z"/><path class="cls-2" d="M573,912.24l26-3.15,1.73,14.29-69.93,8.46-1.73-14.3,25.94-3.13-7.22-59.67,18-2.17Z"/><path class="cls-2" d="M514.33,873.42l7.41-16.54,18.57,1-34,72.77-23.15-1.25L455.69,853.3l19.53,1.06,6,17.26Zm-28.85,12.94c6,17.43,8.89,26.3,10.37,32.08h.1c2-5.48,6.53-16.58,12.92-30.82Z"/><path class="cls-2" d="M383,856.72C389.8,845,403,836,425.57,842.13c25.68,7,33.25,28.12,27.91,47.76s-23.86,33.83-49.22,26.94c-22-6-29.68-21.22-28.51-33.81l17.67,4.8c.35,4.52,2.44,12.19,14.71,15.52,13.44,3.66,23.21-4.68,26.78-17.8s.31-26.35-13.84-30.2c-10.23-2.78-15.8,0-20.49,6.16Z"/><path class="cls-2" d="M343.08,877l23.4,11.84L360,901.7l-62.86-31.81L303.63,857l23.31,11.8,27.15-53.63,16.14,8.17Z"/><path class="cls-1" d="M231.63,746c11.69-6.8,27.63-8.06,44.16,8.47,18.82,18.83,14.87,40.94.48,55.32s-37.53,17.5-56.11-1.09c-16.13-16.15-15.2-33.17-7.92-43.51l12.94,13c-1.94,4.09-3.94,11.79,5,20.78,9.84,9.86,22.47,7.48,32.08-2.13s13.37-22.71,3-33.09c-7.5-7.49-13.7-7.88-20.84-4.84Z"/><path class="cls-1" d="M175.16,683.18c17.47-11,40.42-9.19,54.86,13.74,13.47,21.38,6.56,42.79-11.85,54.39-17.33,10.92-40.85,7.67-54.32-13.69C150,715.61,158,694,175.16,683.18Zm32.66,52.12c11.92-7.51,17.45-19.44,9.71-31.72-8-12.69-21.78-10.84-32-4.38-11.17,7-17.45,18.59-9.41,31.35C183.82,742.82,197.2,742,207.82,735.3Z"/><path class="cls-1" d="M206.23,660.63,135.82,685l-7-20.23c23.36-30.22,31.61-41.91,38.46-49.22l-.07-.2c-7.16,3.25-20.37,7.7-32,11.71l-17.4,6-5.41-15.66L182.86,593l6.56,19c-8.19,10.26-35.4,44.89-42,51.86l.07.2c8.49-3.59,18.5-7,31-11.38L200.81,645Z"/><path class="cls-1" d="M120.08,574.87l3.27,26-14.28,1.79-8.79-69.9L114.56,531l3.26,25.93,59.64-7.5,2.26,18Z"/><path class="cls-1" d="M158.62,516l16.57,7.33-.92,18.57-72.93-33.66,1.15-23.16,76-27.81-1,19.53-17.23,6.08Zm-13.08-28.79c-17.39,6.08-26.26,9-32,10.52v.1c5.48,2,16.6,6.46,30.87,12.77Z"/><path class="cls-1" d="M174.7,384.65c11.75,6.71,20.82,19.87,14.8,42.46-6.87,25.72-28,33.38-47.63,28.13s-33.94-23.71-27.17-49.1c5.89-22,21.08-29.77,33.68-28.65l-4.72,17.68c-4.52.38-12.18,2.5-15.46,14.78-3.59,13.46,4.79,23.19,17.93,26.7s26.35.19,30.13-14c2.73-10.24,0-15.8-6.25-20.45Z"/><path class="cls-1" d="M154.24,344.77l-11.73,23.45-12.88-6.45,31.53-63L174,305.22l-11.69,23.37,53.74,26.89L208,371.66Z"/><path class="cls-2" d="M284.75,232.72c6.86,11.66,8.19,27.59-8.27,44.2-18.74,18.9-40.86,15.06-55.31.73s-17.67-37.44.83-56.1c16.06-16.21,33.09-15.36,43.46-8.13l-12.88,13c-4.1-1.92-11.81-3.89-20.76,5.14-9.81,9.9-7.37,22.51,2.29,32.08s22.77,13.26,33.09,2.85c7.46-7.53,7.82-13.74,4.75-20.86Z"/><path class="cls-2" d="M347.27,176c11.09,17.41,9.38,40.37-13.48,54.92-21.31,13.56-42.76,6.75-54.44-11.6-11-17.29-7.86-40.82,13.44-54.38C314.74,150.94,336.36,158.82,347.27,176Zm-52,32.9c7.56,11.88,19.51,17.36,31.76,9.56,12.66-8,10.74-21.83,4.24-32-7.09-11.14-18.68-17.36-31.4-9.27C287.68,184.89,288.57,198.26,295.31,208.86Z"/><path class="cls-2" d="M370,206.91l-24.67-70.3,20.2-7.09c30.33,23.21,42.06,31.42,49.4,38.23l.2-.07c-3.27-7.14-7.79-20.33-11.85-31.9l-6.1-17.37,15.63-5.48,24.68,70.3-18.94,6.64c-10.3-8.14-45.06-35.19-52.06-41.75l-.2.07c3.63,8.47,7.14,18.47,11.52,30.95l7.83,22.29Z"/><path class="cls-2" d="M455.32,120.36l-26,3.4-1.87-14.28,69.85-9.12,1.86,14.28L473.26,118l7.78,59.6L463.1,180Z"/><path class="cls-2" d="M514.33,158.63l-7.25,16.6-18.58-.83,33.31-73.09,23.16,1,28.18,75.84-19.53-.88-6.16-17.2Zm28.73-13.22c-6.17-17.37-9.15-26.22-10.68-32h-.11c-1.91,5.49-6.37,16.63-12.62,30.93Z"/><path class="cls-2" d="M645.79,174.1c-6.66,11.77-19.78,20.91-42.4,15-25.74-6.75-33.5-27.82-28.35-47.5s23.55-34,49-27.39c22.08,5.78,29.87,20.94,28.82,33.54l-17.7-4.64c-.41-4.51-2.56-12.17-14.86-15.39-13.48-3.53-23.17,4.9-26.61,18s-.07,26.35,14.11,30.07c10.25,2.68,15.8-.12,20.43-6.34Z"/><path class="cls-2" d="M685.56,153.44l-23.51-11.63,6.39-12.9,63.14,31.22L725.2,173l-23.42-11.59-26.64,53.88-16.22-8Z"/><g class="cls-3"><path class="cls-4" d="M516,.5A515.66,515.66,0,0,1,716.69,991,515.66,515.66,0,0,1,315.36,41,512.3,512.3,0,0,1,516,.5m0-.5C231,0,0,231,0,516s231,516,516,516,516-231,516-516S801,0,516,0Z"/></g></g></g></svg>