<svg xmlns="http://www.w3.org/2000/svg" viewBox="0 0 1042.46 1042.45"><defs><style>.cls-1{fill:#fff;}.cls-2{fill:none;stroke:#fff;stroke-miterlimit:10;stroke-width:1.5px;}</style></defs><g id="Calque_2" data-name="Calque 2"><g id="Calque_4" data-name="Calque 4"><path class="cls-1" d="M764.58,258.31l-17.47,7.5-13.62-14,78-32,17,17.43-32.89,78.27-14.32-14.7,7.63-17.59Zm31.47,10.51c7.76-17.71,11.83-26.62,14.8-32.13l-.08-.08c-5.41,2.83-16.82,8.15-31.87,14.61Z"/><path class="cls-1" d="M854,366.22c-13.61,4-30.17,1.38-42.93-19.58-14.53-23.86-5-45.42,13.21-56.53s42.59-8.55,56.93,15c12.46,20.45,7.3,37.58-2.68,46.33l-10-16.41c3-3.7,6.93-11.05,0-22.45-7.6-12.48-21.06-13.18-33.25-5.76S816,326.68,824,339.82c5.79,9.5,12,11.43,20,10.1Z"/><path class="cls-1" d="M880.68,446.4c-14.17.83-29.69-5.53-37.34-28.85-8.71-26.54,5.45-45.37,25.74-52s43.43,1.39,52,27.59c7.46,22.76-1.47,38.26-13.18,44.5l-6-18.25c3.74-2.92,9.27-9.18,5.11-21.86-4.56-13.89-17.51-17.64-31.06-13.19s-23.28,14.94-18.48,29.56c3.46,10.57,9.1,13.86,17.21,14.4Z"/><path class="cls-1" d="M936.5,468.23l-44,3.73c-16.57,1.4-20,10.45-19.21,20,.87,10.19,5.83,16.63,22.2,15.24l44-3.73,1.6,18.91-44.66,3.78c-23.63,2-36-10.33-38-33.47-1.9-22.4,7.19-37.52,31.37-39.57l45.08-3.82Z"/><path class="cls-1" d="M886.43,603.44l6-43.22-17.63-2.43-6.61,48.07-14.76-4.24,8.91-64.7,77.45,10.66-8.86,64.36-15-2.07,6.27-45.56-14.67-2-5.95,43.23Z"/><path class="cls-1" d="M920.15,647.09l-75.09-21.78,5.28-18.22,75.09,21.77Z"/><path class="cls-1" d="M914.05,667.25l-7.72,17.32-57.5-25.67-17.84,40-12.87-8.47,24.55-55Z"/><path class="cls-2" d="M777.87,771.17l-7-17.65,14.32-13.26,30,78.75-17.85,16.54-77.4-34.88L735,786.73l17.38,8.09Zm-11.3,31.2c17.51,8.2,26.31,12.49,31.75,15.6l.08-.07c-2.69-5.48-7.73-17-13.8-32.23Z"/><path class="cls-2" d="M667.78,857.8c-3.69-13.71-.62-30.2,20.65-42.43,24.22-13.93,45.54-3.9,56.18,14.62s7.48,42.8-16.43,56.54c-20.76,11.94-37.75,6.35-46.24-3.84l16.65-9.58c3.62,3.08,10.87,7.21,22.44.56,12.67-7.29,13.71-20.73,6.59-33.1s-19.36-19.74-32.7-12.07c-9.64,5.54-11.72,11.73-10.59,19.78Z"/><path class="cls-2" d="M587,882.46c-.47-14.19,6.28-29.54,29.78-36.6,26.76-8,45.22,6.6,51.36,27.06s-2.48,43.37-28.9,51.3c-22.93,6.88-38.2-2.43-44.14-14.3l18.4-5.52c2.82,3.82,8.94,9.5,21.71,5.66,14-4.2,18.08-17,14-30.71s-14.35-23.65-29.08-19.22c-10.65,3.2-14.09,8.74-14.84,16.84Z"/><path class="cls-2" d="M563.71,937.71l-2.61-44.12c-1-16.6-9.94-20.28-19.53-19.71-10.21.6-16.77,5.4-15.8,21.8l2.61,44.12-18.94,1.12-2.65-44.74c-1.4-23.68,11.24-35.75,34.44-37.12,22.43-1.33,37.31,8.15,38.75,32.37l2.67,45.16Z"/><path class="cls-2" d="M429.83,884.24l43.06,7,2.86-17.56-47.88-7.82,4.61-14.64,64.45,10.52-12.6,77.16-64.12-10.47,2.45-15,45.39,7.42,2.39-14.62-43.06-7Z"/><path class="cls-2" d="M385.33,916.84,409,842.33l18.08,5.74-23.65,74.51Z"/><path class="cls-2" d="M365.26,910.24l-17.11-8.17,27.13-56.84-39.51-18.85,8.8-12.65,54.37,25.95Z"/><path class="cls-1" d="M281.76,787.7,299.11,780l13.83,13.77-77.49,33.15L218.22,809.7,250,731l14.53,14.48-7.38,17.7Zm-31.62-10c-7.5,17.82-11.43,26.79-14.32,32.34l.08.08c5.36-2.91,16.69-8.4,31.65-15.08Z"/><path class="cls-1" d="M190.79,681.08c13.55-4.24,30.15-1.82,43.21,19,14.88,23.64,5.69,45.34-12.38,56.71s-42.48,9.17-57.16-14.18c-12.75-20.27-7.83-37.47,2-46.36l10.22,16.26c-2.93,3.74-6.77,11.15.33,22.44,7.79,12.38,21.26,12.88,33.34,5.29s19-20.13,10.77-33.16c-5.92-9.41-12.18-11.25-20.19-9.8Z"/><path class="cls-1" d="M162.92,601.34c14.16-1,29.77,5.1,37.76,28.3,9.1,26.4-4.78,45.44-25,52.4s-43.44-.75-52.42-26.82c-7.8-22.64.9-38.27,12.52-44.68l6.25,18.16c-3.7,3-9.13,9.31-4.79,21.92C142,664.44,155,668,168.52,663.36s23-15.28,18-29.83c-3.62-10.52-9.3-13.73-17.43-14.15Z"/><path class="cls-1" d="M106.77,580.32l44-4.38c16.54-1.65,19.86-10.74,18.91-20.3-1-10.18-6.07-16.55-22.42-14.92l-44,4.38-1.88-18.88,44.6-4.44c23.6-2.35,36.18,9.8,38.48,32.91,2.22,22.37-6.64,37.62-30.79,40l-45,4.48Z"/><path class="cls-1" d="M154.85,444.38l-5.31,43.31,17.66,2.17,5.9-48.16,14.82,4-8,64.82L102.37,501l7.91-64.47,15.08,1.85L119.76,484l14.7,1.81,5.31-43.31Z"/><path class="cls-1" d="M120.51,401.24l75.4,20.68-5,18.3-75.4-20.69Z"/><path class="cls-1" d="M126.32,380.93l7.48-17.42,57.87,24.82,17.26-40.22,13,8.28-23.75,55.36Z"/><path class="cls-2" d="M260.94,275.07l7.31,17.55-14.12,13.47L223,227.78,240.55,211l77.92,33.73-14.85,14.16-17.5-7.82Zm10.84-31.36c-17.63-7.94-26.5-12.1-32-15.13l-.08.07c2.77,5.44,8,16.91,14.28,32Z"/><path class="cls-2" d="M369.78,186.84c3.9,13.66,1.06,30.19-20,42.73-24,14.28-45.48,4.55-56.39-13.8S285.26,173.08,309,159c20.59-12.23,37.66-6.89,46.3,3.18L338.76,172c-3.67-3-11-7.06-22.45-.24-12.57,7.47-13.41,20.93-6.12,33.19s19.65,19.47,32.88,11.61c9.56-5.69,11.55-11.9,10.31-19.94Z"/><path class="cls-2" d="M450.26,161c.68,14.18-5.85,29.63-29.25,37-26.63,8.42-45.31-5.94-51.75-26.3s1.85-43.41,28.15-51.72c22.83-7.22,38.24,1.87,44.35,13.65l-18.31,5.79c-2.88-3.78-9.08-9.37-21.8-5.35-13.94,4.41-17.83,17.32-13.53,30.92s14.69,23.43,29.36,18.79c10.6-3.35,14-8.94,14.59-17.06Z"/><path class="cls-2" d="M472.67,105.42l3.25,44.08c1.22,16.58,10.23,20.13,19.81,19.42,10.2-.75,16.7-5.65,15.49-22L508,102.81l18.92-1.4,3.3,44.7c1.75,23.65-10.72,35.91-33.88,37.62-22.42,1.66-37.44-7.6-39.22-31.8l-3.34-45.12Z"/><path class="cls-2" d="M607.34,156.93l-43.15-6.41-2.62,17.6,48,7.13L605.17,190l-64.59-9.59L552.06,103l64.25,9.54-2.23,15-45.49-6.75-2.17,14.64,43.15,6.41Z"/><path class="cls-2" d="M651.29,123.66l-22.56,74.85L610.57,193l22.55-74.85Z"/><path class="cls-2" d="M671.46,130l17.23,7.91-26.28,57.23,39.77,18.26-8.61,12.78L638.83,201Z"/></g></g></svg>