<?xml version="1.0" encoding="UTF-8"?><svg id="Calque_2" xmlns="http://www.w3.org/2000/svg" viewBox="0 0 1032 1032"><defs><style>.cls-1{fill:#fff;}.cls-2{fill:none;stroke:#fff;stroke-miterlimit:10;}.cls-3{opacity:0;}.cls-4{fill:#1d1d1b;}</style></defs><g id="Calque_1-2"><g><g id="Calque_2-2"><g id="Calque_4"><g class="cls-3"><path class="cls-4" d="M516,.5c284.79,.21,515.49,231.26,515.27,516.05-.16,206.95-124.02,393.76-314.58,474.45-263.13,108.94-564.75-16.07-673.69-279.2C-64.83,451.34,56.48,152.57,315.36,41,378.83,14.14,447.08,.37,516,.5m0-.5C231,0,0,231,0,516s231,516,516,516,516-231,516-516S801,0,516,0Z"/></g></g></g><g><path class="cls-2" d="M234.65,342.3l-60.59-47.13,16.42-21.11c22.73,3.91,45.28,8.04,55,10.9l.22-.29c-6.61-4.11-17.49-12.43-27.28-20.05l-12.84-9.98,12.51-16.09,60.59,47.13-15.59,20.05c-14.35-2.89-48.39-9.15-58.45-12.1l-.19,.24c6.39,4.09,17.33,12.5,28.3,21.03l14.45,11.24-12.55,16.14Z"/><path class="cls-2" d="M308.62,220.42l-28.29,23.55,9.25,11.12,31.55-26.26,8.71,14.43-46.34,38.58-49.11-58.99,46.33-38.56,10.67,12.81-29.59,24.63,7.86,9.44,28.29-23.55,10.67,12.81Z"/><path class="cls-2" d="M343.61,234l-50.27-61.12,21.33-10.1c16.07,22.19,25.23,35.05,31.66,45.96l.25-.12c-4.15-15.91-8.52-37.23-12.42-55.07l18.12-8.58c10.05,12.53,24.82,30.74,34.03,43.9l.27-.13c-5.06-15.48-11.09-40.57-14.46-53.17l19.68-9.33,14.51,78.06-20.93,9.91c-10.24-12.98-23.05-28.66-31.85-40.51l-.21,.1c3.73,14.07,7.88,34.65,11.19,50.3l-20.9,9.9Z"/><path class="cls-2" d="M436.33,172.99c2.62,5.99,7.73,8.17,15.81,6.62,7.48-1.44,10.03-4.53,9.2-8.86-.93-4.83-4.49-6.28-17.62-6.6-24.59-.64-30.6-8.22-32.54-18.3-2.58-13.39,6.24-25.29,26.68-29.23,22.59-4.35,33.76,5.18,37.02,16.5l-21.44,4.13c-1.41-3.75-4.33-7.51-12.86-5.87-5.67,1.09-8.49,3.76-7.71,7.82,.78,4.03,3.98,5.12,16.25,5.51,25.6,.82,32.1,8.36,34.19,19.25,2.73,14.17-6.49,26.28-29.36,30.68-21.8,4.2-34.73-3.62-39.32-17.49l21.7-4.18Z"/><path class="cls-1" d="M526.12,185.49l10.72-76.01,26.48,3.73c7.92,21.66,15.56,43.28,17.91,53.12l.36,.05c.27-7.78,2.08-21.35,3.81-33.64l2.27-16.1,20.18,2.84-10.71,76.01-25.15-3.55c-4.64-13.88-16.15-46.52-18.6-56.71l-.3-.04c-.36,7.58-2.22,21.26-4.16,35.01l-2.56,18.13-20.25-2.85Z"/><path class="cls-1" d="M668.71,188.82l-34.54-12.73-5,13.58,38.52,14.2-8.14,14.76-56.58-20.85,26.55-72.03,56.57,20.85-5.77,15.64-36.12-13.31-4.25,11.53,34.54,12.73-5.77,15.64Z"/><path class="cls-1" d="M674.47,225.86l27.87-74.07,19.4,13.44c-11.2,25-17.78,39.36-24.02,50.37l.23,.16c11.71-11.54,28.01-25.96,41.52-38.25l16.48,11.42c-5.85,14.96-14.25,36.85-21.06,51.4l.25,.17c10.89-12.12,29.61-29.86,38.86-39.07l17.91,12.4-60.4,51.54-19.04-13.19c6.13-15.36,13.33-34.28,19.2-47.82l-.19-.13c-10.33,10.26-26.09,24.13-38,34.8l-19.02-13.17Z"/><path class="cls-1" d="M773.54,275.76c-3.89,5.25-3.24,10.77,2.13,17,4.97,5.77,8.93,6.44,12.26,3.57,3.72-3.21,3.21-7.02-3.06-18.57-11.69-21.64-8.11-30.62-.33-37.33,10.33-8.9,25.04-7.18,38.63,8.58,15.02,17.42,12.33,31.86,4.12,40.32l-14.26-16.54c2.54-3.09,4.36-7.49-1.31-14.07-3.77-4.37-7.49-5.49-10.62-2.79-3.11,2.68-2.46,6,3.31,16.84,12.04,22.61,8.73,32,.33,39.24-10.93,9.42-26.02,7.45-41.23-10.18-14.5-16.81-14.16-31.92-4.42-42.8l14.43,16.73Z"/><path class="cls-2" d="M807.47,359.91l71.16-28.78,10.02,24.79c-14.78,17.7-29.67,35.14-37.02,42.1l.14,.33c6.87-3.66,19.52-8.89,31.02-13.54l15.08-6.1,7.64,18.89-71.16,28.78-9.52-23.54c9.7-10.97,32.18-37.27,39.78-44.49l-.11-.28c-6.74,3.48-19.51,8.72-32.39,13.93l-16.97,6.86-7.67-18.95Z"/><path class="cls-2" d="M875.87,485.01l-6.21-36.29-14.26,2.44,6.93,40.47-16.85,.31-10.17-59.44,75.66-12.95,10.17,59.42-16.43,2.81-6.49-37.95-12.11,2.07,6.21,36.29-16.43,2.81Z"/><path class="cls-2" d="M846.61,508.49l78.11-12.68-2,23.51c-27.26,2.72-42.99,4.16-55.64,4.23l-.02,.28c15.83,4.42,36.45,11.37,53.84,16.98l-1.7,19.98c-15.89,2.37-39.05,5.97-55.06,7.31l-.03,.3c15.93,3.42,40.64,10.83,53.22,14.27l-1.85,21.7-74.76-26.75,1.97-23.08c16.37-2.32,36.37-5.5,51.03-7.14l.02-.23c-14.04-3.86-33.91-10.63-49.09-15.64l1.96-23.05Z"/><path class="cls-2" d="M852.66,619.28c-6.49-.75-10.95,2.58-13.66,10.34-2.51,7.19-1.12,10.95,3.04,12.41,4.64,1.62,7.68-.73,14.55-11.92,12.9-20.94,22.47-22.33,32.17-18.94,12.87,4.5,18.73,18.1,11.87,37.75-7.58,21.71-21.43,26.59-32.86,23.72l7.2-20.61c3.95,.66,8.67,.03,11.53-8.17,1.9-5.45,1.01-9.23-2.89-10.59-3.87-1.35-6.43,.87-12.93,11.28-13.56,21.72-23.35,23.55-33.82,19.89-13.62-4.76-19.46-18.81-11.78-40.8,7.32-20.96,20.57-28.21,34.87-25.21l-7.29,20.86Z"/><path class="cls-1" d="M796.82,690.73l60.43,47.33-16.49,21.05c-22.71-3.99-45.25-8.2-54.96-11.09l-.22,.28c6.6,4.13,17.44,12.49,27.21,20.14l12.8,10.03-12.57,16.04-60.43-47.33,15.66-20c14.34,2.94,48.35,9.31,58.41,12.3l.19-.24c-6.38-4.11-17.29-12.56-28.23-21.13l-14.42-11.29,12.61-16.09Z"/><path class="cls-1" d="M722.44,812.36l28.37-23.46-9.22-11.15-31.64,26.16-8.66-14.46,46.48-38.42,48.91,59.16-46.46,38.41-10.62-12.85,29.67-24.53-7.83-9.47-28.37,23.46-10.62-12.85Z"/><path class="cls-1" d="M687.47,798.67l50.05,61.3-21.36,10.03c-15.99-22.24-25.1-35.14-31.49-46.07l-.25,.12c4.09,15.92,8.39,37.26,12.22,55.11l-18.15,8.52c-10-12.57-24.71-30.83-33.87-44.02l-.27,.13c5.01,15.5,10.95,40.6,14.27,53.22l-19.72,9.26-14.23-78.11,20.96-9.84c10.2,13.02,22.95,28.74,31.71,40.62l.21-.1c-3.68-14.09-7.76-34.68-11.01-50.34l20.94-9.83Z"/><path class="cls-1" d="M594.58,859.35c-2.59-6-7.7-8.2-15.78-6.67-7.49,1.41-10.05,4.5-9.23,8.82,.91,4.83,4.47,6.29,17.6,6.66,24.58,.72,30.57,8.32,32.47,18.41,2.53,13.4-6.33,25.27-26.78,29.14-22.6,4.27-33.74-5.29-36.96-16.63l21.45-4.06c1.4,3.75,4.3,7.53,12.84,5.91,5.67-1.07,8.5-3.73,7.73-7.8-.76-4.03-3.96-5.13-16.23-5.57-25.6-.9-32.07-8.47-34.13-19.37-2.68-14.18,6.58-26.25,29.46-30.58,21.82-4.12,34.72,3.74,39.26,17.62l-21.71,4.1Z"/><path class="cls-2" d="M504.8,846.55l-10.97,75.97-26.47-3.82c-7.85-21.68-15.41-43.33-17.73-53.19l-.36-.05c-.3,7.78-2.15,21.35-3.92,33.63l-2.32,16.1-20.17-2.91,10.97-75.97,25.14,3.63c4.59,13.9,15.99,46.58,18.41,56.78l.3,.04c.39-7.58,2.29-21.25,4.27-35l2.62-18.12,20.24,2.92Z"/><path class="cls-2" d="M362.26,842.74l34.5,12.85,5.05-13.56-38.47-14.33,8.19-14.73,56.51,21.04-26.79,71.93-56.49-21.04,5.82-15.62,36.08,13.43,4.29-11.51-34.5-12.85,5.82-15.62Z"/><path class="cls-2" d="M356.61,805.67l-28.12,73.97-19.36-13.5c11.29-24.96,17.91-39.3,24.19-50.29l-.23-.16c-11.75,11.5-28.09,25.87-41.65,38.11l-16.44-11.47c5.9-14.94,14.38-36.8,21.23-51.33l-.25-.17c-10.93,12.08-29.72,29.76-38.99,38.94l-17.86-12.46,60.57-51.33,18.99,13.25c-6.18,15.34-13.44,34.24-19.36,47.76l.19,.13c10.37-10.22,26.17-24.04,38.12-34.67l18.97,13.23Z"/><path class="cls-2" d="M257.71,755.44c3.91-5.24,3.28-10.76-2.08-17.01-4.96-5.79-8.91-6.47-12.25-3.61-3.73,3.2-3.23,7.01,2.99,18.58,11.62,21.68,8.01,30.65,.21,37.33-10.36,8.87-25.07,7.1-38.61-8.71-14.96-17.47-12.22-31.9-3.99-40.33l14.2,16.58c-2.55,3.08-4.38,7.48,1.27,14.08,3.75,4.38,7.47,5.51,10.61,2.82,3.11-2.67,2.48-5.99-3.25-16.85-11.97-22.65-8.63-32.03-.2-39.24,10.96-9.39,26.05-7.37,41.19,10.32,14.44,16.86,14.05,31.97,4.27,42.82l-14.37-16.78Z"/><path class="cls-1" d="M224.07,671.18l-71.26,28.54-9.94-24.82c14.84-17.65,29.79-35.04,37.16-41.98l-.13-.34c-6.88,3.64-19.55,8.83-31.07,13.44l-15.1,6.05-7.58-18.92,71.26-28.54,9.44,23.58c-9.73,10.94-32.31,37.16-39.93,44.36l.11,.28c6.75-3.46,19.54-8.66,32.44-13.82l17-6.81,7.6,18.98Z"/><path class="cls-1" d="M156.1,545.81l6.08,36.31,14.27-2.39-6.78-40.49,16.85-.25,9.96,59.47-75.7,12.68-9.96-59.45,16.44-2.75,6.36,37.97,12.11-2.03-6.08-36.31,16.44-2.75Z"/><path class="cls-1" d="M185.44,522.46l-78.16,12.42,2.08-23.51c27.27-2.63,43-4.02,55.66-4.04l.03-.28c-15.82-4.47-36.42-11.5-53.78-17.17l1.77-19.97c15.9-2.32,39.08-5.84,55.09-7.12l.03-.3c-15.92-3.47-40.6-10.97-53.18-14.45l1.92-21.7,74.67,27-2.04,23.07c-16.38,2.27-36.39,5.38-51.06,6.97l-.02,.23c14.03,3.91,33.87,10.74,49.05,15.81l-2.04,23.04Z"/><path class="cls-1" d="M179.75,411.66c6.49,.77,10.96-2.54,13.7-10.3,2.54-7.18,1.16-10.95-2.99-12.42-4.63-1.64-7.69,.7-14.6,11.88-12.97,20.9-22.55,22.25-32.23,18.83-12.86-4.54-18.67-18.17-11.75-37.79,7.66-21.69,21.52-26.52,32.94-23.61l-7.27,20.59c-3.95-.67-8.67-.06-11.56,8.13-1.92,5.44-1.04,9.23,2.86,10.6,3.87,1.36,6.43-.85,12.97-11.24,13.64-21.68,23.43-23.47,33.89-19.78,13.6,4.8,19.4,18.88,11.64,40.84-7.39,20.94-20.67,28.14-34.95,25.1l7.36-20.84Z"/></g></g></g></svg>