<svg xmlns="http://www.w3.org/2000/svg" viewBox="0 0 1032.05 1032.05"><defs><style>.cls-1{fill:#fff;}.cls-2{fill:none;stroke:#fff;stroke-miterlimit:10;stroke-width:1.5px;}.cls-3{opacity:0;}.cls-4{fill:#1d1d1b;}</style></defs><g id="Calque_2" data-name="Calque 2"><g id="Calque_4" data-name="Calque 4"><path class="cls-1" d="M752.79,251.62c-2.88,5.78-2.24,12.1,6.12,20.41,7.83,7.78,12.48,7.64,15.7,4.39,3.46-3.47,3.08-7.74-5.75-20.09-14.51-20.36-12-29.19-5.33-35.95,10-10.06,24.79-5.58,36.7,6.26,17.29,17.18,13.15,30.73,7.9,37.15l-12.24-12.16c1.77-3.2,3.41-8.21-4.9-16.47-5.82-5.79-10.62-6.87-13.85-3.61-2.89,2.91-2.27,6.43,5.5,17.53,15.72,22.46,13,31.21,5.71,38.51-8.67,8.74-22.53,9-39.43-7.81-15.76-15.66-15.87-29.74-8.38-40.33Z"/><path class="cls-1" d="M832,334.79l-22.4-32.7-13.34,9.14,24.91,36.36-12.51,6.16-33.53-48.94,58.6-40.14,33.34,48.69-11.38,7.8-23.61-34.47-11.1,7.6,22.4,32.7Z"/><path class="cls-1" d="M842.18,361.92,817,372.73l-6.74-15.67L875.55,329l15.27,35.53c6.47,15,2.75,26.85-8.47,31.67-8.42,3.62-15.49.86-20.31-4.72.09,3.12.54,11.23-11.18,16.27l-3.26,1.4c-4.47,1.92-9.53,4-12.22,6.23l-7-16.25c2.4-2.33,6.2-4.11,13.13-7.09l2.14-.92c6.6-2.84,8.31-6.44,4.22-15.95Zm11.88-5.11,7,16.32c3.3,7.69,7.51,9.83,13,7.46,5.16-2.21,6.61-6.88,3.4-14.35l-7.07-16.46Z"/><path class="cls-1" d="M840.25,438.55,904,395.86l3.86,18.68-30.59,19.07c-11.58,7.2-17.91,10.55-22.09,12.67l0,.2c4.24.26,7.38.62,26.72,3.43l34.3,5.27,3.72,18.05-75.5-14.49Z"/><path class="cls-1" d="M920,498.63l-70.88,4.54L848,486l70.88-4.54Z"/><path class="cls-1" d="M867.41,582.27c-12.15-4.33-22.88-15.16-21-37.37,2.13-25.29,20.66-36,40-34.39s35.82,16.57,33.72,41.53c-1.83,21.68-14.8,31.48-26.81,32.54l1.47-17.38c4.17-1.12,11-4.39,12-16.47,1.12-13.23-8.38-21-21.3-22.05s-24.76,4.24-25.94,18.17c-.85,10.06,2.69,14.82,9.29,18.15Z"/><path class="cls-1" d="M857.14,643.84,868,605.73l-15.54-4.43-12.09,42.38L827.65,638l16.26-57,68.3,19.47L896,657.16l-13.27-3.78,11.45-40.18-12.93-3.69-10.87,38.12Z"/><path class="cls-1" d="M839.84,661.32c-6.38-1-12.2,1.56-17.56,12.06-5,9.83-3.47,14.21.61,16.29,4.35,2.23,8.3.57,17.37-11.6,15-20,24.13-20.38,32.61-16.05,12.63,6.45,12.87,21.91,5.24,36.86-11.09,21.7-25.26,21.89-33,18.86L853,702.37c3.59.7,8.85.74,14.18-9.69,3.74-7.31,3.3-12.21-.78-14.29-3.66-1.87-6.83-.21-15,10.58-16.59,21.82-25.76,21.88-34.93,17.2-11-5.6-15.43-18.73-4.6-39.94C822,646.44,835.33,642,847.7,645.94Z"/><path class="cls-2" d="M780.78,752.39c-5.79-2.87-12.1-2.22-20.4,6.16-7.77,7.84-7.62,12.48-4.37,15.7,3.48,3.45,7.74,3.06,20.08-5.78,20.34-14.54,29.18-12.09,35.95-5.38,10.07,10,5.61,24.78-6.21,36.71-17.16,17.31-30.71,13.19-37.14,8l12.15-12.26c3.2,1.77,8.21,3.4,16.46-4.92,5.78-5.83,6.85-10.63,3.59-13.86-2.92-2.89-6.44-2.26-17.52,5.52-22.44,15.76-31.2,13-38.51,5.78-8.75-8.67-9-22.53,7.75-39.45,15.64-15.78,29.73-15.91,40.33-8.44Z"/><path class="cls-2" d="M697.67,831.74l32.67-22.44L721.19,796l-36.33,25-6.18-12.5,48.9-33.59,40.21,58.54-48.64,33.41-7.82-11.37,34.44-23.66-7.61-11.08-32.68,22.44Z"/><path class="cls-2" d="M670.62,841.94l-10.85-25.12,15.66-6.76,28.15,65.2-35.51,15.33c-15,6.49-26.84,2.79-31.68-8.42-3.63-8.42-.88-15.49,4.69-20.32-3.12.1-11.23.56-16.29-11.16l-1.4-3.25c-1.93-4.47-4-9.53-6.25-12.22l16.24-7c2.33,2.4,4.12,6.2,7.11,13.12l.92,2.14c2.85,6.59,6.45,8.3,16,4.2Zm5.12,11.87-16.3,7c-7.69,3.32-9.82,7.52-7.45,13,2.23,5.15,6.9,6.6,14.36,3.38l16.45-7.1Z"/><path class="cls-2" d="M593.93,840.14,636.7,903.8,618,907.68l-19.12-30.57c-7.22-11.57-10.57-17.89-12.7-22.08l-.2,0c-.25,4.25-.61,7.39-3.39,26.74l-5.23,34.3-18,3.75,14.4-75.53Z"/><path class="cls-2" d="M534,919.93l-4.65-70.87,17.2-1.13,4.65,70.87Z"/><path class="cls-2" d="M450.27,867.5c4.31-12.16,15.13-22.9,37.34-21,25.29,2.09,36,20.6,34.43,39.93s-16.51,35.85-41.47,33.78c-21.68-1.8-31.49-14.75-32.58-26.76l17.39,1.45c1.12,4.17,4.4,11,16.48,12,13.23,1.1,20.95-8.41,22-21.33s-4.27-24.75-18.2-25.91c-10.07-.83-14.82,2.71-18.14,9.32Z"/><path class="cls-2" d="M388.67,857.31l38.14,10.81,4.41-15.55-42.4-12,5.67-12.74L451.57,844l-19.38,68.32-56.78-16.1,3.76-13.28,40.2,11.4L423,881.4l-38.13-10.82Z"/><path class="cls-2" d="M371.19,840.05c1-6.39-1.58-12.2-12.08-17.55-9.84-5-14.21-3.45-16.29.63-2.22,4.37-.56,8.31,11.62,17.36,20.06,14.94,20.42,24.1,16.1,32.59-6.43,12.64-21.89,12.91-36.85,5.29-21.72-11-21.94-25.22-18.91-32.94l15.38,7.83c-.7,3.58-.73,8.85,9.71,14.17,7.32,3.72,12.21,3.28,14.29-.81,1.86-3.66.2-6.82-10.6-15-21.85-16.56-21.92-25.73-17.25-34.91,5.58-11,18.7-15.46,39.93-4.65,19.81,10.07,24.23,23.45,20.34,35.82Z"/><path class="cls-1" d="M280,781.09c2.86-5.79,2.21-12.1-6.18-20.39-7.85-7.76-12.49-7.61-15.71-4.35-3.44,3.48-3.05,7.74,5.8,20.07,14.57,20.33,12.13,29.17,5.43,36-10,10.08-24.77,5.64-36.71-6.16-17.34-17.14-13.24-30.7-8-37.14L236.9,781.2c-1.76,3.21-3.39,8.22,4.94,16.46,5.84,5.77,10.64,6.84,13.86,3.57,2.89-2.92,2.26-6.44-5.54-17.51-15.79-22.42-13.07-31.18-5.82-38.51,8.65-8.75,22.51-9,39.46,7.71,15.8,15.62,15.94,29.7,8.48,40.31Z"/><path class="cls-1" d="M200.57,698.11l22.48,32.64,13.31-9.17-25-36.29,12.49-6.2,33.66,48.85L199,768.24l-33.48-48.6,11.37-7.83,23.7,34.4,11.08-7.63L189.2,705.94Z"/><path class="cls-1" d="M190.3,671.05l25.12-10.88,6.78,15.65L157,704.05l-15.37-35.49c-6.51-15-2.83-26.84,8.38-31.69,8.41-3.65,15.48-.9,20.32,4.66-.1-3.12-.57-11.23,11.14-16.3l3.25-1.41c4.47-1.93,9.52-4,12.21-6.26l7,16.23c-2.4,2.33-6.19,4.13-13.11,7.13l-2.14.92c-6.59,2.86-8.29,6.46-4.17,16Zm-11.86,5.13-7.06-16.29c-3.32-7.68-7.53-9.81-13-7.43-5.15,2.23-6.59,6.91-3.36,14.37l7.12,16.43Z"/><path class="cls-1" d="M192,594.42,128.44,637.3l-3.91-18.66,30.53-19.17c11.56-7.24,17.87-10.6,22.06-12.74l-.05-.2c-4.24-.24-7.38-.59-26.73-3.35L116,578l-3.77-18,75.54,14.27Z"/><path class="cls-1" d="M112.15,534.59,183,529.84l1.16,17.2-70.86,4.74Z"/><path class="cls-1" d="M164.46,450.75c12.16,4.29,22.91,15.09,21.1,37.31-2.06,25.29-20.56,36.07-39.89,34.49s-35.87-16.46-33.84-41.43c1.77-21.68,14.71-31.51,26.72-32.61l-1.42,17.39c-4.17,1.12-11,4.42-12,16.5-1.08,13.23,8.43,20.94,21.35,22s24.75-4.31,25.89-18.24c.82-10.07-2.73-14.81-9.34-18.13Z"/><path class="cls-1" d="M174.56,389.16,163.8,427.3l15.55,4.39,12-42.41,12.75,5.65L188,452l-68.35-19.29,16-56.79,13.28,3.74L137.57,419.9l12.94,3.65,10.77-38.14Z"/><path class="cls-1" d="M191.8,371.63c6.39,1,12.2-1.59,17.53-12.11,5-9.84,3.43-14.21-.65-16.28-4.37-2.22-8.31-.55-17.35,11.65C176.43,375,167.26,375.34,158.77,371c-12.65-6.42-12.94-21.87-5.35-36.84,11-21.74,25.2-22,32.92-19l-7.8,15.39c-3.59-.69-8.86-.72-14.16,9.73-3.72,7.33-3.27,12.22.82,14.29,3.67,1.86,6.83.19,15-10.62,16.53-21.88,25.71-22,34.89-17.3,11,5.57,15.48,18.68,4.71,39.93-10,19.81-23.42,24.25-35.8,20.39Z"/><path class="cls-2" d="M250.62,280.37c5.79,2.86,12.11,2.19,20.38-6.2,7.75-7.87,7.59-12.51,4.33-15.72-3.49-3.44-7.75-3-20.07,5.83-20.3,14.6-29.14,12.17-35.93,5.48-10.1-9.95-5.68-24.77,6.11-36.73,17.11-17.36,30.68-13.27,37.12-8.05l-12.11,12.29c-3.21-1.75-8.23-3.38-16.45,5-5.76,5.85-6.83,10.65-3.56,13.87,2.93,2.88,6.45,2.24,17.51-5.57,22.4-15.82,31.16-13.11,38.5-5.88,8.77,8.64,9.07,22.5-7.65,39.47-15.6,15.82-29.68,16-40.31,8.55Z"/><path class="cls-2" d="M333.49,200.82l-32.6,22.53,9.18,13.3,36.26-25.05,6.21,12.48-48.8,33.72-40.37-58.42,48.54-33.55,7.85,11.36-34.37,23.75L293,212l32.6-22.53Z"/><path class="cls-2" d="M360.54,190.53l10.92,25.09-15.64,6.81L327.49,157.3,363,141.88c15-6.53,26.83-2.86,31.7,8.34,3.66,8.4.92,15.48-4.63,20.33,3.12-.11,11.22-.59,16.31,11.11l1.41,3.25c1.95,4.46,4,9.51,6.28,12.19l-16.22,7.06c-2.33-2.39-4.14-6.19-7.14-13.1l-.93-2.14c-2.86-6.58-6.47-8.28-16-4.15Zm-5.15-11.85,16.28-7.09c7.67-3.33,9.8-7.55,7.41-13-2.24-5.14-6.91-6.58-14.37-3.34l-16.42,7.14Z"/><path class="cls-2" d="M437.2,192.12l-43-63.53,18.66-3.93,19.21,30.51c7.25,11.55,10.63,17.86,12.77,22l.2,0c.24-4.25.58-7.39,3.31-26.75l5.13-34.32,18-3.8-14.17,75.57Z"/><path class="cls-2" d="M496.92,112.16,501.76,183l-17.2,1.18-4.84-70.86Z"/><path class="cls-2" d="M580.82,164.37c-4.28,12.16-15.07,22.93-37.29,21.15-25.29-2-36.09-20.5-34.54-39.84s16.41-35.9,41.39-33.9c21.68,1.74,31.53,14.67,32.65,26.67l-17.4-1.39c-1.13-4.17-4.43-11-16.51-12-13.24-1.06-20.93,8.47-22,21.39s4.34,24.74,18.28,25.86c10.07.81,14.81-2.75,18.11-9.37Z"/><path class="cls-2" d="M642.41,174.39l-38.16-10.71-4.37,15.56,42.43,11.91-5.64,12.75-57.11-16,19.19-68.38,56.82,16-3.73,13.29-40.22-11.29L608,150.39l38.16,10.71Z"/><path class="cls-2" d="M660,191.61c-.94,6.39,1.61,12.19,12.13,17.51,9.86,5,14.22,3.41,16.29-.68,2.21-4.37.54-8.3-11.67-17.32-20.1-14.88-20.49-24-16.19-32.55,6.4-12.65,21.85-13,36.83-5.39,21.76,11,22,25.16,19,32.89L701,178.29c.69-3.59.71-8.86-9.75-14.15-7.32-3.7-12.22-3.25-14.29.85-1.85,3.66-.17,6.82,10.65,15,21.9,16.5,22,25.67,17.35,34.86-5.56,11-18.67,15.51-39.92,4.77-19.83-10-24.29-23.39-20.44-35.78Z"/><g class="cls-3"><path class="cls-4" d="M516,.5A515.66,515.66,0,0,1,716.69,991,515.66,515.66,0,0,1,315.36,41,512.3,512.3,0,0,1,516,.5m0-.5C231,0,0,231,0,516s231,516,516,516,516-231,516-516S801,0,516,0Z"/></g></g></g></svg>