<svg xmlns="http://www.w3.org/2000/svg" width="61" height="61"><g data-name="Groupe 26"><path data-name="Rectangle 16" fill="none" d="M0 0h61v61H0z"/><path data-name="Icon awesome-facebook-square" d="M50.3 5.654H10.317a5.452 5.452 0 0 0-5.452 5.45v39.985a5.452 5.452 0 0 0 5.452 5.452h15.59v-17.3h-7.156v-8.143h7.156v-6.207c0-7.059 4.2-10.959 10.64-10.959a43.353 43.353 0 0 1 6.306.55v6.929h-3.552c-3.5 0-4.591 2.172-4.591 4.4v5.288h7.813l-1.249 8.143H34.71v17.3H50.3a5.452 5.452 0 0 0 5.452-5.452V11.104a5.452 5.452 0 0 0-5.452-5.45Z" fill="#fff"/></g></svg>
