<svg xmlns="http://www.w3.org/2000/svg" width="61" height="61"><g data-name="Groupe 25"><path data-name="Rectangle 16" fill="none" d="M0 0h61v61H0z"/><path data-name="Icon awesome-instagram" d="M30.31 18.039A13.051 13.051 0 1 0 43.361 31.09 13.031 13.031 0 0 0 30.31 18.039Zm0 21.536a8.485 8.485 0 1 1 8.485-8.485 8.5 8.5 0 0 1-8.485 8.485ZM46.939 17.5a3.044 3.044 0 1 1-3.044-3.044 3.037 3.037 0 0 1 3.044 3.044Zm8.644 3.09c-.193-4.078-1.125-7.69-4.112-10.666s-6.587-3.903-10.665-4.107c-4.2-.239-16.8-.239-21 0-4.066.193-7.679 1.125-10.666 4.1s-3.91 6.588-4.114 10.666c-.239 4.2-.239 16.8 0 21 .193 4.078 1.125 7.69 4.112 10.666s6.588 3.907 10.666 4.112c4.2.239 16.8.239 21 0 4.078-.193 7.69-1.125 10.666-4.112s3.907-6.588 4.112-10.666c.239-4.2.239-16.788 0-20.991Zm-5.431 25.505a8.59 8.59 0 0 1-4.839 4.839c-3.351 1.329-11.3 1.022-15 1.022s-11.665.3-15-1.022a8.59 8.59 0 0 1-4.839-4.839c-1.329-3.351-1.022-11.3-1.022-15s-.3-11.665 1.022-15a8.59 8.59 0 0 1 4.839-4.839c3.351-1.329 11.3-1.022 15-1.022s11.665-.3 15 1.022a8.59 8.59 0 0 1 4.839 4.829c1.329 3.351 1.022 11.3 1.022 15s.309 11.67-1.022 15.01Z" fill="#fff"/></g></svg>