<svg xmlns="http://www.w3.org/2000/svg" width="61" height="61"><path data-name="Rectangle 16" fill="none" d="M0 0h61v61H0z"/><path data-name="linkedin" d="M52.117 5.654H8.488a3.651 3.651 0 0 0-3.623 3.669v43.549a3.651 3.651 0 0 0 3.623 3.669h43.629a3.66 3.66 0 0 0 3.635-3.669V9.323a3.66 3.66 0 0 0-3.635-3.669ZM20.245 49.272h-7.542V24.987h7.554v24.285Zm-3.771-27.6a4.373 4.373 0 1 1 4.373-4.373 4.375 4.375 0 0 1-4.373 4.371Zm32.043 27.6h-7.543V37.454c0-2.817-.057-6.44-3.919-6.44-3.93 0-4.532 3.067-4.532 6.236v12.022h-7.542V24.987h7.236v3.317h.1a7.944 7.944 0 0 1 7.148-3.919c7.633 0 9.053 5.032 9.053 11.575Z" fill="#f4f4f5"/></svg>