<svg xmlns="http://www.w3.org/2000/svg" width="61" height="61"><path data-name="Rectangle 16" fill="none" d="M0 0h61v61H0z"/><path data-name="Icon simple-tiktok" d="M31.346 5.664c2.782-.042 5.54-.021 8.3-.042a13.215 13.215 0 0 0 3.713 8.847 14.962 14.962 0 0 0 9 3.8v8.553a22.709 22.709 0 0 1-8.913-2.063 26.214 26.214 0 0 1-3.437-1.973c-.021 6.2.021 12.39-.042 18.564a16.2 16.2 0 0 1-2.864 8.359 15.807 15.807 0 0 1-12.544 6.813 15.47 15.47 0 0 1-8.656-2.185 16 16 0 0 1-7.744-12.115c-.042-1.061-.064-2.122-.021-3.161A15.972 15.972 0 0 1 26.66 24.886c.042 3.14-.085 6.28-.085 9.42a7.28 7.28 0 0 0-9.293 4.5 8.416 8.416 0 0 0-.3 3.416 7.221 7.221 0 0 0 7.426 6.089 7.128 7.128 0 0 0 5.877-3.416 4.9 4.9 0 0 0 .87-2.249c.212-3.8.127-7.574.149-11.372.021-8.55-.021-17.079.042-25.608Z" fill="#fff"/></svg>