<svg xmlns="http://www.w3.org/2000/svg" width="60" height="61"><path data-name="Rectangle 16" fill="none" d="M0 0h60v61H0z"/><path data-name="Icon awesome-twitter" d="M51.55 19.494c.035.488.035.977.035 1.466 0 14.9-11.34 32.067-32.067 32.067a31.849 31.849 0 0 1-17.307-5.061 23.318 23.318 0 0 0 2.722.14 22.571 22.571 0 0 0 13.992-4.815 11.29 11.29 0 0 1-10.538-7.816 14.214 14.214 0 0 0 2.129.174 11.92 11.92 0 0 0 2.966-.384 11.272 11.272 0 0 1-9.038-11.061v-.14a11.351 11.351 0 0 0 5.094 1.431 11.287 11.287 0 0 1-3.489-15.074 32.036 32.036 0 0 0 23.239 11.794 12.723 12.723 0 0 1-.279-2.582 11.281 11.281 0 0 1 19.502-7.711A22.189 22.189 0 0 0 55.664 9.2a11.24 11.24 0 0 1-4.953 6.211 22.594 22.594 0 0 0 6.49-1.745 24.227 24.227 0 0 1-5.653 5.827Z" fill="#fff"/></svg>