<svg xmlns="http://www.w3.org/2000/svg" width="62" height="61"><path data-name="Rectangle 16" fill="none" d="M0 0h62v61H0z"/><path data-name="Icon awesome-youtube" d="M56.572 17.493a6.867 6.867 0 0 0-4.832-4.863c-4.262-1.15-21.352-1.15-21.352-1.15s-17.09 0-21.352 1.149a6.867 6.867 0 0 0-4.832 4.863C3.062 21.78 3.062 30.733 3.062 30.733s0 8.95 1.142 13.24a6.765 6.765 0 0 0 4.832 4.785c4.262 1.149 21.352 1.149 21.352 1.149s17.09 0 21.352-1.149a6.765 6.765 0 0 0 4.832-4.786c1.14-4.292 1.14-13.239 1.14-13.239s0-8.95-1.142-13.24ZM24.799 38.859V22.606l14.284 8.126-14.284 8.127Z" fill="#fff"/></svg>