<svg xmlns="http://www.w3.org/2000/svg" xmlns:xlink="http://www.w3.org/1999/xlink" width="85" height="79" viewBox="0 0 85 79">
  <defs>
    <clipPath id="clip-path">
      <rect id="Rectangle_33" data-name="Rectangle 33" width="85" height="79" transform="translate(0 -0.646)" fill="none"/>
    </clipPath>
  </defs>
  <g id="Groupe_26" data-name="Groupe 26" transform="translate(0 0.646)">
    <g id="Groupe_25" data-name="Groupe 25" transform="translate(0 0.001)" clip-path="url(#clip-path)">
      <path id="Tracé_60" data-name="Tracé 60" d="M46.339,19.308a3.862,3.862,0,1,0-3.862-3.862,3.863,3.863,0,0,0,3.862,3.862m-27.031,0a3.862,3.862,0,1,0-3.862-3.862,3.863,3.863,0,0,0,3.862,3.862M65.647,41.564v-6.81a7.724,7.724,0,0,0-7.723-7.723H56.532A15.438,15.438,0,1,0,32.824,7.976,15.44,15.44,0,1,0,9.115,27.031H7.723A7.724,7.724,0,0,0,0,34.754V69.509a7.724,7.724,0,0,0,7.723,7.723h50.2a7.724,7.724,0,0,0,7.723-7.723V62.7l16.514,6.605.008-.017a1.888,1.888,0,0,0,.855.22,1.929,1.929,0,0,0,1.931-1.931V36.685a1.93,1.93,0,0,0-1.931-1.931M46.339,3.862A11.585,11.585,0,1,1,34.754,15.446,11.585,11.585,0,0,1,46.339,3.862M36.147,27.031H29.5A15.474,15.474,0,0,0,32.81,22.9a15.406,15.406,0,0,0,3.336,4.134M7.723,15.446A11.585,11.585,0,1,1,19.308,27.031,11.585,11.585,0,0,1,7.723,15.446M61.786,44.408v25.1a3.862,3.862,0,0,1-3.862,3.862H7.723a3.862,3.862,0,0,1-3.862-3.862V34.754a3.863,3.863,0,0,1,3.862-3.862h50.2a3.863,3.863,0,0,1,3.862,3.862ZM81.094,64.734,65.647,58.555V45.71l15.446-6.179Z" transform="translate(0 -0.036)" fill="#f4f4f5"/>
    </g>
  </g>
</svg>
