<?xml version="1.0" encoding="UTF-8"?><svg id="Calque_2" xmlns="http://www.w3.org/2000/svg" viewBox="0 0 859.95 892.96"><defs><style>.cls-1{fill:#fff;}</style></defs><g id="Calque_1-2"><g><path class="cls-1" d="m442.15,43.03c1,17.13-11.23,28.53-31.76,29.73l-15.48.9,1.24,21.19-17.79,1.04-4.49-76.87,33.27-1.94c20.54-1.2,34.01,8.7,35.01,25.95Zm-18.01,1.05c-.49-8.46-6.27-13.08-17.14-12.44l-14.5.85,1.56,26.69,14.5-.85c10.87-.63,16.07-5.9,15.59-14.24Z"/><path class="cls-1" d="m540.49,68.36c-4.02,22.64-24.61,36.08-48.44,31.85-23.94-4.25-38.52-24.04-34.53-46.56,4-22.53,24.5-36.09,48.44-31.85,23.83,4.23,38.54,23.93,34.53,46.56Zm-17.76-3.15c2.55-14.4-5.88-26.07-19.42-28.47s-25.47,5.65-28.02,20.05,5.88,26.07,19.42,28.47,25.47-5.65,28.02-20.05Zm-25.32-49.96l-12.35-2.19,17.06-13.06,14.95,2.65,11.53,18.13-12.35-2.19-7.96-9.9-10.88,6.56Z"/><path class="cls-1" d="m572.86,40l16.46,6.84-23.99,57.7,35.65,14.83-5.58,13.41-52.11-21.67,29.57-71.1Z"/><path class="cls-1" d="m659.37,157.72l-7.91,11.92-49.68-32.96,42.56-64.16,48.49,32.17-7.91,11.92-33.73-22.38-9.24,13.93,29.79,19.76-7.66,11.55-29.79-19.76-9.85,14.85,34.92,23.17Z"/><path class="cls-1" d="m684.77,148.5c5.43-5.91,13.91-6.04,19.5-.91,5.51,5.06,6.18,13.59.75,19.51-5.43,5.91-14.07,6.05-19.58.99-5.59-5.13-6.11-13.67-.68-19.59Z"/><path class="cls-1" d="m731.13,231.49l-22.15-28.06-17.18,4.87-11.31-14.33,81.71-20.76,10.9,13.82-39.12,74.73-11.58-14.68,8.73-15.58Zm7.15-12.79l15.58-27.85-30.71,8.68,15.13,19.17Z"/><path class="cls-1" d="m765.24,250.06l39.01-18.37,7.59,16.12-38.41,18.09c-13.24,6.23-15.99,14.58-11.4,24.33,4.64,9.85,12.78,12.95,26.02,6.72l38.41-18.09,7.5,15.92-39.01,18.37c-20.5,9.65-37.38,3.25-46.7-16.55-9.33-19.8-3.51-36.89,16.99-46.54Z"/><path class="cls-1" d="m844.45,326.02l6.85,34.31c4.93,24.7-6.58,44.61-29.45,49.18s-41.14-9.4-46.07-34.11l-6.85-34.31,75.52-15.07Zm-54.49,45.65c2.99,15,13.91,23.03,28.36,20.14,14.46-2.88,21.45-14.49,18.46-29.48l-3.19-15.97-46.82,9.34,3.19,15.97Z"/><path class="cls-1" d="m859.52,426.62l.43,17.82-76.98,1.86-.43-17.81,76.98-1.86Z"/><path class="cls-1" d="m823.24,463.38c22.62,3.42,36.71,23.58,33.07,47.62-3.62,23.93-22.95,39.14-45.68,35.7-22.73-3.44-36.69-23.69-33.07-47.62,3.64-24.04,23.06-39.12,45.68-35.7Zm-9.91,65.48c14.47,2.19,25.91-6.54,27.97-20.13,2.06-13.6-6.29-25.32-20.76-27.51s-25.91,6.54-27.97,20.13c-2.06,13.59,6.29,25.32,20.76,27.51Z"/><path class="cls-1" d="m813.14,645.56l-58.97-59.68,6.57-16.33,83.83-2.05-7.19,17.86-59.77,1.19,42.14,42.59-6.62,16.43Z"/><path class="cls-1" d="m803.41,659.22l-9.17,15.28-66.02-39.63,9.17-15.28,66.02,39.63Z"/><path class="cls-1" d="m729.46,649.19l6.56,13.18c-7.77,2.03-16.46,7.43-22.31,14.58-6.69,8.17-6.68,13.72-3.02,16.72,11.15,9.12,31.84-31.8,53.98-13.69,10.13,8.29,11.87,23.36-1.99,40.3-6.13,7.49-14.19,13.69-22.21,16.37l-6.99-12.83c7.68-2.96,13.88-7.41,18.2-12.69,6.69-8.17,6.2-13.83,2.45-16.9-10.98-8.99-31.76,31.87-53.64,13.97-9.96-8.15-11.72-23.38,2.21-40.4,7.73-9.45,18.34-16.69,26.75-18.62Z"/><path class="cls-1" d="m698.18,726.75l26.87,33.72-13.94,11.1-26.46-33.21c-9.12-11.44-17.88-12.2-26.31-5.48-8.52,6.79-9.65,15.42-.54,26.87l26.46,33.21-13.76,10.97-26.87-33.72c-14.12-17.72-11.78-35.62,5.34-49.26,17.12-13.64,35.08-11.92,49.21,5.8Z"/><path class="cls-1" d="m562.45,789.89l-6.27-12.85,53.58-26.16,33.78,69.19-52.29,25.53-6.27-12.85,36.38-17.76-7.34-15.03-32.12,15.69-6.08-12.45,32.12-15.69-7.82-16.01-37.66,18.39Z"/><path class="cls-1" d="m564.94,854.8l-17.21,4.61-16.16-60.35-37.29,9.99-3.76-14.02,54.5-14.6,19.92,74.37Z"/><path class="cls-1" d="m451.19,875.67c-18.97,0-31.2-9.94-32.22-26.52h0c-1.07-17.5,11.28-29.17,32.24-30.45l14.88-.91-1.3-21.19,18.98-1.16.04.6,4.74,77.45-33.86,2.07c-1.19.07-2.36.11-3.5.11Zm-31.02-26.59c1.03,16.83,14.25,26.52,34.45,25.28l32.67-2-4.63-75.65-16.59,1.01,1.3,21.19-16.08.98c-20.21,1.24-32.14,12.42-31.11,29.18h0Zm32.59,11.99c-9.68,0-15.26-4.57-15.78-13.02h0c-.55-8.95,5.17-14.25,16.11-14.92l15.09-.92,1.71,27.88-15.09.92c-.7.04-1.38.06-2.03.06Zm-14.58-13.09c.51,8.37,6.22,12.47,16.54,11.83l13.89-.85-1.56-25.48-13.89.85c-10.31.63-15.49,5.35-14.98,13.65h0Z"/><path class="cls-1" d="m359.85,892.96l-15.47-2.7-12.46-19.47,13.92,2.43,7.8,9.65,10.61-6.44,13.92,2.43-18.32,14.1Zm-14.75-3.79l14.43,2.52,15.74-12.12-10.79-1.88-11.12,6.75-8.18-10.11-10.79-1.88,10.71,16.73Zm19.16-17.29c-2.82,0-5.69-.25-8.58-.75-11.7-2.04-21.69-7.91-28.13-16.53-6.46-8.65-8.96-19.53-7.02-30.63l.59.1-.59-.1c4.03-23.07,24.65-36.73,49.04-32.48,11.72,2.05,21.72,7.93,28.16,16.58,6.44,8.65,8.92,19.51,6.98,30.58-1.93,11.08-7.94,20.46-16.93,26.41-6.77,4.49-14.92,6.82-23.54,6.82Zm-3.41-79.96c-19.85,0-35.7,12.61-39.13,32.25-1.88,10.78.53,21.33,6.8,29.71,6.26,8.38,15.98,14.08,27.38,16.07,11.42,1.99,22.52-.1,31.25-5.88,8.71-5.77,14.53-14.87,16.41-25.62s-.53-21.28-6.76-29.66c-6.25-8.4-15.99-14.12-27.41-16.12-2.9-.51-5.75-.75-8.53-.75Zm2.16,64.67c-1.54,0-3.11-.14-4.71-.41-6.77-1.18-12.51-4.71-16.16-9.94-3.7-5.3-5.06-12.11-3.83-19.17,2.51-14.41,14.58-23.08,28.66-20.62,14.09,2.46,22.5,14.7,19.99,29.11-2.23,12.77-11.95,21.04-23.95,21.04Zm-.72-49.36c-11.42,0-20.67,7.87-22.8,20.04-1.18,6.75.11,13.24,3.63,18.28,3.46,4.96,8.93,8.31,15.38,9.44,13.4,2.34,24.88-5.92,27.27-19.65,2.39-13.72-5.6-25.38-19.01-27.72-1.52-.27-3.02-.39-4.48-.39Z"/><path class="cls-1" d="m289.19,853.31l-17.58-7.25,23.82-57.77-35.7-14.72,5.99-14.53,53.28,21.97-29.81,72.3Zm-16.02-7.9l15.37,6.34,28.89-70.08-51.06-21.05-5.08,12.32,35.7,14.72-23.82,57.77Z"/><path class="cls-1" d="m217.43,821.05l-49.59-32.69,8.53-12.94,33.8,22.28,8.54-12.96-29.85-19.68,8.29-12.57,29.85,19.68,9.15-13.88-34.99-23.07,8.53-12.94,50.78,33.48-43.04,65.29Zm-47.92-33.03l47.58,31.37,41.72-63.29-48.78-32.16-7.21,10.94,34.99,23.07-10.47,15.88-29.85-19.68-6.97,10.57,29.85,19.68-9.86,14.96-33.8-22.28-7.21,10.94Z"/><path class="cls-1" d="m166.4,749.56c-3.55,0-6.97-1.35-9.69-3.83-5.94-5.43-6.31-14.37-.84-20.36,5.51-6.03,14.48-6.51,20.42-1.08,2.86,2.61,4.52,6.13,4.69,9.91.17,3.83-1.22,7.57-3.92,10.53h0c-2.7,2.96-6.29,4.67-10.1,4.82-.19,0-.37.01-.56.01Zm.26-27.84c-3.6,0-7.21,1.5-9.91,4.46-5.01,5.49-4.68,13.69.77,18.66,2.62,2.4,5.97,3.64,9.39,3.51,3.49-.14,6.78-1.71,9.26-4.43h0c2.49-2.72,3.77-6.16,3.61-9.67-.16-3.46-1.68-6.68-4.3-9.07-2.54-2.32-5.67-3.46-8.82-3.46Z"/><path class="cls-1" d="m98.92,720.56l-11.43-14.39,39.51-76.01,12.45,15.69-8.68,15.6,21.73,27.37,17.16-4.92,12.18,15.34-82.92,21.32Zm-10-14.53l10.46,13.17,80.37-20.67-10.53-13.26-17.16,4.92-22.73-28.63,8.68-15.6-10.8-13.61-38.29,73.67Zm17.3-2.85l16.64-29.94,16.3,20.53-32.94,9.41Zm16.81-27.79l-14.36,25.84,28.42-8.12-14.07-17.72Z"/><path class="cls-1" d="m56.6,662.26l-8.15-17.19,38.91-18.45c12.21-5.79,15.82-13.5,11.05-23.57-4.78-10.07-13.03-12.15-25.24-6.36l-38.91,18.45-8.06-16.99,39.51-18.73c20.55-9.75,37.89-3.66,47.55,16.71,4.77,10.05,5.71,19.32,2.79,27.53-2.95,8.3-9.66,14.99-19.94,19.86l-39.5,18.73Zm-6.55-16.62l7.12,15.02,38.42-18.22.26.54-.26-.54c9.98-4.73,16.48-11.19,19.32-19.18,2.81-7.9,1.89-16.86-2.74-26.61-9.33-19.68-26.08-25.56-45.95-16.14l-38.42,18.22,7.03,14.82,37.82-17.94c12.76-6.05,21.79-3.72,26.84,6.93,5.05,10.65,1.14,19.12-11.62,25.17l-37.82,17.94Z"/><path class="cls-1" d="m15.96,567.94l-7.06-34.87c-2.49-12.32-1.01-23.59,4.28-32.58,5.35-9.08,14.17-15.09,25.5-17.39,22.92-4.64,41.76,9.21,46.87,34.45l7.06,34.87-76.65,15.51Zm31.3-84.52c-2.7,0-5.49.28-8.34.86-10.99,2.22-19.53,8.04-24.7,16.82-5.14,8.73-6.58,19.7-4.14,31.73l6.82,33.7,74.3-15.04-6.82-33.7c-4.33-21.39-18.77-34.37-37.11-34.37Zm-20.5,64.15l-3.35-16.54c-1.53-7.54-.59-14.36,2.71-19.72,3.34-5.42,8.92-9.06,16.14-10.52,14.57-2.95,26,5.11,29.12,20.53l3.35,16.55-47.97,9.71Zm21.44-46.2c-1.83,0-3.73.2-5.7.59-6.89,1.39-12.2,4.84-15.35,9.97-3.14,5.1-4.02,11.62-2.56,18.86l3.11,15.37,45.62-9.23-3.11-15.37c-2.6-12.84-10.81-20.19-22-20.19Z"/><path class="cls-1" d="m.51,467.32l-.51-19.01,78.17-2.1.51,19.01-78.17,2.1Zm.72-17.85l.45,16.61,75.77-2.04-.45-16.61-75.77,2.04Z"/><path class="cls-1" d="m43.45,430.88c-2.07,0-4.17-.15-6.27-.47-23.17-3.44-37.34-23.71-33.71-48.21,3.64-24.49,23.11-39.77,46.26-36.33,23.17,3.44,37.34,23.71,33.71,48.21-1.75,11.77-7.38,21.92-15.86,28.57-6.87,5.39-15.27,8.22-24.12,8.22Zm-.13-84.28c-19.66,0-35.46,14.22-38.66,35.79-3.53,23.8,10.22,43.5,32.7,46.84h0c10.79,1.6,21.26-1.07,29.48-7.51,8.24-6.47,13.72-16.34,15.42-27.81,3.54-23.8-10.21-43.5-32.69-46.84-2.11-.31-4.19-.47-6.23-.47Zm.83,66.29c-1.41,0-2.85-.11-4.32-.32-7.09-1.05-13.13-4.49-16.99-9.66-3.81-5.11-5.36-11.67-4.35-18.47,1.01-6.8,4.39-12.63,9.52-16.41,5.2-3.83,11.97-5.36,19.07-4.31h0c14.47,2.15,23.44,13.98,21.34,28.13-1.89,12.72-11.79,21.04-24.27,21.04Zm-1.4-48.29c-5.23,0-10.1,1.51-14.02,4.4-4.87,3.59-8.09,9.13-9.05,15.62-.96,6.48.5,12.72,4.12,17.57,3.67,4.92,9.43,8.19,16.21,9.2,13.78,2.04,25.23-6.24,27.23-19.71,2-13.46-6.55-24.72-20.33-26.77-1.4-.21-2.79-.31-4.16-.31Z"/><path class="cls-1" d="m14.73,326.42l7.63-19.09,58.77-1.34-41.56-41.76,7.05-17.66,60.07,60.44-6.82,17.08-85.14,2.33Zm8.45-17.91l-6.66,16.66,82.53-2.25,6.24-15.61-58.23-58.59-6.08,15.23,42.97,43.18-60.77,1.38Z"/><path class="cls-1" d="m122.88,274.21l-67.17-40.05,9.74-16.34,67.17,40.05-9.74,16.34Zm-65.52-40.47l65.11,38.82,8.51-14.28-65.11-38.82-8.51,14.28Z"/><path class="cls-1" d="m130.2,244.46l-7.13-14.24.71-.19c8.01-2.12,16.43-7.65,21.95-14.44,5.8-7.13,6.89-12.77,3.06-15.88-4.27-3.48-10.39,1.27-17.47,6.77-10.3,7.99-23.11,17.93-36.46,7.07-5.42-4.41-8.28-10.41-8.27-17.35.01-7.5,3.49-15.72,10.06-23.8,6.45-7.93,14.63-13.99,22.43-16.62l.48-.16,7.6,13.84-.64.25c-7.36,2.86-13.55,7.2-17.91,12.56-3.06,3.76-4.73,7.14-4.98,10.05-.21,2.48.63,4.5,2.49,6.01,4.19,3.41,10.28-1.34,17.33-6.85,10.27-8.02,23.06-18.01,36.27-7.27,8.76,7.12,13.48,22.2-2.01,41.25-7.69,9.45-18.29,16.87-27.02,18.9l-.46.11Zm-5.4-13.47l6.05,12.08c8.4-2.13,18.51-9.29,25.91-18.38,12.29-15.11,13.15-30.64,2.19-39.56-12.46-10.14-24.32-.88-34.77,7.28-7.45,5.82-13.88,10.85-18.82,6.83-2.15-1.75-3.16-4.19-2.92-7.04.27-3.15,2.03-6.76,5.24-10.71,4.36-5.36,10.5-9.73,17.77-12.67l-6.45-11.76c-7.45,2.64-15.23,8.48-21.41,16.08-6.39,7.86-9.78,15.83-9.79,23.04-.01,6.56,2.7,12.24,7.83,16.42,12.61,10.25,24.49,1.04,34.97-7.09,7.49-5.81,13.96-10.83,18.97-6.75,2.56,2.09,5.6,7.14-2.88,17.57-5.51,6.78-13.83,12.34-21.87,14.65Z"/><path class="cls-1" d="m188.12,181.48c-1.03,0-2.06-.06-3.09-.17-8.76-.96-16.81-5.94-23.92-14.82l-27.34-34.12,14.84-11.89,26.93,33.6c4.33,5.41,8.73,8.54,13.07,9.3,4.05.71,8.23-.63,12.41-3.98,8.7-6.97,8.82-15.48.37-26.03l-26.93-33.6,14.67-11.76,27.34,34.12c7.11,8.88,10.22,17.82,9.25,26.58-.97,8.66-5.86,16.58-14.54,23.54-7.65,6.13-15.4,9.23-23.06,9.23Zm-52.66-48.92l26.59,33.18c6.91,8.62,14.68,13.46,23.12,14.38,8.33.91,16.84-2.05,25.26-8.8,8.43-6.75,13.17-14.4,14.1-22.74.94-8.43-2.08-17.08-8.99-25.69l-26.59-33.18-12.8,10.26,26.18,32.67c8.83,11.02,8.64,20.34-.55,27.71-4.46,3.58-8.96,5-13.37,4.23-4.64-.81-9.28-4.08-13.8-9.73l-26.18-32.67-12.97,10.39Z"/><path class="cls-1" d="m249.7,142.53l-34.51-70.17,53.29-26.21,6.84,13.91-36.33,17.86,6.85,13.93,32.08-15.77,6.64,13.51-32.08,15.77,7.33,14.91,37.61-18.49,6.84,13.91-54.58,26.84Zm-32.9-69.63l33.45,68.02,52.42-25.78-5.78-11.76-37.61,18.49-8.39-17.07,32.08-15.77-5.59-11.36-32.08,15.77-7.91-16.08,36.33-17.86-5.78-11.76-51.14,25.15Z"/><path class="cls-1" d="m314.21,112.74l-.16-.58-20.28-74.9,18.36-4.97,16.33,60.31,37.27-10.09,4.11,15.17-55.62,15.06Zm-18.97-74.63l19.81,73.16,53.31-14.43-3.48-12.86-37.27,10.09-16.33-60.31-16.04,4.34Z"/></g></g></svg>