<?xml version="1.0" encoding="UTF-8"?><svg id="Calque_2" xmlns="http://www.w3.org/2000/svg" viewBox="0 0 841.3 874.14"><defs><style>.cls-1{fill:#fff;}</style></defs><g id="Calque_1-2"><g><path class="cls-1" d="m423.32,39.98c1.07,14.94-9.47,25.03-27.37,26.31l-13.5.97,1.32,18.48-15.51,1.11-4.8-67.02,29.01-2.08c17.91-1.28,29.77,7.21,30.85,22.24Zm-15.7,1.12c-.53-7.37-5.62-11.34-15.1-10.66l-12.64.9,1.66,23.27,12.64-.9c9.48-.68,13.96-5.33,13.44-12.61Z"/><path class="cls-1" d="m504.92,57.79c-2.45,19.91-19.77,32.58-40.73,30-21.06-2.59-34.69-19.16-32.25-38.98s19.68-32.59,40.73-30c20.96,2.58,34.7,19.07,32.25,38.98Zm-15.62-1.92c1.56-12.67-6.33-22.44-18.24-23.91-11.91-1.46-21.93,6.1-23.49,18.78-1.56,12.67,6.33,22.44,18.24,23.91,11.91,1.46,21.93-6.1,23.49-18.78Zm-24.39-42.36l-10.86-1.34,14.26-12.17,13.15,1.62,10.89,15.27-10.86-1.34-7.4-8.26-9.18,6.22Z"/><path class="cls-1" d="m525.96,29.53l14.85,4.63-16.24,52.05,32.17,10.04-3.77,12.1-47.01-14.67,20.02-64.15Z"/><path class="cls-1" d="m607.69,121.64l-5.54,11.18-46.62-23.11,29.84-60.21,45.5,22.55-5.54,11.18-31.65-15.69-6.48,13.07,27.96,13.86-5.37,10.84-27.95-13.86-6.91,13.93,32.77,16.24Z"/><path class="cls-1" d="m624.83,108.15c3.89-5.83,11.18-7.09,16.69-3.41,5.43,3.62,7.17,10.89,3.28,16.72-3.88,5.83-11.31,7.11-16.75,3.49-5.51-3.67-7.11-10.97-3.23-16.8Z"/><path class="cls-1" d="m652.88,126.24c13.41-15.18,34.66-15.75,50.34-1.89,8.71,7.69,13.18,17.27,12.84,27.22l-13.58.3c.05-6.87-2.42-12.64-7.45-17.08-9.42-8.33-21.96-7.62-30.35,1.88-8.39,9.5-7.54,22.03,1.88,30.35,5.04,4.45,11.06,6.18,17.94,5.21l1.38,13.52c-9.9,1.63-19.96-1.62-28.74-9.37-15.61-13.79-17.67-34.95-4.26-50.13Z"/><path class="cls-1" d="m704.6,172.04c15.82-12.18,37.02-8.88,49.96,7.93,12.88,16.73,10.79,38.09-5.11,50.33-15.9,12.24-37.08,8.8-49.97-7.93-12.94-16.81-10.72-38.15,5.11-50.33Zm35.25,45.79c10.12-7.79,11.53-20.27,4.21-29.78-7.32-9.51-19.75-11.33-29.86-3.54-10.12,7.79-11.53,20.27-4.21,29.78,7.32,9.51,19.75,11.33,29.86,3.54Z"/><path class="cls-1" d="m751.09,310.56l36.59-16.94-38.44-4.09-2.93-6.37,21.17-31.4-35.85,16.49-6.1-13.26,61.05-28.08,5.38,11.69-27.43,40.3,48.29,5.05,5.34,11.6-60.97,28.26-6.1-13.26Z"/><path class="cls-1" d="m771.49,392.39l39.58-7.71-36.35-13.14-1.32-6.88,28.05-25.44-38.74,7.46-2.76-14.33,65.99-12.7,2.43,12.63-36.25,32.59,45.69,16.43,2.41,12.54-65.95,12.89-2.76-14.33Z"/><path class="cls-1" d="m803.68,416.24l37.62.97-.4,15.55-37.04-.96c-12.76-.33-18.19,5.1-18.43,14.5-.25,9.5,4.89,15.11,17.65,15.44l37.04.96-.4,15.35-37.62-.98c-19.77-.51-30.41-12.12-29.92-31.22.5-19.1,11.73-30.14,31.5-29.62Z"/><path class="cls-1" d="m823.33,560.17l-65.52-14.92,2.83-12.45,47.22-23.61-39.78-9.06,3.41-14.98,65.52,14.92-2.86,12.54-47.2,23.51,39.78,9.06-3.41,14.98Z"/><path class="cls-1" d="m816.08,578.61l-5.53,14.54-62.8-23.91,5.53-14.53,62.8,23.9Z"/><path class="cls-1" d="m776.13,591.48c17.84,9.59,23.25,30.15,13.34,48.59-5.5,10.23-13.81,16.77-23.58,18.72l-3.39-13.16c6.7-1.52,11.75-5.24,14.93-11.16,5.96-11.08,2.4-23.12-8.76-29.12-11.16-6-23.17-2.32-29.12,8.76-3.18,5.92-3.5,12.18-.98,18.66l-12.85,4.43c-3.85-9.26-2.98-19.8,2.57-30.12,9.86-18.35,30-25.19,47.84-15.59Z"/><path class="cls-1" d="m697.82,677.87l19.5-24.35-7.52-13.65,9.96-12.44,33.73,65.39-9.6,11.99-71.24-18.55,10.2-12.74,14.96,4.36Zm12.28,3.56l26.74,7.77-13.42-24.4-13.32,16.64Z"/><path class="cls-1" d="m699.49,733.53l15.96-14.42,8.5,9.4-43.45,39.26-8.5-9.4,15.96-14.42-36.56-40.46,11.54-10.43,36.56,40.46Z"/><path class="cls-1" d="m671.27,773.62l-12.65,9.05-39.1-54.64,12.65-9.05,39.1,54.64Z"/><path class="cls-1" d="m630.91,762.79c9.18,17.73,2.17,38.01-16.67,47.77-18.75,9.71-39.41,3.87-48.64-13.95-9.23-17.82-2.09-38.06,16.67-47.77,18.84-9.76,39.45-3.78,48.64,13.95Zm-51.32,26.58c5.87,11.34,17.91,14.95,28.56,9.43,10.66-5.52,14.65-17.43,8.78-28.77-5.87-11.34-17.91-14.95-28.56-9.42-10.66,5.52-14.65,17.43-8.78,28.77Z"/><path class="cls-1" d="m503.69,849.34l-17.98-64.75,12.3-3.42,43.2,30.35-10.92-39.31,14.8-4.11,17.98,64.75-12.39,3.44-43.1-30.38,10.91,39.31-14.8,4.11Z"/><path class="cls-1" d="m448.66,855.95c-16.12,0-26.64-8.47-27.77-22.71h0c-1.21-15.3,9.41-25.71,27.73-27.16l12.9-1.02-1.46-18.47,16.7-1.32.05.6,5.36,67.59-29.6,2.34c-1.33.11-2.63.16-3.9.16Zm-26.57-22.81c1.16,14.62,12.81,22.84,30.38,21.45l28.4-2.25-5.21-65.8-14.31,1.13,1.46,18.47-14.09,1.12c-17.58,1.39-27.78,11.31-26.63,25.87h0Zm28.08,10.04c-8.21,0-13-3.92-13.58-11.19h0c-.31-3.86.73-6.98,3.08-9.28,2.38-2.33,6.02-3.7,10.81-4.08l13.23-1.05,1.94,24.45-13.23,1.05c-.78.06-1.53.09-2.26.09Zm-12.38-11.28c.57,7.25,5.62,10.7,14.54,10l12.03-.95-1.75-22.06-12.03.95c-4.51.36-7.9,1.62-10.07,3.74-2.08,2.04-3,4.84-2.72,8.32h0Z"/><path class="cls-1" d="m376.99,874.14l-13.68-1.58-11.96-16.5,12.45,1.43,7.26,7.98,8.89-6.12,12.45,1.44-15.4,13.35Zm-13.02-2.71l12.64,1.46,12.94-11.22-9.29-1.07-9.38,6.46-7.66-8.42-9.29-1.07,10.05,13.87Zm13.45-15.8c-1.7,0-3.43-.1-5.2-.3-21.51-2.48-35.42-19.05-33.08-39.4h0c1.13-9.79,5.92-18.3,13.48-23.95,7.54-5.63,17.38-8.08,27.69-6.89,10.34,1.19,19.37,5.82,25.43,13.05,6.06,7.22,8.78,16.58,7.65,26.35-2.15,18.68-16.92,31.15-35.97,31.15Zm-37.08-39.56c-2.26,19.66,11.2,35.67,32.02,38.07,20.82,2.39,37.57-10.13,39.84-29.79,1.09-9.44-1.53-18.47-7.38-25.44-5.86-6.99-14.61-11.47-24.64-12.63-10.01-1.15-19.54,1.21-26.83,6.66-7.3,5.45-11.92,13.66-13.01,23.13h0Zm36.2,26.26c-.92,0-1.85-.05-2.79-.16-12.45-1.43-20.42-11.71-18.95-24.43h0c1.47-12.72,11.58-20.92,24.01-19.48,5.98.69,11.18,3.48,14.63,7.87,3.5,4.45,5.04,10.33,4.32,16.57-1.35,11.76-10.08,19.65-21.22,19.65Zm-21.15-24.53l.6.07c-1.39,12.03,6.14,21.75,17.9,23.1,11.77,1.35,21.3-6.4,22.68-18.43.68-5.92-.76-11.49-4.07-15.69-3.26-4.13-8.17-6.77-13.83-7.42-11.77-1.35-21.29,6.4-22.68,18.43l-.6-.07Z"/><path class="cls-1" d="m319.33,845.17l-16.03-4.86,15.83-52.18-32.24-9.79,4.03-13.27,48.27,14.65-19.86,65.45Zm-14.53-5.66l13.73,4.17,19.17-63.15-45.98-13.95-3.33,10.98,32.24,9.79-15.83,52.17Z"/><path class="cls-1" d="m259.64,825.7l-.54-.26-46.21-22.46,5.98-12.3,31.77,15.44,5.85-12.04-28.06-13.64,5.81-11.96,28.06,13.64,6.27-12.91-32.89-15.99,5.98-12.3.54.26,47.33,23.01-.26.54-29.64,60.97Zm-45.15-23.28l44.59,21.67,28.85-59.35-45.71-22.22-4.93,10.14,32.89,15.99-7.32,15.07-28.06-13.64-4.76,9.8,28.06,13.64-6.9,14.2-31.77-15.44-4.93,10.14Z"/><path class="cls-1" d="m209.44,772.75c-2.43,0-4.84-.72-6.98-2.12-5.91-3.87-7.48-11.57-3.58-17.52,3.93-6,11.64-7.67,17.55-3.8,2.84,1.86,4.78,4.68,5.46,7.93.69,3.3,0,6.73-1.92,9.68-1.92,2.94-4.79,4.92-8.08,5.59-.81.16-1.63.25-2.44.25Zm.1-24.32c-3.73,0-7.39,1.87-9.65,5.33-3.53,5.39-2.11,12.36,3.24,15.86,2.58,1.69,5.6,2.29,8.52,1.7,2.97-.6,5.56-2.4,7.31-5.07h0c1.75-2.67,2.38-5.79,1.75-8.77-.61-2.94-2.37-5.49-4.94-7.17-1.94-1.27-4.1-1.88-6.23-1.88Z"/><path class="cls-1" d="m165.64,761.34c-8.86,0-17.72-3.49-25.11-9.92-8.81-7.67-13.52-17.46-13.25-27.59v-.57s14.78-.44,14.78-.44v.62c0,6.74,2.48,12.32,7.38,16.57,4.48,3.89,9.88,5.84,15.17,5.48,5.32-.36,10.41-3.04,14.32-7.53,8.08-9.29,7.23-21.41-2.05-29.49-4.91-4.27-10.79-5.93-17.5-4.94l-.62.09-1.62-14.69.56-.1c10.16-1.76,20.29,1.46,29.3,9.29,7.75,6.74,12.51,15.56,13.41,24.84.9,9.35-2.19,18.62-8.7,26.11-6.52,7.49-15.27,11.83-24.66,12.23-.47.02-.94.03-1.41.03Zm-37.17-36.91c-.07,9.56,4.48,18.81,12.85,26.09,7.55,6.57,16.68,9.99,25.68,9.6,9.05-.38,17.51-4.58,23.8-11.82,6.29-7.24,9.28-16.19,8.41-25.2-.86-8.97-5.48-17.51-13-24.05-8.56-7.45-18.15-10.59-27.76-9.11l1.36,12.33c6.8-.86,12.8.92,17.84,5.3,9.82,8.54,10.71,21.37,2.17,31.18-4.12,4.74-9.5,7.56-15.14,7.94-5.63.38-11.33-1.67-16.04-5.77-5.02-4.36-7.63-10.03-7.78-16.86l-12.4.37Z"/><path class="cls-1" d="m118.08,711.37c-1.66,0-3.32-.12-4.98-.37-9.32-1.4-17.99-6.68-24.4-14.88-6.4-8.18-9.44-17.84-8.57-27.21.87-9.4,5.63-17.92,13.39-24,16.13-12.62,37.52-9.4,50.86,7.65,6.41,8.2,9.45,17.88,8.56,27.26-.89,9.38-5.64,17.89-13.39,23.95-6.36,4.98-13.85,7.6-21.48,7.6Zm-3.05-72.92c-7.19,0-14.41,2.42-20.77,7.4-7.5,5.87-12.1,14.09-12.94,23.16-.84,9.07,2.12,18.43,8.32,26.36,6.22,7.95,14.61,13.08,23.63,14.43,8.99,1.35,18.07-1.13,25.55-6.98h0c7.48-5.85,12.08-14.06,12.93-23.11.86-9.08-2.09-18.46-8.31-26.41-7.64-9.76-18-14.85-28.41-14.85Zm.82,58c-6.27,0-12.33-2.88-16.72-8.49-7.72-9.87-6-22.76,4.09-30.65h0c10.09-7.89,23.01-6.45,30.73,3.41,3.71,4.74,5.37,10.4,4.67,15.94-.71,5.61-3.82,10.84-8.76,14.71-4.36,3.41-9.25,5.08-14.01,5.08Zm-11.89-38.19c-9.54,7.46-11.17,19.64-3.88,28.96,7.29,9.32,19.51,10.67,29.05,3.21,4.69-3.67,7.65-8.61,8.31-13.91.66-5.22-.92-10.57-4.43-15.05-7.29-9.32-19.51-10.67-29.04-3.21h0Z"/><path class="cls-1" d="m56.51,649.88l-5.87-12.49,26.74-39.96-47.67-4.61-5.83-12.41,61.83-29.25,6.71,14.29-35.04,16.55,36.65,3.61,3.27,6.96-.19.28-19.74,29.78,34.32-16.11,6.71,14.29-61.92,29.07Zm-4.49-12.39l5.07,10.79,59.74-28.05-5.69-12.12-37.11,17.42,21.92-33.07-2.69-5.73-40.29-3.96,37.88-17.9-5.69-12.12-59.66,28.22,5.03,10.71,48.99,4.74-27.48,41.07Z"/><path class="cls-1" d="m16.27,557.34l-2.71-13.53.25-.23,35.26-32.2-45.19-15.86-2.7-13.44,67.03-13.64,3.11,15.49-37.98,7.71,34.73,12.25,1.51,7.54-26.53,24.44,37.18-7.46,3.1,15.49-.59.12-66.48,13.33Zm-1.4-13.1l2.34,11.69,64.72-12.98-2.63-13.13-40.2,8.06,29.18-26.88-1.25-6.21-38.18-13.47,41.06-8.33-2.63-13.13-64.68,13.16,2.33,11.6,46.44,16.29-36.49,33.32Z"/><path class="cls-1" d="m39.18,460.53c-.32,0-.64,0-.96,0l-38.22-.7.31-16.75,37.65.69c6.03.11,10.57-1.09,13.48-3.56,2.72-2.31,4.14-5.84,4.22-10.49.09-4.75-1.17-8.24-3.84-10.67-2.81-2.56-7.3-3.91-13.34-4.02l-37.65-.69.3-16.56,38.22.7c9.95.18,17.7,3.09,23.04,8.65,5.29,5.5,7.88,13.22,7.7,22.95-.18,9.73-3.05,17.35-8.53,22.65-5.37,5.19-12.89,7.81-22.39,7.81Zm-37.96-1.89l37.02.68c9.66.19,17.18-2.34,22.49-7.47,5.25-5.07,8-12.41,8.17-21.81.17-9.4-2.31-16.83-7.37-22.09-5.12-5.32-12.59-8.11-22.2-8.28l-37.02-.68-.26,14.16,36.45.67c6.34.12,11.1,1.57,14.13,4.33,2.9,2.64,4.32,6.53,4.23,11.58-.09,5.01-1.66,8.84-4.65,11.38-3.15,2.67-7.96,3.95-14.28,3.85l-36.45-.67-.26,14.35Z"/><path class="cls-1" d="m70.35,391.41l-66.81-14.68,2.95-13.43,45.78-23.24-38.8-8.52,3.55-16.17,66.81,14.68-2.93,13.33-45.8,23.34,38.8,8.52-3.55,16.17Zm-65.38-15.59l64.46,14.16,3.04-13.83-40.9-8.99,48.28-24.6,2.55-11.61-64.46-14.16-3.04,13.83,40.91,8.99-48.26,24.51-2.57,11.7Z"/><path class="cls-1" d="m87.92,321.8l-64.11-23.83,5.84-15.7,64.11,23.83-5.84,15.7Zm-62.57-24.54l61.86,23,5-13.45-61.86-23-5,13.45Z"/><path class="cls-1" d="m80.91,289.2c-5.67,0-11.39-1.43-16.75-4.26-8.78-4.63-15.01-12.17-17.53-21.21-2.51-8.98-1.24-18.96,3.57-28.08,5.45-10.33,13.92-17.15,23.84-19.2l.56-.12,3.8,14.28-.6.14c-6.56,1.54-11.43,5.23-14.45,10.96-2.77,5.25-3.43,10.94-1.87,16.02,1.57,5.1,5.33,9.44,10.6,12.22,10.88,5.74,22.5,2.15,28.24-8.73,3.04-5.76,3.31-11.87.81-18.16l-.23-.58,13.93-4.92.22.52c4.03,9.49,3.21,20.09-2.36,30.65-4.79,9.08-12.29,15.73-21.12,18.72-3.46,1.17-7.04,1.75-10.65,1.75Zm-7.18-71.46c-9.33,2.12-17.29,8.66-22.47,18.47-4.67,8.85-5.9,18.51-3.48,27.19,2.44,8.73,8.45,16,16.94,20.47h0c8.48,4.48,17.88,5.34,26.46,2.44,8.54-2.89,15.8-9.33,20.45-18.15,5.3-10.04,6.17-20.08,2.53-29.1l-11.69,4.13c2.39,6.43,2.03,12.68-1.09,18.58-6.07,11.51-18.35,15.31-29.86,9.23-5.55-2.93-9.53-7.52-11.19-12.93-1.66-5.39-.96-11.41,1.96-16.94,3.1-5.88,8.02-9.72,14.64-11.43l-3.19-11.99Z"/><path class="cls-1" d="m120.42,249.14l-.43-.82-34.41-65.47,9.99-12.67,72.65,18.33-10.92,13.86-14.99-4.24-18.82,23.87,7.62,13.59-10.69,13.56Zm-33.42-66.16l33.62,63.96,9.05-11.47-7.62-13.59,19.81-25.13,14.99,4.24,9.28-11.77-70.1-17.68-9.03,11.45Zm29.49,28.8l-14.75-26.34,29.06,8.2-14.31,18.15Zm-12.29-24.4l12.46,22.25,12.08-15.33-24.54-6.92Z"/><path class="cls-1" d="m176.82,182.81l-.41-.44-36.46-39.74-15.85,14.54-9.38-10.22,44.03-40.4,9.38,10.22-15.85,14.54,36.86,40.18-12.34,11.32Zm-36.79-41.88l.41.44,36.46,39.74,10.58-9.7-36.86-40.18,15.85-14.54-7.75-8.45-42.27,38.78,7.75,8.45,15.85-14.54Z"/><path class="cls-1" d="m207.26,156.69l-40.24-55.32,13.55-9.85,40.24,55.32-13.55,9.85Zm-38.56-55.05l38.82,53.38,11.61-8.44-38.83-53.38-11.61,8.44Z"/><path class="cls-1" d="m238.43,130.98c-3.21,0-6.37-.42-9.42-1.27-9.08-2.54-16.61-8.72-21.19-17.42-4.59-8.7-5.45-18.4-2.42-27.33,3.03-8.93,9.77-16.52,18.97-21.38,9.18-4.84,19.23-6.13,28.3-3.61,9.1,2.52,16.64,8.72,21.24,17.44,9.56,18.12,2.6,38.6-16.55,48.7-6.11,3.22-12.6,4.87-18.93,4.87Zm4.87-71.07c-6.14,0-12.44,1.6-18.37,4.73-8.93,4.71-15.46,12.06-18.39,20.7-2.92,8.61-2.09,17.98,2.34,26.38,4.43,8.4,11.7,14.38,20.46,16.82,8.78,2.45,18.54,1.21,27.47-3.5,18.53-9.78,25.28-29.58,16.05-47.08-4.45-8.42-11.73-14.4-20.5-16.84-2.93-.81-5.97-1.22-9.05-1.22Zm-2.62,57.17c-2.04,0-4.07-.3-6.02-.91-5.4-1.69-9.99-5.68-12.92-11.23-5.98-11.33-2.27-23.79,8.81-29.64,11.08-5.84,23.46-1.87,29.44,9.46h0c2.93,5.55,3.63,11.59,1.98,17-1.63,5.34-5.46,9.83-10.79,12.64-3.37,1.78-6.97,2.69-10.5,2.69Zm.28-43.25c-3.26,0-6.61.82-9.85,2.53-10.47,5.52-13.96,17.31-8.31,28.02,2.78,5.27,7.12,9.05,12.22,10.65,5.02,1.57,10.56.97,15.6-1.69,5.04-2.66,8.66-6.89,10.2-11.92,1.56-5.11.89-10.82-1.89-16.09h0c-3.9-7.4-10.69-11.48-17.97-11.48Z"/><path class="cls-1" d="m293.69,106.77l-18.81-65.76,13.22-3.78,42.19,29.25-10.92-38.19,15.92-4.55,18.81,65.76-13.13,3.75-42.29-29.22,10.92,38.19-15.92,4.55Zm-17.32-64.94l18.15,63.46,13.61-3.89-11.51-40.26,44.58,30.81,11.43-3.27-18.15-63.46-13.61,3.89,11.52,40.27-44.49-30.84-11.52,3.29Z"/></g></g></svg>