<svg xmlns="http://www.w3.org/2000/svg" width="89.651" height="89.65" viewBox="0 0 89.651 89.65">
  <g id="graph" transform="translate(2.932 -3.921)">
    <rect id="Rectangle_31" data-name="Rectangle 31" width="89.65" height="89.65" transform="translate(-2.932 3.921)" fill="none"/>
    <g id="b" transform="translate(2.581 21.746)">
      <g id="c" transform="translate(0.234 -8.535)">
        <g id="d" transform="translate(0 0)">
          <path id="Tracé_58" data-name="Tracé 58" d="M71.051,24.868V5.329a5.329,5.329,0,0,0-10.658,0V6.785L8.721,23.5a3.516,3.516,0,0,0-1.616-.409H3.553A3.563,3.563,0,0,0,0,26.644V44.406a3.552,3.552,0,0,0,3.553,3.553H7.105a3.516,3.516,0,0,0,1.616-.409l8.348,2.7-.693,2.185A7.106,7.106,0,0,0,21,61.37L39.611,67.3a7.113,7.113,0,0,0,8.935-4.618l.639-2.025,11.208,3.624v1.457a5.329,5.329,0,0,0,10.658,0V46.2A7.1,7.1,0,0,0,78.156,39.1V31.99a7.1,7.1,0,0,0-7.105-7.105ZM7.105,44.406H3.553V26.644H7.105ZM45.153,61.6a3.565,3.565,0,0,1-4.458,2.309L22.079,57.977a3.558,3.558,0,0,1-2.309-4.458l.693-2.167L45.81,59.558Zm15.24-1.066L10.658,44.442V26.608L60.393,10.515ZM67.5,65.722a1.776,1.776,0,0,1-3.553,0V5.329a1.776,1.776,0,0,1,3.553,0ZM74.6,39.078a3.563,3.563,0,0,1-3.553,3.553V28.42A3.563,3.563,0,0,1,74.6,31.973Z" transform="translate(0 0)" fill="#f4f4f5"/>
        </g>
      </g>
      <rect id="Rectangle_32" data-name="Rectangle 32" width="89.65" height="89.65" transform="translate(-5.513 -17.826)" fill="none"/>
    </g>
  </g>
</svg>
