<?xml version="1.0" encoding="UTF-8"?><svg id="Calque_2" xmlns="http://www.w3.org/2000/svg" viewBox="0 0 888.91 891.35"><defs><style>.cls-1{fill:#fff;}</style></defs><g id="Calque_1-2"><g><path class="cls-1" d="m456.07,42.74c1.01,16.97-11.1,28.28-31.45,29.49l-15.34.91,1.25,21-17.63,1.05-4.52-76.17,32.97-1.96c20.35-1.21,33.71,8.59,34.72,25.68Zm-17.84,1.06c-.5-8.38-6.23-12.95-17-12.31l-14.36.85,1.57,26.44,14.36-.85c10.77-.64,15.92-5.86,15.43-14.13Z"/><path class="cls-1" d="m553.82,67.65c-3.93,22.44-24.3,35.8-47.92,31.67-23.73-4.15-38.22-23.73-34.31-46.06s24.2-35.82,47.92-31.67c23.62,4.14,38.24,23.63,34.31,46.06Zm-17.61-3.08c2.5-14.28-5.88-25.82-19.3-28.17-13.42-2.35-25.22,5.65-27.72,19.93s5.88,25.82,19.3,28.17c13.42,2.35,25.22-5.65,27.72-19.93Zm-25.2-49.45l-12.24-2.14,16.88-12.98,14.82,2.59,11.46,17.94-12.24-2.14-7.91-9.79-10.77,6.52Z"/><path class="cls-1" d="m586.03,39.51l16.33,6.72-23.57,57.25,35.38,14.57-5.48,13.3-51.7-21.29,29.05-70.55Z"/><path class="cls-1" d="m672.49,155.98l-7.78,11.84-49.37-32.45,41.91-63.76,48.18,31.67-7.78,11.84-33.52-22.03-9.1,13.84,29.6,19.46-7.54,11.48-29.6-19.46-9.7,14.75,34.7,22.81Z"/><path class="cls-1" d="m697.83,146.89c5.35-5.89,13.76-6.05,19.32-.99,5.48,4.99,6.19,13.44.84,19.33s-13.91,6.06-19.39,1.07c-5.56-5.06-6.12-13.52-.76-19.41Z"/><path class="cls-1" d="m730.23,176c18.08-14.21,41.94-10.5,56.62,8.19,8.15,10.37,11.18,21.99,8.77,33.04l-15.23-2.45c1.46-7.67-.11-14.61-4.83-20.61-8.82-11.23-22.97-13-34.29-4.11s-12.94,23.06-4.11,34.29c4.71,6,11.09,9.17,18.97,9.49l-1.22,15.38c-11.39-.2-21.96-5.89-30.18-16.35-14.62-18.6-12.58-42.65,5.5-56.86Z"/><path class="cls-1" d="m770.59,308.87l12.8-22.46-.38-.79-6.65-13.86-19.17,9.19-7.64-15.92,68.8-33,14.29,29.78c8.82,18.38,4.8,34.45-10.63,41.85-10.32,4.95-20.39,3.37-28.51-3.73l-14.71,26.04-8.2-17.1Zm48.66-41.72l-6.22-12.97-23.98,11.5,6.22,12.97c4.67,9.73,11.55,12.47,19.02,8.89,7.57-3.63,9.63-10.67,4.96-20.4Z"/><path class="cls-1" d="m808.87,389.86l-13.78,3.32-13.83-57.44,74.18-17.86,13.5,56.06-13.78,3.32-9.39-39-16.11,3.88,8.29,34.44-13.35,3.21-8.29-34.44-17.17,4.13,9.72,40.38Zm60.17-42.07l-3.11-12.93,18.71,10.63,4.29,17.8-19.88-15.51Z"/><path class="cls-1" d="m814.14,454.39l-.8-35.42-16.5-6.39-.41-18.09,77.05,32.28.39,17.44-75.52,35.83-.42-18.53,16.2-7.12Zm13.28-5.86l28.93-12.75-29.48-11.44.54,24.19Z"/><path class="cls-1" d="m834.07,485.26c7.88,1.08,12.78,7.91,11.76,15.36-1,7.34-7.57,12.72-15.45,11.64-7.88-1.08-12.87-8.03-11.87-15.38,1.02-7.45,7.68-12.7,15.56-11.62Z"/><path class="cls-1" d="m863.69,544.93l-10.81,32.93c-7.78,23.71-27.41,35.29-49.36,28.08s-30.91-28.15-23.13-51.87l10.81-32.93,72.49,23.79Zm-69.25,12.84c-4.72,14.4.78,26.64,14.66,31.19s25.57-2.05,30.29-16.45l5.03-15.33-44.95-14.75-5.03,15.33Z"/><path class="cls-1" d="m743.23,661.01l-12.15-7.3,30.43-50.64,65.4,39.3-29.7,49.42-12.15-7.3,20.66-34.38-14.2-8.53-18.25,30.37-11.77-7.07,18.24-30.37-15.14-9.09-21.39,35.6Z"/><path class="cls-1" d="m733.2,663.43l5.83,13.37c-7.79,1.62-16.65,6.54-22.8,13.32-7.02,7.76-7.29,13.25-3.82,16.4,10.58,9.58,33.09-29.88,54.1-10.86,9.61,8.71,10.59,23.71-3.97,39.79-6.44,7.11-14.72,12.84-22.79,15.1l-6.28-13.04c7.75-2.54,14.1-6.64,18.64-11.65,7.02-7.76,6.82-13.38,3.27-16.6-10.42-9.44-33.01,29.96-53.78,11.15-9.45-8.56-10.44-23.71,4.2-39.87,8.12-8.97,18.98-15.6,27.4-17.1Z"/><path class="cls-1" d="m724.8,770.4l-13.61,11.25-48.61-58.81,13.61-11.25,48.61,58.81Z"/><path class="cls-1" d="m625.52,793.72l-13.95,8.11-15.55-26.76c4.08-9.68,12.37-18.41,21.8-23.89,20.73-12.05,44.27-6.69,55.82,13.19,11.55,19.88,4.56,42.99-16.46,55.2-11.59,6.74-23.5,8.36-34.24,4.64l4.54-14.74c7.76,2.3,14.69,1.42,21.38-2.47,12.82-7.45,16.6-21.12,9.31-33.65-7.17-12.35-21.03-16.02-33.66-8.68-4.15,2.41-7.57,5.41-10.23,9.73l11.23,19.32Z"/><path class="cls-1" d="m534.26,866.33l-21.83-73.11,13.89-4.15,49.71,33.5-13.26-44.39,16.71-4.99,21.83,73.11-14,4.18-49.6-33.54,13.26,44.39-16.71,4.99Z"/><path class="cls-1" d="m465.53,874.24c-18.82,0-30.96-9.87-31.95-26.3h0c-1.05-17.35,11.2-28.9,31.97-30.16l14.74-.89-1.27-21,18.82-1.14,4.68,77.35-33.56,2.03c-1.17.07-2.31.11-3.43.11Zm-30.75-26.38c1.01,16.68,14.09,26.28,34.11,25.07l32.37-1.96-4.53-74.96-16.43.99,1.27,21-15.94.96c-20.03,1.21-31.85,12.28-30.85,28.89h0Zm32.28,11.91c-4.49,0-8.1-.99-10.74-2.94-2.98-2.21-4.63-5.57-4.9-9.98h0c-.26-4.36.97-7.86,3.67-10.4,2.73-2.58,6.88-4.05,12.31-4.38l14.96-.9,1.67,27.63-14.96.9c-.69.04-1.36.06-2.01.06Zm14.18-27.33l-13.76.83c-5.15.31-9.03,1.67-11.56,4.05-2.43,2.29-3.54,5.47-3.29,9.46h0c.24,4.04,1.73,7.1,4.42,9.09,2.79,2.07,6.81,2.95,11.96,2.64l13.76-.83-1.53-25.24Z"/><path class="cls-1" d="m374.79,891.35l-15.34-2.67-.14-.22-12.22-19.08,13.81,2.4,7.74,9.55,10.51-6.38,13.81,2.4-18.15,13.99Zm-14.61-3.76l14.3,2.49,15.58-12-10.68-1.86-11.02,6.69-8.11-10.02-10.68-1.86,10.61,16.56Zm18.95-17.13c-2.79,0-5.62-.25-8.47-.74-24.18-4.21-38.84-23.85-34.86-46.72h0c3.98-22.87,24.41-36.43,48.59-32.21,11.62,2.02,21.53,7.85,27.92,16.42,6.38,8.56,8.85,19.33,6.94,30.3-1.91,10.98-7.86,20.28-16.76,26.18-6.72,4.46-14.8,6.77-23.35,6.77Zm-42.15-47.26c-3.86,22.18,10.39,41.25,33.88,45.34,11.31,1.97,22.31-.11,30.96-5.85,8.62-5.72,14.39-14.74,16.24-25.39,1.85-10.65-.53-21.08-6.72-29.38-6.2-8.32-15.85-13.99-27.16-15.95-23.49-4.08-43.34,9.05-47.2,31.23h0Zm40.91,32.11c-1.52,0-3.08-.13-4.66-.41-13.97-2.43-22.31-14.56-19.82-28.84h0c2.48-14.28,14.43-22.89,28.4-20.45,13.97,2.43,22.31,14.56,19.82,28.84-2.2,12.66-11.84,20.86-23.74,20.86Zm-23.3-29.04h0c-2.36,13.6,5.56,25.14,18.85,27.45,13.28,2.3,24.64-5.88,27.01-19.48,2.36-13.6-5.56-25.14-18.85-27.45-13.28-2.3-24.64,5.88-27.01,19.48Z"/><path class="cls-1" d="m304.53,852.05l-17.45-7.16.23-.55,23.29-56.72-35.39-14.53,5.92-14.42.55.23,52.28,21.46-.23.55-29.21,71.14Zm-15.88-7.82l15.22,6.25,28.52-69.47-50.62-20.78-5.01,12.2,35.39,14.53-.23.55-23.29,56.72Z"/><path class="cls-1" d="m233.15,820.09l-49.22-32.28,8.43-12.85,33.54,21.99,8.43-12.85-29.62-19.42,8.19-12.49,29.62,19.42,9.02-13.76-34.72-22.77,8.43-12.85,50.4,33.05-42.5,64.8Zm-47.56-32.62l47.21,30.96,41.18-62.79-48.39-31.74-7.11,10.84,34.72,22.77-10.34,15.77-29.62-19.42-6.87,10.48,29.62,19.42-9.74,14.86-33.54-21.99-7.11,10.84Z"/><path class="cls-1" d="m182.13,749.21c-3.39,0-6.79-1.23-9.54-3.73-2.81-2.55-4.48-6.01-4.69-9.73-.22-3.8,1.13-7.51,3.79-10.44,2.66-2.93,6.24-4.65,10.06-4.82,3.75-.17,7.37,1.14,10.18,3.69,2.84,2.58,4.5,6.06,4.68,9.8.18,3.8-1.19,7.51-3.86,10.45-2.88,3.17-6.75,4.79-10.62,4.79Zm.27-27.54c-.2,0-.4,0-.6.01-3.5.16-6.78,1.73-9.23,4.43-2.44,2.69-3.68,6.09-3.48,9.57.19,3.41,1.72,6.57,4.3,8.91,5.5,4.99,13.44,4.57,18.47-.97h0c2.46-2.7,3.71-6.11,3.55-9.58-.17-3.43-1.69-6.61-4.29-8.97-2.42-2.2-5.5-3.39-8.72-3.39Z"/><path class="cls-1" d="m135.67,724.25c-12.07,0-24.04-5.83-32.88-17.05-8.19-10.4-11.36-22.3-8.92-33.52l.12-.55,16.41,2.62-.12.61c-1.43,7.55.16,14.32,4.73,20.12,4.18,5.31,9.8,8.63,15.82,9.36,6.04.72,12.3-1.19,17.63-5.38,11.02-8.68,12.65-22.43,3.97-33.45-4.59-5.83-10.82-8.94-18.53-9.25l-.62-.03,1.3-16.56h.56c11.68.2,22.28,5.92,30.66,16.56,7.2,9.15,10.64,19.98,9.67,30.49-.97,10.6-6.38,20.26-15.21,27.22-7.54,5.93-16.09,8.83-24.59,8.83Zm-40.75-49.77c-2.14,10.7.98,22.03,8.81,31.97,14.63,18.58,38.09,21.96,55.79,8.03,8.57-6.75,13.81-16.12,14.76-26.39.94-10.21-2.41-20.74-9.42-29.64-8.01-10.17-18.08-15.71-29.17-16.08l-1.11,14.2c7.79.46,14.11,3.71,18.8,9.67,9.11,11.57,7.4,26.02-4.17,35.13-5.58,4.4-12.16,6.4-18.51,5.63-6.34-.76-12.24-4.25-16.62-9.81-4.67-5.93-6.38-12.82-5.08-20.48l-14.06-2.24Z"/><path class="cls-1" d="m71.41,659.82l-14.58-30.3c-4.4-9.15-5.73-17.95-3.85-25.44,1.9-7.55,6.99-13.5,14.71-17.22,10.09-4.86,20.22-3.67,28.61,3.31l14.89-26.42,8.86,18.41-12.77,22.47,6.65,13.81,19.15-9.22,8.18,16.99-.54.26-69.29,33.34Zm8.44-74.7c-3.81,0-7.72.93-11.63,2.82-7.39,3.56-12.26,9.24-14.07,16.43-1.82,7.22-.51,15.74,3.77,24.63l14.06,29.22,67.67-32.56-7.14-14.83-19.15,9.22-7.44-15.46,12.77-22.47-7.59-15.77-14.48,25.69-.56-.48c-4.89-4.27-10.43-6.43-16.22-6.43Zm-3.13,52.55l-6.5-13.51c-4.71-9.79-2.85-17.32,5.22-21.2,3.94-1.9,7.67-2.09,11.06-.57,3.46,1.55,6.41,4.82,8.76,9.72l6.5,13.5-25.05,12.05Zm-5.42-14.03l5.98,12.42,22.88-11.01-5.98-12.42c-2.23-4.63-4.98-7.71-8.17-9.14-3.06-1.37-6.44-1.18-10.05.55-7.49,3.6-9.1,10.38-4.66,19.6h0Z"/><path class="cls-1" d="m34.07,573.95l-.14-.58-13.7-56.63,14.94-3.62,9.43,38.99,14.94-3.61-8.33-34.43,14.52-3.51,8.33,34.43,16-3.87-9.77-40.36,14.94-3.62.14.58,14.04,58-.58.14-74.74,18.09Zm-12.39-56.33l13.28,54.88,72.99-17.66-13.61-56.25-12.61,3.05,9.77,40.36-18.33,4.44-8.33-34.43-12.18,2.95,8.33,34.43-17.27,4.18-9.43-38.99-12.61,3.05Zm3.25,39.83l-20.15-11.42-4.77-19.72,21.42,16.67,3.5,14.47Zm-19.1-12.21l17.28,9.8-2.75-11.38-18.37-14.3,3.84,15.88Z"/><path class="cls-1" d="m94.05,497.4l-78.29-32.71-.43-18.21,76.66-36.46.47,19.85-16.19,7.14.81,34.61,16.5,6.37.46,19.41Zm-77.11-33.52l75.86,31.7-.39-16.76-16.5-6.37v-.4s-.85-35.81-.85-35.81l16.19-7.14-.4-17.2-74.28,35.34.39,16.66Zm46.64,3.68l-31.68-12.25,31.06-13.73.61,25.99Zm-28.54-12.33l27.3,10.56-.53-22.39-26.77,11.83Z"/><path class="cls-1" d="m57.68,406.52c-.68,0-1.37-.05-2.07-.14h0c-7.96-1.08-13.36-8.12-12.29-16.03,1.07-7.9,8.16-13.25,16.12-12.17,3.93.53,7.36,2.51,9.67,5.56,2.27,3,3.24,6.72,2.73,10.48-.98,7.22-7.01,12.29-14.16,12.29Zm-1.91-1.33c7.36,1,13.89-3.89,14.88-11.13.47-3.44-.42-6.85-2.5-9.59-2.12-2.8-5.27-4.61-8.88-5.1-7.29-.99-13.78,3.9-14.77,11.14-1,7.36,3.84,13.67,11.26,14.67h0Z"/><path class="cls-1" d="m98.9,370.64l-73.67-24.07,10.95-33.52c3.87-11.84,10.65-20.83,19.61-25.99,9.05-5.22,19.59-6.09,30.48-2.53,10.89,3.56,18.88,10.49,23.1,20.04,4.18,9.46,4.34,20.71.47,32.56l-10.95,33.52Zm-72.15-24.84l71.38,23.33,10.58-32.38c3.78-11.56,3.63-22.52-.43-31.7-4.08-9.23-11.82-15.94-22.38-19.39-10.56-3.45-20.76-2.61-29.51,2.43-8.7,5.01-15.29,13.77-19.07,25.33l-10.58,32.38Zm63.86,3.55l-46.11-15.07,5.2-15.9c2.37-7.25,6.51-12.67,11.97-15.68,5.53-3.04,12.11-3.45,19.05-1.18,14,4.58,19.92,17.11,15.08,31.93l-5.2,15.9Zm-44.59-15.83l43.83,14.32,4.83-14.76c4.69-14.35-.8-26-14.31-30.42-6.61-2.16-12.87-1.78-18.1,1.09-5.19,2.86-9.14,8.05-11.41,15l-4.83,14.76Z"/><path class="cls-1" d="m128.32,288.74l-66.47-39.85,30.27-50.49,13.18,7.9-20.62,34.4,13.18,7.9,18.21-30.38,12.81,7.68-18.21,30.38,14.12,8.46,21.35-35.62,13.18,7.9-30.99,51.7Zm-64.83-40.26l64.41,38.61,29.76-49.64-11.12-6.67-21.35,35.62-16.17-9.7,18.21-30.38-10.75-6.44-18.21,30.38-15.24-9.14,20.62-34.4-11.12-6.67-29.03,48.43Z"/><path class="cls-1" d="m156,228.2l-6.33-14.47.72-.15c8.04-1.68,16.65-6.73,22.46-13.17,3.26-3.61,5.17-6.85,5.69-9.64.45-2.41-.17-4.4-1.85-5.91-4.04-3.66-10.34.73-17.63,5.8-10.6,7.38-23.8,16.56-36.45,5.12-5.14-4.64-7.67-10.73-7.3-17.6.4-7.42,4.26-15.39,11.18-23.04,6.79-7.52,15.2-13.1,23.06-15.3l.48-.13,6.81,14.1-.65.21c-7.43,2.45-13.78,6.43-18.37,11.51-6.01,6.65-7.18,12.25-3.29,15.76,3.98,3.59,10.24-.8,17.49-5.89,10.58-7.42,23.75-16.64,36.27-5.33,5,4.52,7.54,10.75,7.15,17.56-.43,7.48-4.32,15.49-11.26,23.17-8.09,8.96-18.97,15.75-27.72,17.32l-.47.08Zm-4.65-13.61l5.36,12.26c8.42-1.68,18.79-8.25,26.57-16.86,6.75-7.47,10.54-15.23,10.95-22.43.37-6.44-2.03-12.33-6.76-16.6-11.81-10.67-24.01-2.12-34.78,5.42-7.68,5.38-14.31,10.02-18.99,5.79-2.08-1.88-5.93-7.34,3.21-17.45,4.59-5.08,10.89-9.09,18.23-11.62l-5.78-11.96c-7.51,2.23-15.5,7.61-22.01,14.81-6.73,7.45-10.49,15.16-10.87,22.3-.35,6.49,2.04,12.25,6.9,16.64,11.94,10.79,24.17,2.29,34.96-5.22,7.71-5.37,14.37-10,19.12-5.71,1.98,1.78,2.74,4.21,2.22,7.02-.56,3.01-2.57,6.45-5.98,10.23-5.8,6.43-14.32,11.5-22.39,13.38Z"/><path class="cls-1" d="m213.24,180.14l-49.44-59.68,14.52-12.03,49.44,59.68-14.52,12.03Zm-47.75-59.52l47.91,57.83,12.67-10.5-47.91-57.83-12.67,10.5Z"/><path class="cls-1" d="m249.03,146.66c-13.64,0-26.21-6.93-33.74-19.85-11.68-20.05-4.7-43.62,16.61-56.04,11.79-6.87,23.8-8.5,34.73-4.73l.55.19-4.87,15.87-.57-.17c-7.48-2.2-14.32-1.41-20.91,2.44-12.59,7.33-16.23,20.53-9.06,32.84,7.06,12.12,20.57,15.58,32.85,8.42,4.3-2.5,7.43-5.44,9.82-9.23l-11.37-19.51,14.97-8.72,16.04,27.52-.12.28c-3.96,9.42-12.19,18.47-22.02,24.2-7.52,4.38-15.39,6.5-22.92,6.5Zm5.76-81.39c-7.28,0-14.82,2.2-22.28,6.55-20.71,12.07-27.51,34.94-16.18,54.4,11.33,19.46,34.47,24.89,55.02,12.92,9.52-5.54,17.5-14.26,21.4-23.35l-15.13-25.97-12.9,7.52,11.13,19.1-.19.31c-2.52,4.11-5.84,7.27-10.43,9.94-12.89,7.51-27.07,3.87-34.49-8.86-7.41-12.73-3.51-26.91,9.49-34.48,6.72-3.92,13.69-4.81,21.28-2.71l4.18-13.63c-3.53-1.16-7.18-1.73-10.9-1.73Z"/><path class="cls-1" d="m309.57,118.33l-.17-.58-22.08-73.67,14.84-4.45,48.48,32.71-12.99-43.34,17.86-5.35.17.58,22.08,73.67-14.73,4.42-48.59-32.68,12.99,43.35-17.86,5.35Zm-20.76-73.44l21.56,71.94,15.56-4.66-13.61-45.41,50.9,34.23,13.04-3.91-21.56-71.94-15.56,4.66,13.61,45.41-50.79-34.27-13.14,3.94Z"/></g></g></svg>