<?xml version="1.0" encoding="UTF-8"?><svg id="Calque_2" xmlns="http://www.w3.org/2000/svg" viewBox="0 0 847.62 880.5"><defs><style>.cls-1{fill:#fff;}</style></defs><g id="Calque_1-2"><g><path class="cls-1" d="m430.01,40.94c1.05,15.72-10.09,26.28-28.93,27.54l-14.21.95,1.3,19.45-16.32,1.09-4.71-70.54,30.53-2.04c18.84-1.26,31.29,7.73,32.34,23.55Zm-16.53,1.1c-.52-7.76-5.86-11.96-15.83-11.29l-13.3.89,1.63,24.49,13.3-.89c9.98-.67,14.71-5.54,14.2-13.2Z"/><path class="cls-1" d="m519.41,61.71c-3.07,20.89-21.61,33.78-43.6,30.54-22.08-3.25-36.01-21.02-32.95-41.81,3.06-20.79,21.51-33.79,43.6-30.54,21.98,3.24,36.02,20.92,32.95,41.81Zm-16.39-2.41c1.96-13.29-6.1-23.77-18.59-25.61-12.49-1.84-23.22,5.87-25.18,19.16-1.96,13.29,6.1,23.77,18.59,25.61,12.49,1.84,23.22-5.87,25.18-19.16Zm-24.59-45.17l-11.39-1.68,15.31-12.45,13.79,2.03,11.07,16.33-11.39-1.68-7.58-8.87-9.81,6.31Z"/><path class="cls-1" d="m546.45,33.91l15.4,5.53-19.39,53.99,33.37,11.98-4.51,12.55-48.77-17.51,23.89-66.54Z"/><path class="cls-1" d="m630.85,136.67l-6.52,11.4-47.52-27.17,35.09-61.37,46.38,26.52-6.52,11.4-32.26-18.45-7.62,13.33,28.5,16.29-6.32,11.05-28.5-16.29-8.12,14.2,33.41,19.1Z"/><path class="cls-1" d="m652.69,125.82c4.53-5.81,12.28-6.56,17.78-2.27,5.42,4.22,6.67,11.98,2.13,17.8s-12.42,6.58-17.84,2.35c-5.5-4.28-6.6-12.06-2.07-17.88Z"/><path class="cls-1" d="m709.17,126.75l11.88,11.25-48.6,51.35-11.89-11.25,48.6-51.36Z"/><path class="cls-1" d="m778.88,206.5l-55.89,43.29-8.23-10.62,12.35-54.15-33.94,26.28-9.9-12.78,55.89-43.29,8.29,10.7-12.41,54.07,33.94-26.28,9.9,12.78Z"/><path class="cls-1" d="m788.24,250.59l-16.73,8.33,14.58,29.3-11.75,5.85-14.58-29.3-23.06,11.47-7.29-14.65,63.3-31.5,23.8,47.83-11.75,5.85-16.51-33.19Z"/><path class="cls-1" d="m789.16,302.47c20.3-5.4,39.54,6.41,45.28,27.98,5.71,21.47-4.99,41.35-25.38,46.78s-39.56-6.51-45.28-27.98c-5.74-21.57,5.08-41.38,25.38-46.78Zm15.63,58.75c12.98-3.46,19.42-14.99,16.17-27.19-3.25-12.2-14.57-19.01-27.55-15.56-12.98,3.45-19.42,14.99-16.17,27.19,3.25,12.2,14.57,19.01,27.55,15.56Z"/><path class="cls-1" d="m777.16,440.16l19.07-14.5-.04-.81-.63-14.23-19.68.88-.73-16.35,70.63-3.15,1.36,30.58c.84,18.87-8.42,31.11-24.26,31.82-10.6.47-18.6-4.53-22.95-13.54l-22,16.85-.78-17.56Zm56.63-17.89l-.59-13.32-24.62,1.1.59,13.32c.45,9.99,5.31,14.83,12.98,14.49,7.77-.35,12.08-5.59,11.64-15.58Z"/><path class="cls-1" d="m766.34,528.85l41.72,7.66-30.55-26.85,1.35-7.25,37.25-14.13-40.81-7.6,2.81-15.09,69.5,12.94-2.48,13.3-48.03,17.97,38.42,33.65-2.46,13.21-69.54-12.74,2.81-15.09Z"/><path class="cls-1" d="m753.44,604.65l13.4-29.97-11.27-11.9,6.84-15.31,51.68,57.63-6.6,14.75h-77.45l7.01-15.67,16.39.47Zm13.44.37l29.29.81-20.14-21.29-9.15,20.47Z"/><path class="cls-1" d="m767.4,664.3l12.77-18.67,11,7.53-34.78,50.85-11-7.53,12.77-18.67-47.35-32.39,9.24-13.5,47.35,32.39Z"/><path class="cls-1" d="m745.66,715.37l-10.89,12.21-52.76-47.05,10.89-12.21,52.77,47.05Z"/><path class="cls-1" d="m609.22,734.15c.03-7.32,3.28-13.88,9.31-18.79,8.14-6.63,16.29-8.32,32.01-6.28,16.57-10.37,36.39-7.63,48.51,7.25,13.27,16.29,10.41,38.68-6.9,52.78-17.23,14.04-39.75,12.45-53.09-3.91-10.46-12.84-10.85-29.47-2.24-42.73-4.96-.65-8.14.24-10.88,2.48-3.37,2.74-5.26,6.5-5.61,11.34l-11.12-2.14Zm45.56-10.93c-9.79,7.97-11.34,21.1-2.86,31.51,8.48,10.41,21.65,11.54,31.44,3.57,9.79-7.97,11.34-21.1,2.86-31.51-8.49-10.42-21.65-11.54-31.44-3.57Z"/><path class="cls-1" d="m623.45,769.38l17.62,35.45-14.65,7.28-17.35-34.91c-5.98-12.03-13.7-14.4-22.56-9.99-8.95,4.45-11.64,11.99-5.66,24.02l17.35,34.91-14.47,7.19-17.62-35.45c-9.26-18.63-3.71-34.24,14.29-43.19,18-8.95,33.79-3.94,43.05,14.69Z"/><path class="cls-1" d="m490.55,800.76l-3.39-12.69,52.89-14.13,18.24,68.31-51.62,13.79-3.39-12.69,35.91-9.59-3.96-14.83-31.71,8.47-3.28-12.29,31.71-8.47-4.22-15.81-37.18,9.93Z"/><path class="cls-1" d="m448.29,862.97c-17.22,0-28.38-9.03-29.42-24.15h0c-1.12-16.09,10.16-26.92,29.42-28.26l13.61-.94-1.35-19.45,17.52-1.21.04.6,4.93,71.13-31.13,2.16c-1.23.09-2.44.13-3.62.13Zm-28.23-24.24c1.07,15.42,13.24,24.19,31.76,22.91l29.93-2.08-4.81-69.33-15.13,1.05,1.35,19.45-14.8,1.03c-18.52,1.28-29.37,11.62-28.3,26.97h0Zm29.73,10.82c-8.78,0-13.87-4.17-14.4-11.88h0c-.28-4.05.84-7.32,3.33-9.7,2.52-2.42,6.36-3.82,11.4-4.17l13.9-.96,1.78,25.68-13.9.97c-.72.05-1.42.08-2.1.08Zm13.1-25.44l-12.7.88c-4.75.33-8.34,1.62-10.65,3.84-2.22,2.13-3.22,5.07-2.96,8.75h0c.53,7.65,5.81,11.35,15.23,10.7l12.7-.88-1.62-23.29Z"/><path class="cls-1" d="m367.42,880.5l-14.32-2.07-.15-.22-11.88-17.43,12.97,1.87,7.41,8.63,9.54-6.18,12.97,1.87-16.53,13.52Zm-13.62-3.18l13.27,1.92,14.01-11.46-9.82-1.42-10.04,6.5-7.79-9.08-9.82-1.42,10.2,14.95Zm15.8-16.27c-2.17,0-4.38-.16-6.6-.48-22.53-3.25-36.64-21.08-33.57-42.39h0c3.08-21.31,21.67-34.42,44.19-31.17,22.53,3.25,36.64,21.08,33.57,42.39-1.48,10.23-6.75,19.01-14.84,24.73-6.43,4.54-14.34,6.92-22.74,6.92Zm-38.98-42.7c-2.98,20.62,10.71,37.88,32.55,41.03,10.52,1.52,20.64-.69,28.48-6.23,7.82-5.52,12.92-14.02,14.35-23.92,2.98-20.62-10.71-37.88-32.55-41.04-21.84-3.15-39.85,9.53-42.83,30.15h0Zm38,28.69c-1.19,0-2.4-.09-3.63-.26-13.03-1.88-21.09-12.91-19.17-26.23.94-6.53,4.08-12.1,8.83-15.67,4.69-3.53,10.72-4.97,16.97-4.07,13.03,1.88,21.09,12.91,19.17,26.23-1.74,12.06-10.8,20-22.17,20Zm-.61-45.3c-4.68,0-9.07,1.41-12.63,4.09-4.5,3.38-7.47,8.67-8.36,14.88-1.82,12.63,5.81,23.09,18.15,24.87,12.34,1.79,22.62-6.09,24.45-18.72,1.82-12.63-5.81-23.09-18.15-24.87-1.16-.17-2.31-.25-3.45-.25Z"/><path class="cls-1" d="m303.37,846.9l-16.55-5.89,19.25-54.05-33.4-11.89,4.88-13.69,49.95,17.79-24.12,67.74Zm-15.01-6.62l14.28,5.09,23.32-65.48-47.68-16.98-4.07,11.43,33.4,11.89-19.25,54.05Z"/><path class="cls-1" d="m237.73,821.51l-47.5-26.99,7.08-12.46,32.32,18.36,6.99-12.3-28.54-16.22,6.88-12.11,28.54,16.22,7.49-13.18-33.46-19.01,7.08-12.46,48.64,27.64-35.52,62.51Zm-45.86-27.44l45.41,25.8,34.33-60.43-46.55-26.45-5.89,10.37,33.46,19.01-8.68,15.27-28.54-16.22-5.69,10.02,28.54,16.22-8.18,14.39-32.32-18.36-5.89,10.37Z"/><path class="cls-1" d="m186.51,760.11c-2.82,0-5.67-.92-8.11-2.81-5.86-4.54-6.87-12.73-2.29-18.63,4.61-5.95,12.82-7.05,18.68-2.51,5.86,4.54,6.84,12.77,2.22,18.72h0c-2.67,3.44-6.56,5.24-10.51,5.24Zm.21-25.55c-3.62,0-7.2,1.66-9.66,4.83-4.17,5.37-3.26,12.82,2.07,16.95,5.42,4.2,12.7,3.25,16.93-2.21,4.2-5.42,3.32-12.9-2.01-17.03-2.21-1.71-4.78-2.54-7.33-2.54Z"/><path class="cls-1" d="m140.1,754.57l-12.79-12.04,49.28-52.36,12.79,12.04-49.28,52.36Zm-11.09-12.09l11.04,10.39,47.64-50.61-11.04-10.39-47.64,50.61Z"/><path class="cls-1" d="m109.87,726.15l-8.86-11.38.06-.28,11.9-52.47-33.02,25.71-10.67-13.7,56.73-44.18,8.8,11.3-11.91,52.83,33.02-25.71,10.67,13.7-56.73,44.18Zm-7.56-11.66l7.77,9.98,54.84-42.7-9.19-11.81-34.72,27.04,12.52-55.55-7.71-9.9-54.84,42.7,9.19,11.81,34.72-27.04-12.58,55.47Z"/><path class="cls-1" d="m56,651.41l-24.47-48.84,12.81-6.42,16.6,33.14,15.63-7.83-14.66-29.26,12.81-6.42,14.66,29.26,23.03-11.54,7.87,15.7-.54.27-63.75,31.94Zm-22.86-48.31l23.4,46.7,62.14-31.13-6.79-13.56-23.03,11.54-14.66-29.26-10.67,5.34,14.66,29.26-17.78,8.91-16.6-33.14-10.67,5.34Z"/><path class="cls-1" d="m49.59,580.15c-16.68,0-30.99-11.32-35.92-29.66-5.91-21.98,4.89-41.99,25.68-47.59,20.79-5.6,40.18,6.3,46.09,28.28,5.91,21.98-4.89,41.99-25.68,47.59h0c-3.45.93-6.85,1.37-10.17,1.37Zm-.11-77.41c-3.2,0-6.49.43-9.82,1.33-20.12,5.41-30.57,24.81-24.84,46.12,5.73,21.31,24.5,32.85,44.62,27.44h0c20.12-5.41,30.57-24.81,24.84-46.12-4.78-17.78-18.65-28.76-34.8-28.76Zm-.83,60.96c-10.17,0-18.72-6.38-21.53-16.83-3.42-12.71,3.53-24.48,16.53-27.97,6.37-1.72,12.72-1.03,17.88,1.92,5.09,2.91,8.8,7.88,10.44,13.99,1.64,6.11.93,12.27-2.02,17.34-2.98,5.14-8.14,8.92-14.51,10.63-2.31.62-4.59.92-6.8.92Zm1.83-44.53c-2.14,0-4.33.29-6.52.88-12.32,3.31-18.92,14.46-15.68,26.5,3.24,12.04,14.54,18.38,26.86,15.06,6.06-1.63,10.96-5.21,13.78-10.08,2.78-4.79,3.46-10.63,1.9-16.42-1.56-5.8-5.07-10.51-9.88-13.26-3.11-1.78-6.69-2.69-10.45-2.69Z"/><path class="cls-1" d="m2.18,489.48l-1.48-31.17c-.45-9.41,1.61-17.41,5.93-23.13,4.36-5.76,10.87-9.01,18.81-9.38,10.38-.48,18.59,4.17,23.22,13.15l22.29-17.17.9,19.02-19.03,14.55.67,14.12,19.67-.93.83,17.54-71.82,3.4Zm24.73-62.52c-.46,0-.93.01-1.4.03-7.58.36-13.77,3.44-17.91,8.91-4.16,5.49-6.12,13.22-5.69,22.35l1.42,29.97,69.42-3.29-.72-15.14-19.67.93-.75-15.95,19.03-14.55-.76-16.09-21.62,16.66-.32-.66c-4.14-8.53-11.57-13.17-21.01-13.17Zm-12.19,45.54l-.66-13.92c-.24-5.05.71-9.03,2.83-11.81,2.09-2.75,5.24-4.24,9.34-4.44,4.06-.18,7.32,1,9.68,3.54,2.4,2.58,3.73,6.45,3.97,11.49l.66,13.92-25.82,1.22Zm12.34-28.98c-.25,0-.51,0-.77.02-3.73.18-6.57,1.51-8.44,3.96-1.94,2.55-2.81,6.26-2.59,11.02l.6,12.72,23.42-1.11-.6-12.72c-.22-4.75-1.45-8.36-3.65-10.73-1.96-2.11-4.63-3.17-7.97-3.17Z"/><path class="cls-1" d="m70.71,415.71L0,402.73l2.61-14.23.32-.12,47.05-17.74-38.01-33.13,2.59-14.14,70.75,12.78-2.99,16.28-40.19-7.28,29.24,25.57-1.45,7.92-35.53,13.57,39.31,7.22-2.99,16.28ZM1.4,401.76l68.35,12.55,2.55-13.92-42.34-7.77,38.9-14.86,1.21-6.58-31.99-27.98,43.29,7.84,2.55-13.92-68.39-12.35-2.26,12.29,39.01,34-48.61,18.33-2.27,12.39Z"/><path class="cls-1" d="m85.89,334.23l-52.72-58.46,6.87-15.48,78.76-.22-7.5,16.91-16.39-.42-12.99,29.27,11.31,11.87-7.34,16.54Zm-51.31-58.68l50.96,56.5,6.26-14.11-11.31-11.87,13.64-30.74,16.39.42,6.43-14.48-76.13.21-6.24,14.06Zm37.59,21.62l-21.81-22.93,31.63.79-9.82,22.14Zm-18.94-21.66l18.57,19.53,8.37-18.85-26.94-.67Z"/><path class="cls-1" d="m127.99,249.45l-47.44-32.26-12.72,18.71-12.02-8.17,35.32-51.94,12.02,8.17-12.72,18.71,47.44,32.26-9.88,14.52Zm-47.76-33.93l47.44,32.26,8.53-12.54-47.44-32.26,12.72-18.71-10.03-6.82-33.97,49.96,10.03,6.82,12.72-18.71Z"/><path class="cls-1" d="m154.97,212.95l-.45-.4-53.34-47.31,11.65-13.14.45.4,53.34,47.31-11.65,13.14Zm-52.1-47.81l52,46.12,10.06-11.34-52-46.12-10.06,11.34Z"/><path class="cls-1" d="m176.3,178.08c-10.64,0-20.86-4.64-28.17-13.56-6.55-8-9.47-17.81-8.22-27.64,1.25-9.83,6.6-19.07,15.06-26,17.61-14.43,40.29-12.81,53.94,3.85,10.13,12.37,11.24,28.99,2.91,42.61,4.05.37,6.92-.39,9.47-2.48,3.28-2.69,5.03-6.27,5.36-10.94l.05-.67,12.28,2.33v.5c0,7.54-3.29,14.21-9.48,19.28-8.24,6.75-16.7,8.47-32.24,6.53-6.69,4.17-13.92,6.2-20.96,6.2Zm4.58-75.81c-8.54,0-17.35,3.15-25.15,9.53-8.22,6.74-13.42,15.7-14.63,25.22-1.21,9.5,1.62,18.99,7.96,26.73,11.79,14.39,31.42,17.26,47.74,6.99l.18-.11.21.03c15.5,1.96,23.46.39,31.54-6.24,5.77-4.73,8.89-10.89,9.04-17.86l-9.98-1.89c-.47,4.64-2.4,8.37-5.74,11.11-3.03,2.48-6.41,3.27-11.33,2.64l-.94-.12.52-.8c8.59-13.32,7.68-29.81-2.32-42.02-7.18-8.76-16.94-13.21-27.1-13.21Zm-2.14,60.71c-.71,0-1.42-.04-2.13-.11-5.92-.61-11.48-3.75-15.66-8.85-8.53-10.41-7.33-24.02,2.85-32.36,10.18-8.34,23.77-6.84,32.29,3.57,4.18,5.1,6.17,11.17,5.6,17.09-.56,5.84-3.56,11.26-8.46,15.27-4.3,3.52-9.38,5.4-14.5,5.4Zm-.5-45.49c-4.73,0-9.5,1.67-13.67,5.09-9.64,7.9-10.77,20.8-2.69,30.68,3.98,4.86,9.25,7.85,14.85,8.42,5.51.56,11.11-1.22,15.75-5.02h0c4.64-3.8,7.49-8.94,8.02-14.46.54-5.6-1.36-11.36-5.33-16.22-4.59-5.6-10.72-8.49-16.93-8.49Z"/><path class="cls-1" d="m250.61,130.41c-2.91,0-5.72-.45-8.41-1.34-7.69-2.55-13.97-8.59-18.65-17.94l-17.99-35.94,15.7-7.86,17.71,35.4c5.54,11.06,12.66,14.22,21.78,9.66,9.12-4.56,10.86-12.16,5.33-23.22l-17.71-35.4,15.52-7.77,17.98,35.94c4.68,9.35,5.75,17.99,3.18,25.68-2.54,7.6-8.47,13.78-17.62,18.36-5.91,2.96-11.54,4.44-16.84,4.44Zm-43.44-54.68l17.45,34.87c4.53,9.06,10.57,14.89,17.95,17.34,7.3,2.42,15.48,1.4,24.34-3.03,8.85-4.43,14.58-10.37,17.01-17.66,2.46-7.37,1.42-15.7-3.11-24.76l-17.45-34.87-13.38,6.69,17.18,34.33c5.82,11.62,3.84,19.98-5.86,24.83-9.7,4.86-17.58,1.43-23.39-10.2l-17.18-34.33-13.56,6.79Z"/><path class="cls-1" d="m307.03,106.82l-18.74-69.41,52.74-14.24,3.73,13.83-35.88,9.69,3.69,13.66,31.69-8.55,3.63,13.44-31.69,8.55,3.95,14.64,37.15-10.03,3.73,13.83-54,14.58Zm-17.27-68.56l18.11,67.09,51.69-13.95-3.11-11.52-37.15,10.03-4.58-16.96,31.69-8.55-3-11.13-31.69,8.55-4.31-15.98,35.88-9.69-3.11-11.52-50.42,13.61Z"/></g></g></svg>